<svg xmlns="http://www.w3.org/2000/svg" viewBox="0 0 77.59 12.57"><defs><style>.cls-1{fill:#fff;}</style></defs><title>アセット 11</title><g id="レイヤー_2" data-name="レイヤー 2"><g id="レイヤー_1-2" data-name="レイヤー 1"><path class="cls-1" d="M4.38,6.57A.55.55,0,0,1,4,6.73a2.27,2.27,0,0,1-.39,0h-.4c-.39,0-.59.15-.59.43a7.45,7.45,0,0,0,.56,1.67,6.79,6.79,0,0,1,.55,2.1A1.32,1.32,0,0,1,3.18,12a2.6,2.6,0,0,1-1.58.44c-1.08,0-1.6-.23-1.6-.65a.71.71,0,0,1,.17-.48A.41.41,0,0,1,.51,11l.49.06a4.51,4.51,0,0,0,.74.06c.49,0,.75-.16.75-.52a7.61,7.61,0,0,0-.56-1.68,6.13,6.13,0,0,1-.53-2,1.41,1.41,0,0,1,1-1.42,1,1,0,0,1,.89-.38c.69,0,1.06.23,1.12.68a.79.79,0,0,1,.09.35A.53.53,0,0,1,4.38,6.57Z"/><path class="cls-1" d="M11.1,8.46a5.7,5.7,0,0,0-.3,1.83,4.19,4.19,0,0,0,.1.79c.06.36.11.54.11.59a.62.62,0,0,1-.2.42.77.77,0,0,1-.43.15c-.44,0-.69-.59-.77-1.73a3.47,3.47,0,0,1-2.26,1.26,1.44,1.44,0,0,1-1.13-.55A1.75,1.75,0,0,1,5.74,10,4,4,0,0,1,7.29,7.23,4.23,4.23,0,0,1,10,5.82a1,1,0,0,1,.59.24.68.68,0,0,1,.28.51.71.71,0,0,1,0,.21,2.84,2.84,0,0,1,.15.91.75.75,0,0,1,.2.44A1.26,1.26,0,0,1,11.1,8.46ZM9.55,7.14c-.28,0-.78.34-1.47,1S6.94,9.48,6.94,10s.15.55.47.55A2.25,2.25,0,0,0,9,9.49a3.08,3.08,0,0,0,.87-1.8C9.82,7.33,9.73,7.14,9.55,7.14Z"/><path class="cls-1" d="M14.67,7.83a14.58,14.58,0,0,0-.5,3.09.86.86,0,0,1,.3.67.4.4,0,0,1-.15.26.38.38,0,0,1-.27.13c-.69,0-1-.61-1-1.84a18.53,18.53,0,0,1,.6-3.42,2.47,2.47,0,0,1,0-.36.53.53,0,0,1,.34-.48c.66,0,1,.31,1,.94Zm.45-5.91a1,1,0,0,1-.26-.06c-.43-.15-.64-.54-.64-1.17q0-.46.63-.69c.51.06.76.39.76,1S15.45,1.92,15.12,1.92Z"/><path class="cls-1" d="M21.7,9.28a.49.49,0,0,1-.4.27,13.08,13.08,0,0,0-1.53-.09,4.66,4.66,0,0,0-2.25.36.48.48,0,0,1-.29.11A.29.29,0,0,1,17,9.75a.53.53,0,0,1-.12-.35,1.22,1.22,0,0,1,.42-.88.92.92,0,0,1,.59-.33.38.38,0,0,1,.31.18,10.84,10.84,0,0,1,1.67-.12,9.67,9.67,0,0,1,1.81.13.34.34,0,0,1,.26.36A1,1,0,0,1,21.7,9.28Z"/><path class="cls-1" d="M27.36,11.2a2.82,2.82,0,0,1-1.73.68,2.14,2.14,0,0,1-2.2-2.22,4.18,4.18,0,0,1,.87-2.57,3.12,3.12,0,0,1,2.5-1.47,1.11,1.11,0,0,1,.63.21.71.71,0,0,1,.27.57.81.81,0,0,1-.25.53.85.85,0,0,1-.59.25A1.62,1.62,0,0,1,26,7a3.35,3.35,0,0,0-1,1.1,2.65,2.65,0,0,0-.4,1.38c0,.75.28,1.11.88,1.11a1.49,1.49,0,0,0,.95-.29c.15-.15.33-.3.51-.45a1,1,0,0,1,.51-.3.57.57,0,0,1,.4.2.72.72,0,0,1,.18.45C28.06,10.53,27.82,10.84,27.36,11.2Z"/><path class="cls-1" d="M34.74,12.16c-.63,0-1-.7-1-2.14L33.64,8.2A9.49,9.49,0,0,0,31,10.77c-.1.24-.21.48-.32.7s-.32.5-.44.5a.78.78,0,0,1-.59-.27,1,1,0,0,1-.22-.62v-.4c0-.23,0-.39,0-.48A22,22,0,0,1,29.83,6l.88-4.79c.08-.49.25-.75.49-.75a.58.58,0,0,1,.49.32,1.09,1.09,0,0,1,.23.63,7.12,7.12,0,0,1-.12.74c-.09.43-.23,1.07-.38,1.94L31,6.42c-.07.39-.19,1.27-.36,2.65A10.9,10.9,0,0,1,32.35,7.5a4.37,4.37,0,0,1,1.73-1,.71.71,0,0,1,.55.29,1.14,1.14,0,0,1,.24.67s0,.26-.06.63,0,.62,0,.71a15.63,15.63,0,0,0,.14,2c0,.27.07.59.12,1S34.92,12.16,34.74,12.16Z"/><path class="cls-1" d="M41.93,8.46a5.72,5.72,0,0,0-.31,1.83,3.63,3.63,0,0,0,.11.79c.06.36.1.54.1.59a.6.6,0,0,1-.19.42.8.8,0,0,1-.44.15c-.43,0-.68-.59-.76-1.73a3.46,3.46,0,0,1-2.27,1.26,1.42,1.42,0,0,1-1.12-.55A1.75,1.75,0,0,1,36.57,10a4,4,0,0,1,1.54-2.76,4.23,4.23,0,0,1,2.72-1.41,1,1,0,0,1,.58.24.67.67,0,0,1,.29.51.71.71,0,0,1,0,.21,2.84,2.84,0,0,1,.15.91.75.75,0,0,1,.2.44A1.89,1.89,0,0,1,41.93,8.46ZM40.38,7.14c-.29,0-.78.34-1.47,1S37.77,9.48,37.77,10s.15.55.46.55a2.27,2.27,0,0,0,1.55-1,3.08,3.08,0,0,0,.87-1.8C40.65,7.33,40.56,7.14,40.38,7.14Z"/><path class="cls-1" d="M48.81,11.52c0,.27-.15.42-.36.42a.66.66,0,0,1-.55-.27,1,1,0,0,1-.23-.65s0-.3.09-.85L48,8.25a10.29,10.29,0,0,0-2.62,2.67c-.11.18-.2.37-.29.55s-.3.38-.45.38c-.63,0-.93-.89-.93-2.67a13.54,13.54,0,0,1,.5-3.57c.06-.21.16-.33.34-.33a.76.76,0,0,1,.57.25,1.05,1.05,0,0,1,.23.65c-.08.3-.15.63-.23,1a12.36,12.36,0,0,0-.22,2.31,12.13,12.13,0,0,1,3.42-3,1.08,1.08,0,0,1,.58.23.71.71,0,0,1,.29.55C49.17,8,49.05,9.4,48.81,11.52Z"/><path class="cls-1" d="M52.76,12a.7.7,0,0,1-.68.56.83.83,0,0,1-.63-.42,1.32,1.32,0,0,1-.29-.66,1.28,1.28,0,0,1,.33-.78.89.89,0,0,1,.71-.41c.49,0,.75.33.75,1A7.6,7.6,0,0,1,52.76,12Z"/><path class="cls-1" d="M58.89,11.2a2.82,2.82,0,0,1-1.73.68A2.14,2.14,0,0,1,55,9.66a4.18,4.18,0,0,1,.87-2.57,3.12,3.12,0,0,1,2.5-1.47,1.11,1.11,0,0,1,.63.21.68.68,0,0,1,.27.57.77.77,0,0,1-.25.53.85.85,0,0,1-.58.25A1.64,1.64,0,0,1,57.57,7a3.35,3.35,0,0,0-1,1.1,2.65,2.65,0,0,0-.4,1.38c0,.75.28,1.11.88,1.11a1.49,1.49,0,0,0,1-.29c.15-.15.33-.3.51-.45a1,1,0,0,1,.51-.3.57.57,0,0,1,.4.2.72.72,0,0,1,.18.45C59.59,10.53,59.35,10.84,58.89,11.2Z"/><path class="cls-1" d="M65,10.86a2.18,2.18,0,0,1-1.83,1,2,2,0,0,1-1.57-.74A2.8,2.8,0,0,1,61,9.25a3.89,3.89,0,0,1,.44-1.83,2.72,2.72,0,0,1,1.23-1.33,3.52,3.52,0,0,0,.49-.26.88.88,0,0,1,.44-.19l.36.09a2.7,2.7,0,0,1,1.3,1,2.79,2.79,0,0,1,.5,1.61A4.34,4.34,0,0,1,65,10.86ZM64.11,7.3a1.15,1.15,0,0,1-.59-.13,1.19,1.19,0,0,0-1,.73,2.67,2.67,0,0,0-.35,1.35,1.55,1.55,0,0,0,.29.95.82.82,0,0,0,.72.42,1.22,1.22,0,0,0,1-.68,2.61,2.61,0,0,0,.42-1.41C64.54,7.9,64.39,7.48,64.11,7.3Z"/><path class="cls-1" d="M76.78,11.68c-.63,0-1.06-1-1.3-3.1a11.9,11.9,0,0,0-1.86,2.23c-.3.47-.59.69-.86.69a.81.81,0,0,1-.69-.54,7.25,7.25,0,0,1-.66-2.86,6.25,6.25,0,0,0-2.64,3.42q-.18.63-.66.63-.69,0-.69-1.26a12,12,0,0,1,.35-2.28,13.53,13.53,0,0,0,.34-2.06,2,2,0,0,0-.22-.88.8.8,0,0,1,.3-.59.76.76,0,0,1,.54-.22c.43,0,.66.48.66,1.41A15.33,15.33,0,0,1,69,8.77c1.77-1.66,2.84-2.5,3.23-2.5a.49.49,0,0,1,.48.28,3,3,0,0,1,.07.78A8.19,8.19,0,0,0,73,9.73c1.41-1.89,2.49-2.85,3.26-2.85.33,0,.49.18.51.54a6.67,6.67,0,0,0,.63,3.12,1.44,1.44,0,0,1,.22.44C77.59,11.46,77.32,11.68,76.78,11.68Z"/></g></g></svg>