<svg xmlns="http://www.w3.org/2000/svg" viewBox="0 0 18.32 18.44"><defs><style>.cls-1{fill:#fff;}</style></defs><title>アセット 13</title><g id="レイヤー_2" data-name="レイヤー 2"><g id="レイヤー_1-2" data-name="レイヤー 1"><path class="cls-1" d="M6.6.56a11.74,11.74,0,0,0-.48,1.12A28.66,28.66,0,0,1,4.68,5v11a17.16,17.16,0,0,0,.14,2.42H3a18.36,18.36,0,0,0,.14-2.46V9.52c0-.74,0-1.14.08-2.48A15.78,15.78,0,0,1,.9,10,4.66,4.66,0,0,0,0,8.52,16.49,16.49,0,0,0,4.1,2.66,11.25,11.25,0,0,0,5,0Zm3.08,4A21.37,21.37,0,0,1,6.46,9.44a4.24,4.24,0,0,0-1.1-1.22A16.75,16.75,0,0,0,8.84,2.86,12.39,12.39,0,0,0,9.7,0l1.64.52c-.16.38-.22.54-.4,1-.3.84-.38,1.08-.64,1.66h6.1a12.55,12.55,0,0,0,1.92-.12V4.68a15.86,15.86,0,0,0-1.92-.1H12v3h3.8a9.91,9.91,0,0,0,1.82-.12V9.1A13,13,0,0,0,15.78,9H12v3h3.86a11.69,11.69,0,0,0,1.82-.12v1.64a12.43,12.43,0,0,0-1.82-.12H12v2.84a11.61,11.61,0,0,0,.14,2.18H10.3a13.51,13.51,0,0,0,.12-2.18V4.58Z"/></g></g></svg>