<svg xmlns="http://www.w3.org/2000/svg" viewBox="0 0 485.2 77.6"><defs><style>.cls-1{fill:#fff;}</style></defs><title>アセット 4</title><g id="レイヤー_2" data-name="レイヤー 2"><g id="レイヤー_2-2" data-name="レイヤー 2"><path class="cls-1" d="M21.9,10.9c-8.6,0-9,.1-10.3,4.5-.3.9-.5,2-.9,3.2a5.43,5.43,0,0,1-5.3,4.1A5.2,5.2,0,0,1,0,17.5a8.51,8.51,0,0,1,.5-2.6C3.7,5.3,5.4.9,16,.9h1.9c3.1.1,8.2.2,13.7.2,6.7,0,13.9-.1,18.5-.2h1C59,.9,63.2,3.2,65.3,9c.6,1.6,1.7,3.9,2.4,6a6.56,6.56,0,0,1,.4,2.3,5.51,5.51,0,0,1-10.8,1.3q-.45-1.65-.9-3c-1.5-4.6-2.5-4.7-7.8-4.7-8.2,0-8.3,0-8.3,2.2-.2,7.4-.3,18.1-.3,28.7,0,7.7.1,15.3.2,21.6,0,2.2,1,2.3,2.8,2.3,3.9,0,5.8,2.7,5.8,5.4a5.25,5.25,0,0,1-5.5,5.3h-.4c-2.5-.1-5.3-.2-8.1-.2-3.3,0-6.5.1-8.8.2a5.36,5.36,0,1,1-.4-10.7H26c1.8-.1,2.8,0,2.8-2.2,0-8.1.2-20.3.2-32.6,0-6.1,0-12.2-.2-17.8C28.8,10.9,28.8,10.9,21.9,10.9Z"/><path class="cls-1" d="M75.3,38.8C75.3,16.3,91.8,0,113.8,0s38.6,16.3,38.6,38.8c0,23.3-16.6,38.8-38.6,38.8S75.3,62.1,75.3,38.8Zm65.5,0c0-17.5-12.1-28.7-27-28.7s-27,11.2-27,28.7c0,17.3,12.1,28.5,27,28.5S140.8,56.1,140.8,38.8Z"/><path class="cls-1" d="M213.3,11.5c-4-.1-6-2.8-6-5.5,0-2.5,1.9-5,5.5-5h.5c2.1.1,4.7.2,7.4.2,3.3,0,6.7-.1,9.4-.2h.2c4,0,5.9,2.6,5.9,5.3s-2,5.2-5.7,5.2h-.4c-.4,0-.7-.1-1-.1-.9,0-1.4.3-1.4,1.7-.1,4.5-.1,8.6-.1,12.5,0,6.4.1,12.5.2,19.7.5,21.8-15.5,32.2-30.2,32.2-15,0-29.9-10.4-29.9-31.3v-.5c.1-7.4.2-15,.2-22.5,0-3.4,0-6.8-.1-10.1,0-1-.2-1.7-1.3-1.7h-.2l-1.2.1c-4.3.2-6-2.9-6-5.3A5.18,5.18,0,0,1,164.6,1h.5c2.1.1,4.7.2,7.5.2,3.3,0,6.7-.1,9.4-.2h.2c4,0,5.8,2.6,5.8,5.3a5.2,5.2,0,0,1-5.6,5.2H182l-1.4-.1h-.4c-1.3,0-1.5.5-1.5,1.9v4.8c0,7.7.1,15.3.1,23.1v5.2c0,13.6,9.1,20.2,18.4,20.2,9.6,0,19.4-7.2,19.4-21,0-8.7.1-17.2.1-25.7V13.5c0-1.6-.1-2-1.8-2Z"/><path class="cls-1" d="M310.7,65.9h.2c4,0,5.8,2.6,5.8,5.3a5.2,5.2,0,0,1-5.6,5.2h-.4c-2.6-.1-5.4-.2-8.1-.2-3.3,0-6.4.1-8.8.2a5.46,5.46,0,0,1-6-5.3,5.18,5.18,0,0,1,5.5-5.2h.5c.5,0,1,.1,1.5.1a1.53,1.53,0,0,0,1.7-1.7c.1-4.5.1-8.6.1-12s0-6.2-.1-8-.5-2-2.1-2.1c-3.5-.1-8.9-.2-14.6-.2-6.8,0-13.9.1-17.8.2-.8,0-2.1.2-2.1,1.9-.1,2.4-.1,6.8-.1,12.4v7.4c0,1,.4,2,1.7,2h1.3c4,0,5.9,2.6,5.9,5.3s-2,5.2-5.7,5.2h-.4c-2.6-.1-5.3-.2-8-.2-3.3,0-6.4.1-8.8.2h-.4a5.26,5.26,0,1,1,0-10.5h2.4a1.49,1.49,0,0,0,1.1-1.6c.1-10.1.2-21.5.2-32.2,0-6.6,0-12.8-.1-18.3,0-1.2-.1-2.4-1.5-2.4h-.2l-1.5.1c-4.3.2-6-2.9-6-5.3A5.18,5.18,0,0,1,245.8,1h.5c2.1.1,4.7.2,7.4.2,3.3,0,6.7-.1,9.4-.2h.2c4,0,5.9,2.6,5.9,5.3s-2,5.2-5.7,5.2h-1.1c-1.2,0-2,.3-2,2,0,3.6-.1,6.9-.1,9.8s.1,5.1.1,6.7.9,2,1.8,2c2.5.1,8.9.1,15.6.1s13.8,0,17.4-.1c1.4,0,1.8-.7,1.8-1.9.1-1.6.1-3.9.1-6.8s0-6.4-.1-10.2c0-1.5-.9-1.7-2.1-1.7-.3,0-.8.1-1.1.1-4.3.2-6-2.9-6-5.3A5.18,5.18,0,0,1,293.3,1h.5c2.1.1,4.7.2,7.5.2,3.3,0,6.7-.1,9.4-.2h.2c4,0,5.8,2.6,5.8,5.3a5.2,5.2,0,0,1-5.6,5.2h-1c-1.1,0-2,.3-2,1.7-.1,6.7-.2,14.8-.2,23,0,9.9.1,20,.2,27.8,0,1.2.3,1.6,1.7,1.9Z"/><path class="cls-1" d="M324.3,38.8C324.3,16.3,340.8,0,362.8,0s38.6,16.3,38.6,38.8c0,23.3-16.6,38.8-38.6,38.8S324.3,62.1,324.3,38.8Zm65.5,0c0-17.5-12.1-28.7-27-28.7s-27,11.2-27,28.7c0,17.3,12.1,28.5,27,28.5S389.8,56.1,389.8,38.8Z"/><path class="cls-1" d="M462.3,11.5c-4-.1-6-2.8-6-5.5,0-2.5,1.9-5,5.5-5h.5c2.1.1,4.7.2,7.4.2,3.3,0,6.7-.1,9.4-.2h.2c4,0,5.9,2.6,5.9,5.3s-2,5.2-5.7,5.2h-.4c-.4,0-.7-.1-1-.1-.9,0-1.4.3-1.4,1.7-.1,4.5-.1,8.6-.1,12.5,0,6.4.1,12.5.2,19.7.5,21.8-15.5,32.2-30.2,32.2-15,0-29.9-10.4-29.9-31.3v-.5c.1-7.4.2-15,.2-22.5,0-3.4,0-6.8-.1-10.1,0-1-.2-1.7-1.3-1.7h-.2l-1.2.1c-4.31.2-6-2.9-6-5.3A5.18,5.18,0,0,1,413.6,1h.5c2.1.1,4.7.2,7.5.2,3.3,0,6.7-.1,9.4-.2h.2c4,0,5.8,2.6,5.8,5.3a5.2,5.2,0,0,1-5.6,5.2H431l-1.4-.1h-.4c-1.3,0-1.5.5-1.5,1.9v4.8c0,7.7.1,15.3.1,23.1v5.2c0,13.6,9.1,20.2,18.4,20.2,9.6,0,19.4-7.2,19.4-21,0-8.7.1-17.2.1-25.7V13.5c0-1.6-.1-2-1.8-2Z"/></g></g></svg>