<svg xmlns="http://www.w3.org/2000/svg" viewBox="0 0 1460.48 1886.15"><defs><style>.cls-1{fill:#9f221b;}</style></defs><title>アセット 1</title><g id="レイヤー_2" data-name="レイヤー 2"><g id="レイヤー_2-2" data-name="レイヤー 2"><path class="cls-1" d="M852,122.56h0a86.75,86.75,0,0,1,14.16-18.41L876.8,93.57l13-12.12A138.45,138.45,0,0,1,908.28,67l5.6-3.67a146.5,146.5,0,0,1,16.82-9.52l10.73-5.17a110.84,110.84,0,0,1,13-5.27l15.24-5.08a68,68,0,0,1,7.11-2l5-1.08a114.43,114.43,0,0,1,17.68-2.43l16.66-1,1.44-.91a117.52,117.52,0,0,1,15-8l.9-.4a116.09,116.09,0,0,1,13.41-5l9.89-3,4,4.14.08.19a62,62,0,0,1,4.6,16.85l2.47,19.48.38,1a58.6,58.6,0,0,1,3.83,19.37h0a73,73,0,0,1-.41,9.69l-2.29,21.14-5.28,7.16-2.25,23,1.5,8.66-2.15,9.33a100.76,100.76,0,0,1-3,10.54l-4.78,13.83-6.41,5.08-4.63,8.88a86.3,86.3,0,0,0-3.84,8.42l-1,2.49a80.76,80.76,0,0,1-8,15.28l-.83,1.26,2.61.71a119,119,0,0,1,19,7l9.33,4.36q4,1.89,7.92,4.12l25.87,14.9,19.79,12.62a131.51,131.51,0,0,1,11.89,8.55l12.29,9.94,17.38,14.21,5.18,2a111.86,111.86,0,0,1,10.46,4.62l6,3c2.49,1.26,4.92,2.63,7.29,4.09l9.14,5.66-3.84,7-5.52,10.66q-1.83,3.56-3.93,7l-10.94,17.82-5.18,1.5-8,10.53L1145,384.38l.5,3.51h0a91.69,91.69,0,0,1-17.53,14.51l-2.4,1.53q-4.47,2.83-9.19,5.24l-5.47,2.78-3.51,4.35H1111l5.21-.16a95.44,95.44,0,0,1,11,.27l3.83.31a46.76,46.76,0,0,1,14,3.34h0a102.81,102.81,0,0,1,18.91,10.17l2.39,1.62a9.43,9.43,0,0,1,1.33,1.11h0A105.48,105.48,0,0,1,1183,453l5.2,8.78-7.35-7.69-2.05-2.14a56.93,56.93,0,0,0-14.34-10.81l-3.33-1.76,1.09,1a70.45,70.45,0,0,1,6.42,6.51l2.16,2.5a36.82,36.82,0,0,1,5.54,8.56h0a84.35,84.35,0,0,1,4,10.32l3.85,12.26-3.66-6.6a101.36,101.36,0,0,0-6.68-10.47l-1.69-2.32-9.36-11.87,2.94,7.36a32.28,32.28,0,0,1,1.24,3.75h0a69.91,69.91,0,0,1,2.27,16.84v.06a77.9,77.9,0,0,1-.81,12.11l-.29,2,1,14.83a105.91,105.91,0,0,1,0,13.8l-1.07,17.16-.67-22.73-3.84,21.06-.1-3.9c0-1.75-.15-3.49-.3-5.23l-.77-9a21.55,21.55,0,0,0-2.07-7.58h0a45.52,45.52,0,0,0-6.54-10h0c-.84-1-1.7-1.91-2.59-2.82l-5.52-5.65,3,10.87c.6,2.22,1.1,4.47,1.5,6.73l1,5.86a54.67,54.67,0,0,1,.85,9.64v4a52.26,52.26,0,0,1-1.22,11.29l-1.45,6.62.17-5.68V532c0-1.81-.08-3.62-.24-5.42l-.21-2.48a65.25,65.25,0,0,0-2.32-12.47l-.37-1.3a46.05,46.05,0,0,0-3.74-9.15l-3-5.49h0a94.71,94.71,0,0,1-19.17-4.34h0l-5.88-2.25a102.38,102.38,0,0,1-10.69-4.81l-3.18-1.66a38.31,38.31,0,0,1-5.94-3.83h0a152.15,152.15,0,0,1-14.93-13.33l-1.66-1.7-8.36-9.19-13,.34-5.68-4.52-5.68-.5-8.36-.83-1.69-2.19a65,65,0,0,1-5.38-8.06l-4.62-8.14,1.51,4.59a107,107,0,0,0,10.2,22.08l.65,1.07,12.12,18.93a99.3,99.3,0,0,0,5.94,8.3l8.49,10.66a153.31,153.31,0,0,0,11.47,12.83l6,6q5.61,5.6,11.75,10.61l11.48,9.34c2.07,1.69,4.18,3.31,6.35,4.88l12.47,9a137.18,137.18,0,0,0,15,9.4l12.93,7,15.92,7.72q5.47,2.64,11.18,4.73l10.34,3.76,23.39-9.19,30.42-10.53,19.17-7.09q3.39-1.26,6.87-2.28l19.42-5.67,10-2.5,4.67,1.5-2.87,4q-1.3,1.83-2.76,3.54l-2.81,3.29a58.25,58.25,0,0,1-5.56,5.66l-3.21,2.84c-1.78,1.58-3.64,3.08-5.56,4.49l-7.14,5.24-5.34,3.87a22.94,22.94,0,0,1-7,3.43h0a32.38,32.38,0,0,1-7.3,1.27l-4.15.24a6.12,6.12,0,0,0-1.59.3l-7.08,2.25,11.94,6.92a86.28,86.28,0,0,1,7.61,5l9,6.58a87.8,87.8,0,0,1,12.87,11.49l9.18,10,8.18-21.06,8.86-25.9,8.11-26.93c.83-2.77,1.57-5.57,2.2-8.39l4.53-20.18q1.55-6.84,2.46-13.79l2.26-16.95,15.37,11.7,27.74,20.22,7.19-14,13.28,13.16q4.93,4.89,9.45,10.19l15.54,18.27,17.58,22.78q2.14,2.79,4.09,5.71l11.76,17.63-.75,1.06q-3.93,5.63-8.26,11l-13.56,16.73-17.27,20.56c-2,2.33-4,4.59-6.17,6.75L1384.94,674l8.91,6.2q3.12,2.16,6.11,4.5l4.59,3.6a155.65,155.65,0,0,1,21.62,20.63l2.89,3.35,6.41,7.45a102.61,102.61,0,0,1,12.11,17.43h0a131.65,131.65,0,0,1,9.27,20.89l3.63,10.55-5-11.37-.5-1a107,107,0,0,0-7.53-12.56l-2.33-3.34-1.82-2.57a78.66,78.66,0,0,0-8.58-10.17h0c-1-1-2-1.92-3-2.84l-6.22-5.57c-2.29-2.05-4.68-4-7.14-5.85l-9.5-7.09,5.34,10,2.91,5.28a124.1,124.1,0,0,1,6.41,13.55l.84,2.08a114.28,114.28,0,0,1,4.78,14.64h0a131.41,131.41,0,0,1,3.76,23.49l.23,3.49a165.14,165.14,0,0,1-.06,23.33l-.86,11.74q-.29,4-.92,8l-3,19.1-.8-4.13q-.7-3.55-1.09-7.17l-1.12-10.26-1.23,8.94q-.76,5.6-2,11.12l-2,9.19-.66-5.68-.77-6.82q-.4-3.54-1-7.07l-.21-1.23a153.18,153.18,0,0,0-4.22-18.31h0l-3.27-9.46q-1.58-4.58-3.45-9l-3.18-7.57q-1.12-2.67-2.46-5.25l-.91-1.77A140,140,0,0,0,1386,754.68l-.23-.29-8-10.8q-2.38-3.24-5-6.29l-4.52-5.27a111.81,111.81,0,0,0-8.6-8.95l-5.32-5-7.47,4a106.1,106.1,0,0,1-15,6.59l-7.47,2.63-8,2.67-8.36,5.85,7.15,8.09q4.21,4.78,8.08,9.84l3.23,4.23q2.6,3.4,5,7l5.84,8.77a93.17,93.17,0,0,1,6.75,11.92h0a114.42,114.42,0,0,1,8.84,26.79h0a136.39,136.39,0,0,1,2.4,19.75l.38,7.89a52.58,52.58,0,0,1-.09,6.4h0a123.14,123.14,0,0,1-5.71,29l-.07.21,2-10.74c.59-3.31,1-6.64,1.29-10h0c.29-3.66.44-7.34.44-11v-.27a94.69,94.69,0,0,0-.74-11.78h0a76,76,0,0,0-3.27-14.36h0l-1.39-4.48q-.78-2.54-1.71-5l-3-8.17c-.59-1.59-1.23-3.15-1.94-4.69l-1-2.28a73.73,73.73,0,0,0-8.38-14l-2.56-3.34-6-7.65q-2.24-2.88-4.65-5.61l-5.41-6.1c-1.69-1.91-3.45-3.77-5.27-5.56l-8-7.84-8,5.35-9.19,6.52-12.7,8.18,13,23.49q2.36,4.26,4.33,8.71l6.1,13.79a166.52,166.52,0,0,1,6.09,16l2.62,8.11a96.17,96.17,0,0,1,2.88,11.13h0a137.31,137.31,0,0,1,2.54,24.69l0,3.36a123.79,123.79,0,0,1-2.51,26.25h0a63.29,63.29,0,0,1-4.74,14.23h0a159.77,159.77,0,0,1-8.06,15l-5.43,8.94,1.55,3.32q2,4.2,3.56,8.54l2.41,6.52,10-1,4,4.51,8.52,9.19,1.4,1.52a86.64,86.64,0,0,1,14,20.37h0l5.65,13.16q2.54,5.89,4.5,12l3.3,10.23a146.41,146.41,0,0,1,4.25,16.38l1.85,9.23-6.18,1,1.27,14.23q.57,6.32.57,12.68V1101l9.19,1.51.35,3a71.49,71.49,0,0,1,.18,14.33h0c-.47,5.24-1.17,10.46-2.12,15.63l-3.49,19c-.63,3.4-1.36,6.79-2.2,10.14l-5.42,21.7,5,4.52h0a69.34,69.34,0,0,1-3.6,11.06l-2,4.78a96.88,96.88,0,0,1-6.83,13.24l-1.86,3c-1.38,2.22-2.84,4.4-4.37,6.52l-4.12,5.67c-.73,1-1.49,2-2.27,3l-13,16.1,4,4.84-2.34,4.52-5.74,10q-2.46,4.25-5.18,8.31l-2.6,3.88a105.41,105.41,0,0,1-6.89,9.13l-4,4.7q-3.19,3.8-6.7,7.3l-5.69,5.68-5,.17-2.69,4.49a192.74,192.74,0,0,1-10.82,16.21l-.29.38q-3.58,4.82-7.58,9.32l-2.26,2.54a108.41,108.41,0,0,1-12.9,12.27l-3.66,2.93a70,70,0,0,1-10.11,6.79l-2.5,1.39-4.18-1.67-19.51,11.47a130,130,0,0,1-16.73,8.28l-9.72,4-18.22,8.52,2.17,7.19h0a129.78,129.78,0,0,1-15,9l-1.22.63a135.91,135.91,0,0,1-17.61,7.53l-.92.32a116.21,116.21,0,0,1-22,5.3l-7.8,1.1-19,8.4q-5.56,2.46-11.33,4.38l-20.8,6.94-12.81,3.65a128,128,0,0,1-30.12,4.8l-14.57.57-18.71.34-2-4.68-13.7,1.17-17.72,1.5-27.91,27.24-14.23,13.71c-2.54,2.45-5.18,4.8-7.89,7.06l-24.5,20.35-36.77,29.08-43.12,33.25-1,2.13a99,99,0,0,1-17.87,25.95h0l-12,11.7-25.07,22.23-25.73,23.73-24.24,21.39-16.21,12.87-4.78,9.08c-1.27,2.41-2.64,4.77-4.12,7.06l-3,4.59a49.22,49.22,0,0,1-3.26,4.48l-7.94,9.72,1.5,1.84h0a13.44,13.44,0,0,1,.14,8.06l-.81,2.74a20.43,20.43,0,0,1-1.81,4.25l-2.3,4a32.93,32.93,0,0,1-6.89,8.47l-5.54,4.87-10.19,18-7.69,12.87v3.21a20.77,20.77,0,0,1-1.35,7.36h0a78.43,78.43,0,0,1-3.4,7.75l-5,9.83c-.76,1.51-1.58,3-2.44,4.44l-7.56,12.7-7.56,11.6a60.33,60.33,0,0,1-4.67,6.24l-.41.49a51,51,0,0,1-8.37,7.84l-.12.08a36,36,0,0,1-3.69,2.41l-3.48,2a8.71,8.71,0,0,1-2.36.92h0a26.42,26.42,0,0,1-10.29.38h0a31,31,0,0,1-8.38-7.21l-.51-.63a31.18,31.18,0,0,1-2.92-4.29h0a67.84,67.84,0,0,1-6.64-16.39l-.52-2q-.59-2.24-1-4.5l-.83-4.67a70,70,0,0,1-1-14.31l.28-9.17.88-12.39a75.74,75.74,0,0,1,1-8.24h0a71.94,71.94,0,0,1,3.76-13.19l1.67-4.28,8.85-20.39,6.93-16c.84-2,1.59-3.94,2.24-6l5.46-17c.39-1.23.74-2.46,1.07-3.7l.88-3.37a50.8,50.8,0,0,0,1.64-12.81v-.17l-.33-7.86v-4.86a62.76,62.76,0,0,1,.47-7.63l.26-2.09a19.84,19.84,0,0,1,1-4.16l2.79-7.83,2.18-6.2a37.47,37.47,0,0,1,2.42-5.46h0a57,57,0,0,1,6.46-9.45h0a79.34,79.34,0,0,1,7.48-7.75l.69-.62a69.22,69.22,0,0,1,8.88-6.84l8.15-5.3h0a30,30,0,0,1,15.39-2.52l.16,0,8.52,1,20.89-15.71,13.2-9.86,2.83-4.37a30.05,30.05,0,0,1,1.84-2.52h0a23,23,0,0,1,6.81-5.61h0q2.22-1.2,4.55-2.22l7.2-3.16,3-6.08q1.65-3.28,3.6-6.39l8.24-13.1,11-18.33c.69-1.15,1.42-2.27,2.2-3.37l2.9-4.08a43.76,43.76,0,0,1,6.77-7.49h0a15.4,15.4,0,0,1,7-3.5h0a49.4,49.4,0,0,1,14.3-.92h0a7.49,7.49,0,0,1,5.16,2.68l1.33,1.58,10.27-14.78a112.07,112.07,0,0,1,10.1-12.49l19.07-20.36,11.36-11-6-1-61.84,18-42,12.53-25.07,8.36h0a69.33,69.33,0,0,1-10.1,10.31l-1.3,1.07a24.36,24.36,0,0,1-6.16,3.73h0a39.72,39.72,0,0,1-7.9,2.38l-17,3.23-17.48,4.28a72,72,0,0,0-11.19,3.73l-3,1.28a51.66,51.66,0,0,0-5.67,2.83l-8.39,4.82c-1.49.85-2.94,1.75-4.37,2.7l-19.75,13.12-5.31,3.58a23.49,23.49,0,0,1-7.34,3.26h0a7.65,7.65,0,0,1-2.82.16l-4.92-.65-8.79,10.67q-1.41,1.69-2.71,3.48l-14.74,20.11.36,3.76a19.14,19.14,0,0,1-.49,6.44h0a24.49,24.49,0,0,1-3.45,7.74h0a59.91,59.91,0,0,1-4.58,6l-8.22,9.37-3.37,9.33q-1,2.7-2.16,5.32l-5.5,12.09-3.53,8a119.74,119.74,0,0,1-10.3,18.57L442.2,1695q-1.33,2-2.81,3.89l-4.38,5.65a25,25,0,0,1-9.59,7.55h0a17.78,17.78,0,0,1-7.57,1.53h0a18.4,18.4,0,0,1-8-2h0a27.36,27.36,0,0,1-4-2.49h0a50.5,50.5,0,0,1-8.9-8.63h0a51,51,0,0,1-5.14-7.8h0a51,51,0,0,1-3.31-7.71h0a62.83,62.83,0,0,1-2.75-12.35l-.14-1.25c-.19-1.64-.33-3.29-.43-4.93l-.32-5.61a62.28,62.28,0,0,1,0-7.23l.22-3.67a76,76,0,0,1,2-13.34l0-.12a80.19,80.19,0,0,1,4.82-14.22l1.66-3.71c1.07-2.41,2.27-4.76,3.57-7l9.07-16,8-15.39c1-2,2-4,2.8-6.12l7.94-19.77,2.76-7.93a70.67,70.67,0,0,0,2.31-8.35l2.28-11,2.51-12.36.92-3.66c.39-1.57.72-3.16,1-4.76l.87-5a14.56,14.56,0,0,1,1.45-4.3h0a62.5,62.5,0,0,1,6.07-9.42l1.49-1.92a24.93,24.93,0,0,1,4.78-4.68h0a73.51,73.51,0,0,1,12-7.19l.93-.45a54.36,54.36,0,0,1,7.39-2.88h0a25.7,25.7,0,0,1,9-1.07l1.63.09a41.82,41.82,0,0,1,10.39,2l1.37.45a62.91,62.91,0,0,0,13.16,2.77l1.46.15,3.71-1.78a69.56,69.56,0,0,1,9.57-3.75l9.14-2.82a69.27,69.27,0,0,0,7.48-2.78l6.51-2.87c1.57-.69,3.12-1.45,4.63-2.26l12.61-6.8,16.88-8.3c2.56-1.26,5.18-2.4,7.85-3.4l20.06-7.52,12.7-5.18L606.2,1421a144.68,144.68,0,0,1-19.65-10.87l-8.32-5.49-5.68,5.51-13.37-6.68-2.93-1.65a110.48,110.48,0,0,1-12.63-8.26l-5.94-4.48q-3.73-2.82-7.2-6l-6.58-6a118.37,118.37,0,0,1-11.77-12.35l-3.35-4.08a64.67,64.67,0,0,1-7.59-11.55h0l4.68-6.68-10.36-10h0a81.13,81.13,0,0,1-10.85-15.65l-1.19-2.23-2.39-4.73a98,98,0,0,1-6.47-16.19h0a22.91,22.91,0,0,0-5-8.83h0l6.36-6a12,12,0,0,0,3.46-6.11h0a6.51,6.51,0,0,0,.15-1.87l-.86-12.62q-.42-6.15-.31-12.33l.06-3.85,8.52-4.18,16.59-7.88q3.46-1.65,7.07-3l7.59-2.86a103.94,103.94,0,0,1,22.72-5.71l2-.27,8.19-9.36,6.18-7.86,7-3.17.4-4.54q.27-3.15.71-6.28l1.57-11.07-2.68-15.05L563,1150.18c-.42-3.26-.71-6.53-.85-9.81l-.95-21.15-.67-22.06v-13.61l-9.29-7.09a86.63,86.63,0,0,1-9.3-8.25l-1.76-1.82a94,94,0,0,1-10.35-12.67l-3.22-4.73-16.8,7.36-6,11.52a88.48,88.48,0,0,0-5.08,11.9l-2.38,7,15.52,10.56-13.28-6.4-5.76-2.72-19.05,9.6-17,9,17.92,7.52-6.37-1.39a60.2,60.2,0,0,1-14.43-5.17h0l-10.51,6.56-6.32,7a101.71,101.71,0,0,0-8,10l-6.08,8.63a125.34,125.34,0,0,0-7.1,11.35l-8.36,15.06a115.55,115.55,0,0,0-7.75,17.12l-7,19.65-16.4,10.86L347.41,1235c-1.56,1.13-3.1,2.32-4.59,3.55l-27.56,22.64L311,1290.08q-.88,6-1.24,12.12l-2.2,37.13-9.37,13.41-15.11,23.85q-2.57,4-4.87,8.24l-12.3,22.33a148.38,148.38,0,0,0-8.66,18.67l-4.62,12.08,6.6,18.74,6,20.19a162,162,0,0,0,8.91,23.23l.61,1.29,5.54,12.56-4.9,31.94-5,31.07c-.53,3.27-.94,6.56-1.25,9.86l-2.08,22.29a130.3,130.3,0,0,0-.53,14.11L267,1646a93.82,93.82,0,0,0,1.19,13.38l2,12.34a87,87,0,0,0,8.86,26.58h0l-2.94-2.19a121.34,121.34,0,0,1-10.26-8.55l-3.79-3.52q-3.66-3.42-7.08-7.08l-6-6.37a139.61,139.61,0,0,1-10.72-12.94l-1.85-2.53a119.21,119.21,0,0,1-6.71-10.23l-8.61-14.73-3.67-6.55a170.5,170.5,0,0,1-9.32-19.42h0l-.16-10.83q-.06-3.43.11-6.87l.15-3.16a131.87,131.87,0,0,1,1.32-13.15l2.16-14.27a136.08,136.08,0,0,1,3-14.42l3.23-12.25,7.24-26.4,5.27-22.14-5.68-18.28q-1.35-4.37-2.46-8.81l-1.5-6a159.63,159.63,0,0,1-4.37-27.39l-.83-11.62-1.56-24.73,6-8.85,11.8-19.12q3.3-5.36,7.11-10.34l24.82-32.49,21.87-27.59,1.83-7.17a91.19,91.19,0,0,1,3.15-10l8-21.14,8.06-19.88a121.11,121.11,0,0,1,7.3-14.92h0a115.93,115.93,0,0,1,9.95-14.5h0a71.05,71.05,0,0,1,6.62-7.15l9.59-9c2.86-2.68,5.84-5.24,8.93-7.65l26.34-20.59,41.64-32-30.45,15.62L359,1150.81c-2.94,1.46-5.82,3.06-8.61,4.79l-17.67,10.94-13.87,18.28a119.75,119.75,0,0,0-7.54,11.24l-7.45,12.61a90.71,90.71,0,0,0-4.75,9.19l-9.08,20.26-37.95,23.45c-1.94,1.19-3.84,2.47-5.68,3.82l-19.59,14.33a91.42,91.42,0,0,0-10.79,9.25l-4.6,4.59-2.24,6.44a77.44,77.44,0,0,0-2.69,9.67l-.64,3.1c-.62,3-1.12,6-1.5,9l-6.46,52-12.23,15.35L165.61,1414q-2.84,3.51-5.44,7.17l-18.73,26.27-.35,9.3q-.18,4.5,0,9l1,26.45c.09,2.46.28,4.9.57,7.34l4.31,36.65a132.51,132.51,0,0,0,3,16.54l2.12,8.48-5.28,18.25q-1,3.36-1.76,6.76l-4.49,19.34a115.66,115.66,0,0,0-2.24,13l-2.77,24.08c-.43,3.71-.67,7.43-.74,11.15l-.68,38.92,5.2,22.38-9.89-10.41-11.62-12q-3-3.06-5.65-6.35l-7.12-8.66a140.7,140.7,0,0,1-10.63-14.81l-7.33-11.78Q84.7,1647,82.55,1643l-7-13.17c-1.37-2.57-2.65-5.2-3.84-7.87l-4.47-10,.18-.94a117.8,117.8,0,0,1,5.5-19.51l8.38-22.24,18-42.16,8.07-17.7-2.94-8.92A145.36,145.36,0,0,1,98.51,1475l-.8-5.79-3.2-21.4q-1-6.45-1.34-13L92,1414.51c-.19-3.24-.24-6.49-.15-9.73l.39-15.18,23.81-30.71c1.48-1.91,3-3.74,4.69-5.5L149.25,1323l21.6-21.6,2.36-10.28a105.86,105.86,0,0,1,3.16-11l8.27-24,9.17-23.27,14.2-9.62,13.1-8.8q2.94-2,6-3.75l19.45-11.29q3.15-1.83,6.43-3.4l22.95-11q2.42-1.15,4.73-2.47l11-6.25,3.66-8.33a120.21,120.21,0,0,1,6.78-13.16l.38-.64q1.56-2.61,3.31-5.09l3.79-5.35c1.5-2.12,3.07-4.17,4.72-6.17l7.71-9.37q2.65-3.21,5.55-6.2l1.94-2a51,51,0,0,1,5.83-5.16l2-1.51a53.72,53.72,0,0,1,7.09-4.55l1.72-.93q3.5-1.89,7.16-3.43l20.17-8.54,28.87-11,22-8.7-6.06-7.24a42.17,42.17,0,0,1-3.93-5.55h0a113.71,113.71,0,0,1-7.35-14.84h0a106,106,0,0,1-4-11.89l-1.57-5.7a81.91,81.91,0,0,1-1.8-8.19l-.92-5.48-20.85,18.1-18.61,16.79c-1.65,1.48-3.35,2.9-5.12,4.25L342,1065.57a86.48,86.48,0,0,1-9.95,6.58l-10.15,5.76,8.71-13.52,6.85-9.59c1.54-2.16,3.19-4.24,4.93-6.24l4.65-5.31c1.57-1.79,3.21-3.53,4.9-5.2l10.69-10.55q3.72-3.66,7.78-7l8-6.54a90.73,90.73,0,0,0,7.54-6.86l8.34-8.5.23-11.69.31-4.86a105,105,0,0,1,1.41-11.74l1.3-7.4a99.75,99.75,0,0,1,3-12.3l1.14-3.67c.88-2.84,1.87-5.64,2.95-8.41L409,927.43q1.81-4.65,4.05-9.12l.28-.55a117.85,117.85,0,0,1,14.45-22.25h0l-25-9.4-9.17-3.21q-3.89-1.36-7.88-2.43l-7.24-1.92-2.05,1.8A128.32,128.32,0,0,0,366,890.64l-16.54,18.27q-2.6,2.87-5,5.89l-8.88,11.1a122.58,122.58,0,0,0-7.95,11.15l-6,9.49A107.83,107.83,0,0,0,314.4,960l-8,17.75a110,110,0,0,0-5.5,15.08L298,1003.24a111.21,111.21,0,0,0-4.13,25.63l-.36,8.25-1.4-12.35a75.28,75.28,0,0,1-.43-11.53l.46-11.41,1.42-16.17a80.77,80.77,0,0,1,1.37-9.28L296,971a85.56,85.56,0,0,1,3.68-12.65l2.1-5.57c1.47-3.93,3.12-7.79,4.91-11.58l3.63-7.66q1.92-4.07,4.19-8l6.67-11.46L310.9,926,299.25,940.6q-1.87,2.34-3.57,4.81l-14.05,20.37c-1.72,2.49-3.32,5.07-4.8,7.71l-11.52,20.63a146.53,146.53,0,0,0-6.67,13.47L254,1018.36a75,75,0,0,0-3.33,9.33l-1.78,6.22a78.12,78.12,0,0,0-2.87,16.82l-.51,8.41a65.07,65.07,0,0,0,.37,11.84h0A81.17,81.17,0,0,0,250,1088.5l1.05,2.93-1.24-1.89a43.14,43.14,0,0,1-5.38-11.7h0v0a38,38,0,0,1-1.41-8.21l-.53-8.68a90,90,0,0,1,0-11.84l.55-7.82c.12-1.69.31-3.37.56-5l2.49-16.42a74.43,74.43,0,0,1,1.51-7.42l3.64-14.2,5.23-18.76q1.41-5.07,3.29-10L265.69,954a108.82,108.82,0,0,1,4.86-10.93l9.26-18.06q2.22-4.34,4.82-8.46l10.2-16.17c1.4-2.2,2.87-4.35,4.43-6.44l4.84-6.48a117,117,0,0,1,12.45-14.14l6.72-6.49L283,865c-2.49-.12-5-.12-7.49,0l-23.29,1-12.38,8.48-13.06,9.39-16.51,11.33c-2.13,1.46-4.2,3-6.21,4.63L191.52,910c-1.68,1.36-3.32,2.79-4.89,4.28l-18.95,17.93L130.1,967.92l-29.33,26.35-43.31,36.65c-.92.77-1.85,1.52-2.8,2.25L33.17,1049.5l-.52,2.08a32.29,32.29,0,0,1-4.25,9.78h0a35.65,35.65,0,0,1-6,7.09l-.54.49a19.65,19.65,0,0,1-6.44,3.85h0a3.42,3.42,0,0,1-3.66-.91l-.13-.15a3.73,3.73,0,0,1-.86-1.6l-.46-1.84-2.33.13a14.18,14.18,0,0,1-3.56-.26h0a4.23,4.23,0,0,1-2.64-1.73l-.3-.43a6.47,6.47,0,0,1-1-2.53h0a26.9,26.9,0,0,1-.19-7.81h0A108.64,108.64,0,0,1,3,1041.23H3c.59-2.28,1.26-4.54,2-6.78l4.18-12.91,4.11-11.87q2.31-6.69,5.18-13.16l7-15.76L33,965.49A129.54,129.54,0,0,1,40,953.31L45.32,945a126.78,126.78,0,0,1,7.91-11l6.49-8a155.34,155.34,0,0,1,11.81-13.05l8.51-8.4c1.9-1.88,3.86-3.71,5.88-5.47l15.77-13.85,17.62-14.13c2.91-2.35,5.94-4.55,9.06-6.61l14.79-9.74,13.15-8.34a151.75,151.75,0,0,1,16.92-9.28l9.65-4.53q3.59-1.68,7.28-3.17l21.3-8.58c2.28-.93,4.6-1.77,6.94-2.54l13.79-4.49c2.52-.82,5.07-1.53,7.65-2.11l36.46-8.29,25.25-6.11a100.21,100.21,0,0,0,18.95-6.63l11-5.13,5.27-12.15,3.51-8.93q1.53-3.9,3.32-7.69l2.71-5.77a166.79,166.79,0,0,1,10.6-19.14l4.85-7.55c1.06-1.65,2.18-3.27,3.34-4.85l11.09-15,4.44-6a98.71,98.71,0,0,1,9.85-11.46l.7-.7q3.35-3.35,6.9-6.44l8.81-7.67,18.52-14.89q3.7-3,7.61-5.73l26.35-18.56,15.52-11.14a123.56,123.56,0,0,1,15-9.21l13.72-7.15,7.22-4.14a47.59,47.59,0,0,1,10.89-4.57h0l-.79-5.36a18,18,0,0,1-.06-4.87h0a49.17,49.17,0,0,1,3.61-13.4h0c.45-1.05.93-2.09,1.43-3.12l5-10.07c1.23-2.49,2.53-5,3.91-7.36l6.51-11.38c1-1.76,2-3.55,2.86-5.37l7.58-15.38,2.7-5.61a136,136,0,0,1,6.7-12.26h5.5a82.15,82.15,0,0,1,9.64-10.61l.67-.62.65.11a80.8,80.8,0,0,1,14.82,4l4.94,1.83c2.58,1,5.12,2.05,7.6,3.26l13.7,6.66L625,493.22c1.08-2.36,2.1-4.74,3-7.15l2.25-5.78-14.89-2.52-16.73-3.43-15.58-3.9-.46-5.5-.12,0a153.42,153.42,0,0,1-23.3-9.18l-3.16-1.56L544.63,448l3.44-8.93,1-3A108.7,108.7,0,0,1,555,421.84h0a159.93,159.93,0,0,1,8.59-15.07l4-6.22.75-3.53a136.23,136.23,0,0,1,6.8-22.15l2.76-6.86,5.8-13.14q3.83-8.62,8.45-16.85l6.6-11.71,7.63-14c1.18-2.15,2.41-4.27,3.71-6.35l4.62-7.44a147.52,147.52,0,0,1,11.27-15.72l.52-.64Q632.39,275,639,268.36l3.47-3.47-8.25-11-3.61-5.36a101.74,101.74,0,0,1-6.33-10.76l-1-1.95a60.65,60.65,0,0,1-5.36-15.47h0a38.54,38.54,0,0,1-.74-6.78l-.16-8.26.23-12.38-2.74-9.06q-.93-3.07-2-6.11l-.79-2.21a99.39,99.39,0,0,1-3.64-12.69l-.18-.85a118.32,118.32,0,0,1-2.55-19.49h0v-9.85l3.21-3.44V119.16l.69-20.4-2.75-1.37V88.68l.12-3a153.3,153.3,0,0,1,1.66-17.24l1.43-9.3,3-15.81,4.81-5.73.19-1.23a115.94,115.94,0,0,1,3.39-15.18h0q.78-2.61,1.71-5.16l1.59-4.31a56.27,56.27,0,0,1,6-11.7h0l7.79,3.9,9.08,4.84a105.27,105.27,0,0,1,14.53,9.38l8,6.17h0A84.56,84.56,0,0,1,694,30.68l1.65.71,19.48,8.48,18.21,7.29q4.7,1.88,9.28,4.06l3.6,1.71a83,83,0,0,1,11.92,7h0a94.55,94.55,0,0,1,12.51,10.52h0a148.74,148.74,0,0,1,12.28,13.91l5.52,7.1,4.76,6.44a155.09,155.09,0,0,1,10.16,15.69l0,.07q3.38,6,6.2,12.25l2.45,5.42,9.49-.46a116.41,116.41,0,0,1,12.25,0l11.88.66ZM429.18,974.38l14.93-11.64h0a177,177,0,0,1,2.1-17.8l.88-5.19,3-17-6.44,11.59q-2.52,4.53-4.66,9.24l-1.28,2.82a121.46,121.46,0,0,0-6.61,18.3l-1.91,7Zm-6.56,23.28a157.4,157.4,0,0,0-4.18,23.6h0a32.73,32.73,0,0,0-.06,5.94l.65,7.9a117.77,117.77,0,0,0,3.8,21.48h0a77.24,77.24,0,0,0,3.13,9.12l3.22,7.78,8.66-2.39,1.81-2q3.41-3.7,7.18-7.07l3.25-2.91,4.36-4.19q3.1-3,6-6.15l3.08-3.39-7.76-12.84-1.35-2.48a92.31,92.31,0,0,1-7-16.62h0l-.79-4.76a117.35,117.35,0,0,1-1.6-19.27h0v-8.21l-22.38,16.42Zm65.37-68,.59-9.56h-6L474,918.86,464.7,946Zm-29.55,42.08a144.35,144.35,0,0,0-1.2,18.59v.16q0,3.34.18,6.67l.55,10.53q.16,3.15.54,6.29l.36,3a73,73,0,0,0,2.64,12.57h0a40.21,40.21,0,0,0,3.84,8.7l2.34,3.94,9.8-9.05c1.23-1.13,2.48-2.23,3.77-3.29l10-8.26,15.22-11.64-7.76-11h0a88.75,88.75,0,0,1-8.08-15.11h0a39.83,39.83,0,0,1-1.91-5.74l-.05-.19A111.13,111.13,0,0,1,485.76,960h0c-.11-1.33-.16-2.67-.16-4V951.1l-27.16,20.59Zm93.74,6.75-2.1-5a102.55,102.55,0,0,1-4.7-13.88h0a91.93,91.93,0,0,1-2.24-16.27l-.23-5-.62-13.6-3.09,24.41-1.39,12.49q-.46,4.2-.59,8.43l-.49,16.17Zm-11.75,28.74a66.39,66.39,0,0,0,.71,16l.53,3.17,11.46-3q2.76-.72,5.55-1.29l12.35-2.52.93-7.11-4.64-6.49-2.1-3.16q-1.61-2.4-3.08-4.89h0a70.88,70.88,0,0,1-4.45-8.94l-.26-.62-17,18.85Zm8.66,38.94A64.43,64.43,0,0,0,554,1061h0a61,61,0,0,0,3.58,6.54l4.81,7.66v-8.13q0-3.32.26-6.61h0a57.56,57.56,0,0,1,1.4-8.75l1.43-5.88-16.38.31Zm635.16-119.56c.94.54,1.85,1.11,2.76,1.7l11.51,7.6,1.45-.65c2.51-1.12,5-2.36,7.36-3.71h0a17.58,17.58,0,0,1,2.25-1l2.77-1a13.57,13.57,0,0,1,1.53-.48l8.29-2.14,14.57-3.18c1-.22,2-.41,3.07-.57l15.43-2.4,12.28-1.75,2.23-10.29a5,5,0,0,0,.12-1.09h0a73.18,73.18,0,0,0-1.59-15.12l-.46-2.18-2.64-10.82-1.91-8.16a80.08,80.08,0,0,0-3.4-10.94l-1.23-3.13a128.46,128.46,0,0,0-5.72-12.59l-4.71-9.07-7.9-15.8-6.69-12.58a105.25,105.25,0,0,0-6.57-10.74l-3.12-4.48-3.84,9.7q-1.14,2.88-2.49,5.67l-1.27,2.61a56.45,56.45,0,0,1-4.79,8.11l-9.27,13.12L1192,845.75l-.21,11.09q-.08,4.41-.45,8.81l-1.09,12.87-2,15.8-1,7.15a29.68,29.68,0,0,1-1.52,6h0a46.6,46.6,0,0,1-5.75,10.93l-2.83,4Zm90.54-1.6a20.17,20.17,0,0,1,7.11,7.94l3.25,6.51,2.2-3.72a41.7,41.7,0,0,0,2.4-4.71h0a56.24,56.24,0,0,0,2.75-7.89h0a77.75,77.75,0,0,0,2-10.58l.25-2.08a69.82,69.82,0,0,0,.52-7.51l.21-13.68v-6.18a61.76,61.76,0,0,0-2.32-16.77h0a69,69,0,0,0-3-8.45l-4.78-11.14,1.94,11.6a78.36,78.36,0,0,1,1.06,12.88v1.94c0,1.84-.05,3.68-.16,5.52l-.17,2.8a75.55,75.55,0,0,1-2.66,15.86l-1.41,5a77.36,77.36,0,0,1-4,11.12l-5.19,11.5ZM1341,708.55l-10.54-7.09-6.3-4q-3.51-2.22-6.87-4.66l-3.36-2.46-2.18,3.45.65.48a10.75,10.75,0,0,1,3.86,5.37l.57,1.78,1.55,4.43c.79,2.26,1.66,4.47,2.63,6.65h0Zm-60.68-34.34-15.08-6.9-4.72,5.63-3.82,6.18,6.18,3.27ZM1137.67,492.93l-3-3.9a39.56,39.56,0,0,0-7.15-7.13l-.7-.54a31.46,31.46,0,0,0-6.57-3.88l-5-2.2-10.56-4.2q-1.11-.43-2.25-.81l-12.18-4,7.83,7.49A54.82,54.82,0,0,0,1103,478l3.94,2.94a60.94,60.94,0,0,0,6,3.93l2.92,1.66a40.62,40.62,0,0,0,5.45,2.6l2.63,1c1,.37,1.92.71,2.9,1l.26.08a39.63,39.63,0,0,0,10.54,1.71Z"/></g></g></svg>