<svg xmlns="http://www.w3.org/2000/svg" viewBox="0 0 1124.58 108.44"><title>アセット 2</title><g id="レイヤー_2" data-name="レイヤー 2"><g id="レイヤー_2-2" data-name="レイヤー 2"><path d="M2.15,6c0,1.8-.1,3.9-.1,6.2,0,2.85.05,5.9.1,9.1a1.08,1.08,0,0,1-1.1,1.1,1,1,0,0,1-1-1.05c0-2.8,0-5.55,0-8.2S.05,8,.05,5.7C.1,2.4,1.85.15,5.4.05c.85,0,1.65,0,2.45,0,5.65,0,6.2.05,6.2,1.15A1,1,0,0,1,13,2.2H12.8c-1.65-.15-2.7-.15-6.9-.15C3.8,2.1,2.25,3.3,2.15,6Z"/><path d="M36.2,12.85a18,18,0,0,1-4.75.85c-1.85,0-3.8-.4-3.8-1.8a1.26,1.26,0,0,1,1.25-1.35,1.73,1.73,0,0,1,.65.15,7.28,7.28,0,0,0,2.45.45c1.35,0,2-.15,5-1.05C38.9,3,39.35,3,40.25,3a1.27,1.27,0,0,1,1.3,1.2,1.78,1.78,0,0,1-.1.5c-.6,1.55-1.25,3-1.75,4.4a70.2,70.2,0,0,0,6.5-2.9A1.71,1.71,0,0,1,47,6a1.2,1.2,0,0,1,1.25,1.2,1.63,1.63,0,0,1-1.1,1.5,84.67,84.67,0,0,1-8,3.25,48.76,48.76,0,0,0-1,6.75A27.87,27.87,0,0,1,42.5,17a1.22,1.22,0,0,1,1.3-.9,1.49,1.49,0,0,1,1,.4,14.61,14.61,0,0,1,2.55-.2c6.25,0,12.8,3.8,12.8,10.8,0,10.7-14.25,16-15.4,16a1.46,1.46,0,0,1-1.55-1.35c0-.5.35-1,1.2-1.3,7.8-2.5,13-8.3,13-13.55,0-4.45-4.2-8.5-10.15-8.5-.55,0-1.1.05-1.7.1a7.38,7.38,0,0,1,0,1.05c0,4.65-3.25,9-5.45,11.15a10.14,10.14,0,0,0,.65.9,2.14,2.14,0,0,1,.5,1.3A1.46,1.46,0,0,1,40,34.45c-.6,0-1.1-.4-1.9-1.8-6,5.55-7.3,6-8.75,6-2.3,0-4.1-2.1-4.1-5.1,0-2.65,2.55-8.75,10.55-13.55a44.69,44.69,0,0,1,.8-7.2Zm-.45,9.65C33.25,24,27.9,29.15,27.9,33.1c0,1.95.8,2.5,1.7,2.5,1.4,0,3.5-1.25,7.5-5.15A27.22,27.22,0,0,1,35.75,22.5Zm2.3-1.4a23.65,23.65,0,0,0,1,7.3c1.4-1.55,3.85-4.25,3.85-8.35a6.7,6.7,0,0,0,0-1A22,22,0,0,0,38.05,21.1Z"/><path d="M82.45,27.35s.15-.05.3-.2A9.45,9.45,0,0,1,88.5,24.9c2.1,0,3.85,1.1,3.85,4.45,0,.8,0,1.4-.95,4.7a4.65,4.65,0,0,0-.2,1.35c0,1.75,1.3,2.6,3.45,2.6,7.75,0,13.1-8.4,14.2-13.15a1.58,1.58,0,0,1,3.15.2c0,1.8-5.65,15.7-17.5,15.7-5.9,0-6.15-3.5-6.15-4.5A8,8,0,0,1,88.7,34a18,18,0,0,0,1-4.6c0-1.55-.7-2.3-1.85-2.3-2,0-7.75,2.7-10.25,10.2-1,3-1.9,3.55-2.7,3.55a1.36,1.36,0,0,1-1.55-1.4c0-.9,1.8-4.7,8.65-16,2.7-4.5,5.15-8.75,7.45-12.7.8-1.4,2.15-3.35,2.65-4.35a1.46,1.46,0,0,1,1.3-.8,1.64,1.64,0,0,1,1.65,1.55c0,.55-.2,1-2.55,4.25s-9.5,15-10,15.7a.55.55,0,0,0-.15.3Z"/><path d="M139,13.85c-4.65,13-8.4,19.6-11.7,26.6a1.65,1.65,0,0,1-1.5.9,1.38,1.38,0,0,1-1.55-1.25,2,2,0,0,1,.25-.85,166,166,0,0,0,11.6-24.8l.05-.2a27.17,27.17,0,0,1-6.35,1.25c-.7,0-3.55-.05-3.55-1.65a1.4,1.4,0,0,1,1.35-1.45,2.46,2.46,0,0,1,.9.25,3.62,3.62,0,0,0,1.65.35,20.67,20.67,0,0,0,6.95-1.65,17.14,17.14,0,0,0,.6-5A1.38,1.38,0,0,1,139.2,5c1.35,0,1.45,1.1,1.45,1.8A12.27,12.27,0,0,1,140.2,10,13.07,13.07,0,0,0,141.7,9a1.49,1.49,0,0,1,1-.35A1.29,1.29,0,0,1,144,9.9c0,.5-.3,1.5-4.75,3.3Zm18.8,26.4c0,1.45-1.6,1.45-2.35,1.45-8.6,0-12.9-4.7-12.9-6.25A1.49,1.49,0,0,1,144,34a1.37,1.37,0,0,1,1.2.8c2.15,3.7,6.8,3.9,11,4A1.49,1.49,0,0,1,157.8,40.25Zm1.65-17.4a1.27,1.27,0,0,1-.6-.1c-2.5-.95-6.35-2.35-9.45-2.35a8,8,0,0,0-2,.25.63.63,0,0,1-.3.05,1.12,1.12,0,0,1-1.05-1.2c0-.7.5-1.6,3.45-1.6a30.26,30.26,0,0,1,10.35,2.3,1.38,1.38,0,0,1,1,1.25A1.41,1.41,0,0,1,159.45,22.85Z"/><path d="M177.05,40.35a34.72,34.72,0,0,1-1.5-10.65,56.88,56.88,0,0,1,.4-6.55c.6-5.65,1.8-10.9,2.15-14a1.38,1.38,0,0,1,1.35-1.4,1.41,1.41,0,0,1,1.45,1.4v.25c-.35,2.15-1.35,6.6-2,10.3a65.76,65.76,0,0,0-.9,9.5c0,2.55.35,4.65.6,4.65.1,0,.25-.2.45-.7.65-1.5,2.3-4.8,3.1-6.2a1.19,1.19,0,0,1,1-.7,1.25,1.25,0,0,1,1.05,1.85c-1.3,2.2-4.4,7.6-4.4,10.7v.4a7.58,7.58,0,0,1,.1,1.15,1.37,1.37,0,0,1-1.4,1.5C178,41.8,177.4,41.4,177.05,40.35ZM203.8,36.5A10.61,10.61,0,0,1,195,41.75c-3.95,0-6.65-2.8-6.65-5.25,0-3.55,4.45-4.55,7.85-4.55a21.14,21.14,0,0,1,6,.95,14.08,14.08,0,0,0,.1-2c0-1.15-.1-2.35-.2-3.7-.25-2.35-.5-6.7-.6-11-6,1.2-9.1,2.7-10.8,4.2a1.45,1.45,0,0,1-.9.4,1.42,1.42,0,0,1-1.35-1.4c0-2.85,11.25-5.3,13-5.7,0-7.1,0-7.75,1.5-7.75.7,0,1.45.4,1.45,1.15v.1C204.15,9,204,11,204,13.1c1.4-.25,4.4-.75,4.8-.75a1.27,1.27,0,0,1,1.35,1.3A1.43,1.43,0,0,1,208.65,15c-1.7.2-3.3.45-4.7.7.05,4.1.35,8.2.6,11.1.15,1.8.3,3.55.3,5.4v.65a6.16,6.16,0,0,1-.1,1c.2.1.4.15.6.25,2.7,1.25,6.2,3.45,6.2,4.9a1.53,1.53,0,0,1-1.4,1.55,1.47,1.47,0,0,1-1.05-.5,18.38,18.38,0,0,0-5.15-3.8Zm-7.9-2.3c-4.9,0-5.1,1.9-5.1,2.35,0,1.1,1.4,2.8,4,2.8a8,8,0,0,0,6.65-4.1A16.16,16.16,0,0,0,195.9,34.2Z"/><path d="M229.5,44.4a1.4,1.4,0,0,1-1.15-.65c-1.45-2.2-4.8-4.7-7.25-6a1.27,1.27,0,0,1-.75-1.1,1.25,1.25,0,0,1,1.3-1.25c1.65,0,9.3,5.25,9.3,7.55A1.41,1.41,0,0,1,229.5,44.4Z"/><path d="M286.85,37.05A8.14,8.14,0,0,1,282,35.1c-4.55-3.5-6.25-10.7-7.05-14.65-.1-.6-1-4.9-1-5.3a1.41,1.41,0,0,1,1.45-1.4,1.48,1.48,0,0,1,1.45,1.35c.3,1.6.5,3.6.8,5.25,2.2,12.3,7.8,13.4,8.6,13.4s1.35-.5,1.75-1.45c.65-1.6,1-3.55,1.55-5.35a1.28,1.28,0,0,1,1.2-1,1.49,1.49,0,0,1,1.5,1.4c0,.1-.05.15-.05.25-.4,2.2-1.15,4.45-1.55,6.6A3.54,3.54,0,0,1,286.85,37.05ZM308,27c-.5-3.95-3.75-8-7.3-10.85a1.12,1.12,0,0,1-.45-.85A1.29,1.29,0,0,1,301.55,14a2.12,2.12,0,0,1,1.25.5c3,2.5,8.2,7.5,8.2,12a1.73,1.73,0,0,1-1.65,1.9A1.45,1.45,0,0,1,308,27Z"/><path d="M337.9,41.25a1.42,1.42,0,0,1-1.5-1.4c0-.6.4-1.15,1.3-1.3,6.35-.9,15.3-4.5,15.3-9.95,0-2.4-2.15-4.9-5.75-4.9-3.15,0-6.5,1.55-10.4,3.45-2.05,1-4.1,2.1-6,3a2,2,0,0,1-.9.2,1.4,1.4,0,0,1-.4-2.75c1.95-.75,4.1-1.8,6.35-2.8,7.2-3.35,10.05-3.4,11.35-3.4,5.85,0,8.5,4.3,8.5,7.45C355.75,37.6,339.75,41.25,337.9,41.25Z"/><path d="M386.2,40a1.65,1.65,0,0,1-1.75-1.6c0-.65.45-1.3,1.5-1.45,10.3-1.5,21.85-6.95,21.85-14.3,0-3.75-3.35-7.4-8.6-7.4A19.42,19.42,0,0,0,393,16.4c-5.3,1.85-11.6,5.4-16.9,7.85a2.28,2.28,0,0,1-1.05.25A1.58,1.58,0,0,1,373.35,23a1.69,1.69,0,0,1,1.2-1.55c5.2-2,11.75-5.55,17.65-7.45a23.72,23.72,0,0,1,7.3-1.3c7.35,0,11.45,5.25,11.45,10,0,3.2-1.75,6.65-6.2,10.1C399,37.35,387.5,40,386.2,40Z"/><path d="M440.7,33.4c0,4.25,2.05,6.8,5.05,6.8,1.8,0,6.65-1.5,6.65-6.1,0-3.05-2.15-7-7.3-11.1a1.56,1.56,0,0,1-.75-1.25,1.3,1.3,0,0,1,1.4-1.15,1.89,1.89,0,0,1,1.2.45c6,4.95,8.3,9.55,8.3,13.2,0,5.75-5.65,8.65-9.6,8.65s-7.45-3-7.45-9.3v-.1c0-1.55,0-3.2.05-4.75-1.05-.35-2.1-.65-3.3-1-2.65-.8-3.85-2.3-3.85-3.95,0-1.45.55-2.35,2.45-4.4a2.57,2.57,0,0,0,.95-1.8c0-1.8-4.55-4.2-6.4-4.85a1.28,1.28,0,0,1-1-1.2,1.32,1.32,0,0,1,1.45-1.2c1.25,0,9.15,4.1,9.15,7.65a2,2,0,0,1-1.1,1.8c-1,.55-3,2.65-3,3.75,0,.85.75,1.45,2.1,1.8.85.2,1.7.4,2.6.65.2-4.8.5-9.35.6-13.4.05-.8.05-1.5.05-2.1,0-1.9-.1-3.25-.1-5a1.34,1.34,0,0,1,1.4-1.4c1.5,0,1.6,1.2,1.6,2.8s-.2,3.35-.3,5.6c-.25,4.85-.55,9.6-.75,14.3,3,1.1,4.25,1.85,4.25,2.95a1.45,1.45,0,0,1-1.4,1.5,1.35,1.35,0,0,1-.8-.25,19.71,19.71,0,0,0-2.15-1.25C440.7,31,440.7,32.2,440.7,33.4Z"/><path d="M485.55,22.45c-5.45,8.25-13.6,15-15.15,15a1.44,1.44,0,0,1-1.45-1.4,1.27,1.27,0,0,1,.7-1.1,50.45,50.45,0,0,0,14.5-14.1h-13a1.18,1.18,0,1,1,0-2.35h4.25c0-3.1,0-7,0-9.6.05-2.15,1.25-4.15,4.75-4.2,1.75,0,4.45,0,7.1,0,1.9,0,3.8,0,5.25,0a1.11,1.11,0,0,1,1.15,1.2,1,1,0,0,1-1.1,1.1h-.05c-1.1,0-2.75,0-4.55,0V18.5h5.35a1.13,1.13,0,0,1,1.15,1.15,1.14,1.14,0,0,1-1.15,1.2H488V33.1l.15,5.25v.2c0,2.35-.75,5.35-6.1,5.35-4.7,0-4.85-1-4.85-1.75a1.25,1.25,0,0,1,1.2-1.35h.25a23.17,23.17,0,0,0,3.65.45c2.05,0,3.1-.8,3.15-3.4ZM485.4,7c-1.9,0-3.65,0-4.75,0-2,0-2.7,1.05-2.75,2.4,0,1.15-.1,3-.1,5,0,1.4.05,2.8.05,4.1h7.55Zm14.2,10.2c0,6.45,0,13.7,0,20.75v5.35a1.22,1.22,0,0,1-1.35,1.2,1.25,1.25,0,0,1-1.35-1.2c0-26.55,0-28.25.1-34.55.05-4.2,2.65-4.5,7.2-4.5,1.3,0,2.75,0,4.15,0,2.65.1,4.2,1.5,4.2,3.55,0,1.1-.45,2.6-3.25,7.45a6.74,6.74,0,0,0-1.2,3c0,.95.6,1.75,1.7,3.2,1.8,2.35,3.25,4.55,3.25,8,0,5.75-3.7,7.45-7.05,7.45-1.5,0-3.3-.15-3.3-1.65a1.25,1.25,0,0,1,1.15-1.35h.25A11.9,11.9,0,0,0,506,34c1.35,0,4.45-.3,4.45-4.85,0-2.8-1.8-5.45-3.5-7.5a5.1,5.1,0,0,1-1.3-3.2,7.87,7.87,0,0,1,1.1-3.5c2.25-4.35,2.95-5.8,2.95-6.85,0-1.55-1.4-1.6-4.8-1.6-4.45,0-5.2.15-5.2,2.65S499.6,14.3,499.6,17.15Z"/><path d="M541.15,2.3a1.43,1.43,0,0,1,2.85,0l0,3c6.1,0,12.55,0,16.85,0a1.08,1.08,0,1,1,0,2.15c-4.55,0-12,0-18.7,0-4.85,0-9.2,0-11.55,0s-3.45,1.15-3.45,3.15c0,2.15.1,4.7.1,7.4,0,8.1-.55,17.8-4.4,23.9a1.54,1.54,0,0,1-1.35.8,1.3,1.3,0,0,1-1.4-1.2,1,1,0,0,1,.2-.6c3.7-5.6,4.45-13.75,4.45-21.15,0-3.4-.15-6.7-.25-9.45v-.2c0-2.95,2.15-4.8,5.7-4.8,2.65,0,6.65,0,11.05,0ZM539,35.75a1,1,0,0,1,.9-.5,1.18,1.18,0,0,1,1.25,1.1,1.21,1.21,0,0,1-.2.65c-3.4,5.8-12.2,7.1-13.25,7.1a1.15,1.15,0,0,1-1.2-1.2,1,1,0,0,1,.95-1C531,41.65,536.4,40.1,539,35.75Zm-3.2-20c-2.55,3-5.7,5.55-6.45,5.55a1.13,1.13,0,0,1-1.1-1,.9.9,0,0,1,.5-.75,27.9,27.9,0,0,0,6.5-5.7l-5.05,0a.92.92,0,0,1-1-.9A1,1,0,0,1,530.2,12l5.5.1-.05-2.35V9.7c0-.55.55-.85,1.1-.85s1.15.3,1.15.9l0,2.3L542.6,12a.93.93,0,1,1,0,1.85l-4.8,0v.4l.1,7.6a1,1,0,0,1-1.1,1,1,1,0,0,1-1.15-1Zm19.8,22.75A62.18,62.18,0,0,1,547.9,40a.73.73,0,0,1-.65-.8c0-.35.2-.7.5-.7l1-.1a26.66,26.66,0,0,0,1.6-4c-1.35,0-2.9.05-4.5.05-.05,1-.05,2.75-.05,3.95,0,3.15.65,3.4,6.5,3.4,6.4,0,7.5-1.15,7.5-3.9A1.06,1.06,0,0,1,561,36.8a1.35,1.35,0,0,1,1.45,1.25c0,4-2.35,5.7-10,5.7-6.25,0-8.85-.6-8.85-4,0-.8,0-3.85,0-5.3-3,0-5.9-.05-7.6-.1-4.05-.05-4.15-1.35-4.15-5.05,0-3.25.05-5.05,4.15-5.1,1.3,0,3.15-.05,5.2-.05a15.74,15.74,0,0,0,.7-2.25,1.24,1.24,0,0,1,1.3-.95,1.13,1.13,0,0,1,1.25,1c0,.1,0,.55-.9,2.2,3.5,0,7.2,0,9.45.05,4,.05,4.1,1.85,4.1,5.1,0,3.45,0,5-4.1,5.05l-.75,0c-.4,1.05-1.2,2.65-1.7,3.7,1.45-.2,3-.5,4.25-.75-.25-.35-.55-.65-.8-1a.28.28,0,0,1-.1-.25c0-.35.5-.7.9-.7.7,0,2.85,3,2.85,3.4a1.12,1.12,0,0,1-1,.95.53.53,0,0,1-.45-.3ZM543.1,25.75h-5c-3.25,0-4,.25-4,1.7v1h9Zm0,4.2h-9v1.3c0,1.6.6,1.65,9,1.65ZM541.9,18.7a10.23,10.23,0,0,0-3.35-2.1.56.56,0,0,1-.4-.55.91.91,0,0,1,1-.9c.4,0,4.45,1.6,4.45,2.85a1.08,1.08,0,0,1-1,1A1,1,0,0,1,541.9,18.7Zm11.7-4.9a27.44,27.44,0,0,0,7.8,5.55.93.93,0,0,1,.6.9,1.17,1.17,0,0,1-1.2,1.1c-.95,0-4.55-2.4-7.7-5.6l.1,6a1,1,0,0,1-1.1,1,1,1,0,0,1-1.15-1l.1-6.2a35.59,35.59,0,0,1-5.4,4.95,1.13,1.13,0,0,1-.75.25,1.15,1.15,0,0,1-1.15-1,.84.84,0,0,1,.5-.75,28.84,28.84,0,0,0,6.15-5.2l-4.9,0a.88.88,0,0,1-1-.9,1,1,0,0,1,1-.95l5.45.05,0-2.3c0-.45.4-.9,1.15-.9.55,0,1.1.25,1.1.85v.05l-.05,2.35,6.15-.1a1,1,0,0,1,1.05.95.92.92,0,0,1-1,.9Zm1,13.65c0-1.15-.45-1.65-2.2-1.7-1.55-.05-4.25-.05-7.05-.05v2.75h9.25Zm0,2.5H545.4V32.9c8.9,0,9.1,0,9.25-1.7Z"/><path d="M581,13.9c-2.25,0-2.8-.85-2.8-1.55a1.21,1.21,0,0,1,1.25-1.25,1.7,1.7,0,0,1,.7.1,3.45,3.45,0,0,0,1.25.2c1.5,0,2.9-.45,7.8-2.6a26.48,26.48,0,0,0,.5-5A1.25,1.25,0,0,1,591,2.6a1.32,1.32,0,0,1,1.4,1.5A17.67,17.67,0,0,1,592,7.55,14.59,14.59,0,0,0,593.7,6.4a1.36,1.36,0,0,1,.85-.3,1.12,1.12,0,0,1,1.15,1.1c0,1.2-1.85,2.2-4.4,3.35-2.5,6.35-6.5,13.15-10,19.1a1.89,1.89,0,0,1-1.65,1,1.15,1.15,0,0,1-1.25-1.1,2,2,0,0,1,.4-1.15c3.7-5.6,7-10.7,9.45-16.75C585.85,12.75,583.3,13.9,581,13.9Zm18.7,23.65c-.65,3.05-4.35,5.8-8.45,5.8s-7.35-2.65-7.35-5.25c0-3.1,4.25-4.8,8.55-4.8a22.08,22.08,0,0,1,4.8.55c-.05-1.2-.25-2.4-.4-3.7-.1-1-.2-1.95-.2-2.8,0-4.35,1.7-6.9,6.95-10.15.75-.45,1.2-.8,1.2-1,0-.5-2-.6-2.2-.6a24.66,24.66,0,0,0-4.4.65c-.1,0-.2.05-.3.05a1.11,1.11,0,0,1-1.1-1.1c0-.55.4-1.1,1.35-1.3a24.76,24.76,0,0,1,4.4-.45c5.1,0,7.65,2.25,7.65,3.45,0,.7-.55,1.2-1.5,1.2h-.6a7.66,7.66,0,0,0-3.5,1c-3.85,2.2-5.55,4.2-5.55,8a16.36,16.36,0,0,0,.25,3c.2,1.25.45,2.9.55,4.45,1.75.6,7.9,3.1,7.9,5.25a1.45,1.45,0,0,1-1.35,1.5,1.56,1.56,0,0,1-1.05-.5,19.39,19.39,0,0,0-5.6-3.65A1.1,1.1,0,0,1,599.65,37.55Zm-7.75-2.1c-3,0-5.55,1.2-5.55,2.65,0,1.15,2,2.8,4.8,2.8s5.6-1.8,6-4.2c0-.15,0-.3,0-.45A20.86,20.86,0,0,0,591.9,35.45Z"/><path d="M628.75,36.45c-.8,0-1.6,0-2.4-.05a4,4,0,0,1-3.8-4.2c0-3.1,0-7.35,0-11.5s0-8.25,0-11c.1-4,3.65-4.05,6.35-4.05.8,0,1.6.05,2.3.1a4,4,0,0,1,4,3.75c.1,2.9.15,6.7.15,10.6,0,4.45,0,9-.15,12.15C635.15,36.2,632.25,36.45,628.75,36.45ZM632.9,19.1c0-3.4,0-6.65-.1-9s-1.5-2.3-3.9-2.3-3.8.05-3.9,2.35c0,2.05-.1,5.35-.1,8.9Zm-8,2.25c0,4,.05,8,.1,10.4,0,2.15,1,2.35,3.85,2.35,2.35,0,3.9-.15,3.95-2.4.1-2.7.1-6.5.1-10.35Zm13.4-2.45a1.13,1.13,0,1,1,0-2.25l10.35.05,0-6.4-7.75,0a1.1,1.1,0,0,1-1.2-1.1,1.14,1.14,0,0,1,1.2-1.15l7.75.05V2.65a1.21,1.21,0,0,1,1.3-1.2,1.22,1.22,0,0,1,1.35,1.2v5.5l8.55-.05A1.09,1.09,0,0,1,661,9.2a1.1,1.1,0,0,1-1.15,1.15l-8.55,0v6.4l11.4-.05a1,1,0,0,1,1.1,1.1,1.06,1.06,0,0,1-1.1,1.15Zm15.6,8.6-15.6.05a1.06,1.06,0,0,1-1.15-1.1,1.14,1.14,0,0,1,1.15-1.2l15.55.05V21.85a1.17,1.17,0,0,1,1.3-1.15,1.15,1.15,0,0,1,1.25,1.15l.05,3.45,6.45-.05A1,1,0,0,1,664,26.4a1.08,1.08,0,0,1-1.05,1.15l-6.45-.05,0,6.3.15,5v.3c0,2.35-1,5.15-6.5,5.15-4.85,0-4.95-1-4.95-1.7a1.25,1.25,0,0,1,1.25-1.3h.25a24,24,0,0,0,3.85.45c2.1,0,3.4-.75,3.4-3.15ZM647,36.65a17.67,17.67,0,0,0-5.75-4.3.94.94,0,0,1-.6-.8,1.31,1.31,0,0,1,1.3-1.2c1.2,0,7.3,3.5,7.3,5.45a1.22,1.22,0,0,1-2.25.85Z"/><path d="M677.8,40.55a31.62,31.62,0,0,1-1.3-9.4c0-8.6,2.6-17,3-21.4a1.28,1.28,0,0,1,1.3-1.3,1.43,1.43,0,0,1,1.5,1.3c0,.1,0,.2,0,.3-1,4.95-3.2,13.85-3.2,20,0,.15,0,3.45.5,3.45.15,0,.3-.2.5-.65.65-1.4,2.3-4.4,2.8-5.25a1.17,1.17,0,0,1,1-.65,1.26,1.26,0,0,1,1.25,1.15,1.14,1.14,0,0,1-.15.55c-1.6,2.75-4.3,7.45-4.3,10.75,0,.2,0,.4,0,.65v.2c0,.65-.2,1.65-1.35,1.65A1.68,1.68,0,0,1,677.8,40.55Zm27.25-1.25c-9,0-14.8-5.1-14.8-6.8a1.38,1.38,0,0,1,1.4-1.3,1.71,1.71,0,0,1,1.25.65c2.65,3.1,6.75,4.45,11.55,4.45a33.15,33.15,0,0,0,4.3-.35c.15,0,.25-.05.35-.05a1.35,1.35,0,0,1,1.45,1.4C710.55,38.4,710.05,39.3,705.05,39.3Zm-6-22a30.6,30.6,0,0,1-6.85-.75A1.35,1.35,0,0,1,691,15.2a1.38,1.38,0,0,1,1.35-1.35,1,1,0,0,1,.35.05,27.06,27.06,0,0,0,5.65.55,47.52,47.52,0,0,0,6.2-.45h.25a1.29,1.29,0,0,1,1.4,1.3C706.2,16.15,706.15,17.25,699,17.25Z"/><path d="M756.9,27.4a1.22,1.22,0,0,1,1.35-1.2,1.43,1.43,0,0,1,1.5,1.3c0,1.55.1,3.55.1,5.5,0,1.25,0,2.45-.05,3.5-.1,3.8-2.5,5.75-6,5.85-3.7.1-8.55.15-13.15.15-4.15,0-8.15,0-11.1-.15-3.55-.15-5.45-2-5.5-5.7,0-1.4,0-3,0-4.65s0-3.25,0-4.6a1.35,1.35,0,0,1,1.4-1.35,1.3,1.3,0,0,1,1.4,1.2v.05c-.05,1.75-.05,4.35-.05,6.45,0,4.15,0,6,3.8,6.1,2.6.1,6,.15,9.65.15V21.8c-3,0-6-.05-8.75-.15C728,21.5,726,19.7,726,16.05c0-1.4-.05-2.8-.05-4.25S726,9,726,7.6a1.28,1.28,0,0,1,1.4-1.3,1.27,1.27,0,0,1,1.4,1.2v0c0,1.75,0,3.9,0,5.75,0,4.2.15,5.8,3.8,5.95,2.45.1,5.1.15,7.75.15l0-16.3a1.37,1.37,0,0,1,1.5-1.3,1.36,1.36,0,0,1,1.45,1.3l0,16.3c2.75,0,5.5,0,7.95-.15,4.1-.15,4.1-2.6,4.1-6.5,0-1.75-.1-3.55-.15-5v0a1.26,1.26,0,0,1,1.4-1.15,1.32,1.32,0,0,1,1.45,1.3c0,1.25.1,2.6.1,4s-.05,2.75-.1,4.15c-.1,3.75-2.4,5.6-6,5.75-2.9.1-5.85.15-8.75.15V40c3.7,0,7.25,0,9.85-.15,4-.15,4.1-2.4,4.1-6.8,0-2-.1-4.1-.15-5.6Z"/><path d="M802.75,41.45h-.3c-11.5-.85-17.3-8.35-17.3-15.6,0-5.9,4.35-10.2,5.1-10.8.25-.2.4-.4.4-.5s0-.1-.2-.1a1.82,1.82,0,0,0-.55.15c-.7.35-10.55,4.9-12.7,4.9-1.15,0-1.75-.7-1.75-1.45a1.71,1.71,0,0,1,1.4-1.6c5.6-1.45,14.9-5,17.15-5.9,4.3-1.7,8.9-3.05,13.15-3.05,1.45,0,2.1.8,2.1,1.6,0,1-.7,1.6-2.15,1.6h-.55a11.3,11.3,0,0,0-1.3,0c-8,0-17.55,6.45-17.55,14.85,0,6.65,6.15,12.6,15,12.6,1.55,0,2.3.85,2.3,1.65S804.2,41.45,802.75,41.45Z"/><path d="M844.7,24.65C841,24.65,835,23.55,835,20a3.69,3.69,0,0,1,1.75-2.85c2.85-1.9,2.85-1.9,2.85-2.25,0-1.5-6.5-3.55-8.2-3.9-.85-.15-1.25-.7-1.25-1.2s.5-1.2,1.5-1.2c1.2,0,11.45,3.4,11.45,6.7,0,1.05-1.15,1.55-1.8,1.7,0,0-3.6,1.4-3.6,2.8,0,1.6,4.3,2.3,6.9,2.3a19,19,0,0,0,3.2-.25A82.8,82.8,0,0,0,840.2,5a1.35,1.35,0,0,1-.25-.8,1.31,1.31,0,0,1,1.45-1.15A1.69,1.69,0,0,1,843,4a125,125,0,0,1,7.1,17.3,33.64,33.64,0,0,0,3.4-1.15,2,2,0,0,1,.7-.15,1.26,1.26,0,0,1,1.25,1.35c0,.8,0,1.4-4.5,2.55.2.65.45,1.3.65,2,.6,1.9,1.35,3.35,1.85,4.75a8.08,8.08,0,0,1,.5,2.5c0,1.3-.6,1.8-1.4,1.8a3.23,3.23,0,0,1-1.65-.55,34.93,34.93,0,0,0-9.65-1.5c-6.45,0-7.45,3.1-7.45,3.75,0,2.15,3.75,4.45,9.55,4.45a13.58,13.58,0,0,0,2.15-.15h.35a1.37,1.37,0,0,1,1.55,1.3c0,.8-.6,1.6-2.45,1.6-9.25,0-13.85-3.65-13.85-7,0-2.25,2.35-6.25,10.3-6.25a68.35,68.35,0,0,1,7.65.65,3.54,3.54,0,0,0,.7.05c.5,0,.75-.15.75-.55,0-.1,0-.35-1.9-6.35A25.46,25.46,0,0,1,844.7,24.65Z"/><path d="M902.75,41.45h-.3c-11.5-.85-17.3-8.35-17.3-15.6,0-5.9,4.35-10.2,5.1-10.8.25-.2.4-.4.4-.5s0-.1-.2-.1a1.82,1.82,0,0,0-.55.15c-.7.35-10.55,4.9-12.7,4.9-1.15,0-1.75-.7-1.75-1.45a1.71,1.71,0,0,1,1.4-1.6c5.6-1.45,14.9-5,17.15-5.9,4.3-1.7,8.9-3.05,13.15-3.05,1.45,0,2.1.8,2.1,1.6,0,1-.7,1.6-2.15,1.6h-.55a11.3,11.3,0,0,0-1.3,0c-8,0-17.55,6.45-17.55,14.85,0,6.65,6.15,12.6,15,12.6,1.55,0,2.3.85,2.3,1.65S904.2,41.45,902.75,41.45Z"/><path d="M925.2,25.15a2.29,2.29,0,0,1-2.5-2.55,2.49,2.49,0,0,1,2.55-2.45,2.54,2.54,0,0,1,2.6,2.4A2.63,2.63,0,0,1,925.2,25.15Zm16.7,0a2.29,2.29,0,0,1-2.5-2.55A2.49,2.49,0,0,1,942,20.15a2.43,2.43,0,0,1,2.55,2.4A2.67,2.67,0,0,1,941.9,25.15Zm16.65,0a2.29,2.29,0,0,1-2.5-2.55,2.49,2.49,0,0,1,2.55-2.45,2.54,2.54,0,0,1,2.6,2.4A2.63,2.63,0,0,1,958.55,25.15Z"/><path d="M501.23,85.59c-5.45,8.25-13.61,15-15.16,15a1.44,1.44,0,0,1-1.45-1.4,1.27,1.27,0,0,1,.7-1.1A50.48,50.48,0,0,0,499.83,84H486.77a1.18,1.18,0,1,1,0-2.35H491c0-3.1,0-7,.06-9.6,0-2.15,1.25-4.15,4.75-4.2,1.75,0,4.45,0,7.1,0,1.9,0,3.8,0,5.25,0a1.11,1.11,0,0,1,1.15,1.2,1,1,0,0,1-1.1,1.1h-.05c-1.1,0-2.75,0-4.55,0V81.64H509a1.13,1.13,0,0,1,1.15,1.15A1.14,1.14,0,0,1,509,84h-5.35V96.24l.15,5.25v.2c0,2.35-.75,5.35-6.1,5.35-4.7,0-4.85-1.05-4.85-1.75a1.25,1.25,0,0,1,1.2-1.35h.25a23.17,23.17,0,0,0,3.65.45c2.05,0,3.1-.8,3.15-3.4Zm-.15-15.5c-1.9,0-3.65,0-4.75,0-2.05,0-2.71,1-2.75,2.4-.05,1.15-.1,3-.1,5,0,1.4,0,2.8,0,4.1h7.55Zm14.2,10.2c0,6.45.05,13.7.05,20.75v5.35a1.22,1.22,0,0,1-1.35,1.2,1.25,1.25,0,0,1-1.35-1.2c0-26.55,0-28.25.1-34.55,0-4.2,2.65-4.5,7.2-4.5,1.3,0,2.75,0,4.15,0,2.65.1,4.2,1.5,4.2,3.55,0,1.1-.45,2.6-3.25,7.45a6.74,6.74,0,0,0-1.2,3c0,1,.6,1.75,1.7,3.2,1.8,2.35,3.25,4.55,3.25,8,0,5.75-3.7,7.45-7,7.45-1.5,0-3.3-.15-3.3-1.65A1.25,1.25,0,0,1,519.58,97h.25a11.9,11.9,0,0,0,1.8.15c1.35,0,4.45-.3,4.45-4.85,0-2.8-1.8-5.45-3.5-7.5a5.1,5.1,0,0,1-1.3-3.2,7.87,7.87,0,0,1,1.1-3.5c2.25-4.35,3-5.8,3-6.85,0-1.55-1.4-1.6-4.8-1.6-4.45,0-5.2.15-5.2,2.65S515.28,77.44,515.28,80.29Z"/><path d="M556.83,65.44a1.43,1.43,0,0,1,2.85,0l0,3c6.1,0,12.55,0,16.85,0a1.08,1.08,0,1,1,0,2.15c-4.55,0-12.05,0-18.7,0-4.85,0-9.2,0-11.55,0s-3.46,1.15-3.46,3.15.11,4.7.11,7.4c0,8.1-.55,17.8-4.4,23.9a1.57,1.57,0,0,1-1.36.8,1.3,1.3,0,0,1-1.4-1.2,1,1,0,0,1,.2-.6c3.7-5.6,4.46-13.75,4.46-21.15,0-3.4-.15-6.7-.26-9.45v-.2c0-3,2.15-4.8,5.71-4.8,2.65,0,6.65,0,11,0Zm-2.2,33.45a1,1,0,0,1,.9-.5,1.18,1.18,0,0,1,1.25,1.1,1.21,1.21,0,0,1-.2.65c-3.4,5.8-12.2,7.1-13.26,7.1a1.15,1.15,0,0,1-1.2-1.2,1,1,0,0,1,1-1.05C546.63,104.79,552.08,103.24,554.63,98.89Zm-3.2-20c-2.55,3-5.7,5.55-6.45,5.55a1.13,1.13,0,0,1-1.1-1,.88.88,0,0,1,.5-.75,28.1,28.1,0,0,0,6.5-5.7l-5,0a.92.92,0,0,1-1-.9,1,1,0,0,1,1-1l5.5.1,0-2.35v0c0-.55.55-.85,1.1-.85s1.15.3,1.15.9l-.05,2.3,4.75,0a.93.93,0,1,1,0,1.85l-4.8,0v.4l.1,7.6a1,1,0,0,1-1.1,1,1,1,0,0,1-1.15-1Zm19.8,22.75a62.18,62.18,0,0,1-7.65,1.5.73.73,0,0,1-.65-.8c0-.35.2-.7.5-.7l1-.1a26.66,26.66,0,0,0,1.6-3.95c-1.35,0-2.9,0-4.5,0,0,1,0,2.75,0,4,0,3.15.65,3.4,6.5,3.4,6.4,0,7.5-1.15,7.5-3.9a1.06,1.06,0,0,1,1.15-1.1,1.35,1.35,0,0,1,1.45,1.25c0,4-2.35,5.7-10.05,5.7-6.25,0-8.85-.6-8.85-4,0-.8.05-3.85.05-5.3-3,0-5.9,0-7.6-.1-4,0-4.15-1.35-4.15-5,0-3.25,0-5,4.15-5.1,1.3,0,3.15,0,5.2,0a15.74,15.74,0,0,0,.7-2.25,1.24,1.24,0,0,1,1.3-1,1.13,1.13,0,0,1,1.25,1c0,.1,0,.55-.9,2.2,3.5,0,7.2,0,9.45,0,4,0,4.1,1.85,4.1,5.1,0,3.45-.05,5-4.1,5l-.75.05c-.4,1-1.2,2.65-1.7,3.7,1.45-.2,3.05-.5,4.25-.75-.25-.35-.55-.65-.8-.95a.28.28,0,0,1-.1-.25c0-.35.5-.7.9-.7.7,0,2.85,3,2.85,3.4a1.12,1.12,0,0,1-1,1,.53.53,0,0,1-.45-.3Zm-12.45-12.7h-4.95c-3.25,0-4,.25-4.05,1.7v1h9Zm0,4.2h-9v1.3c.05,1.6.6,1.65,9,1.65Zm-1.2-11.25a10.23,10.23,0,0,0-3.35-2.1.56.56,0,0,1-.4-.55.91.91,0,0,1,.95-.9c.4,0,4.45,1.6,4.45,2.85a1.08,1.08,0,0,1-1,1A1,1,0,0,1,557.58,81.84Zm11.7-4.9a27.44,27.44,0,0,0,7.8,5.55.93.93,0,0,1,.6.9,1.17,1.17,0,0,1-1.2,1.1c-1,0-4.55-2.4-7.7-5.6l.1,6a1,1,0,0,1-1.1,1,1,1,0,0,1-1.15-1l.1-6.2a35.59,35.59,0,0,1-5.4,5,1.13,1.13,0,0,1-.75.25,1.15,1.15,0,0,1-1.15-1,.84.84,0,0,1,.5-.75,28.84,28.84,0,0,0,6.15-5.2l-4.9,0a.88.88,0,0,1-.95-.9,1,1,0,0,1,1-1l5.45,0,0-2.3c0-.45.4-.9,1.15-.9.55,0,1.1.25,1.1.85v0l0,2.35,6.15-.1a1,1,0,0,1,1,1,.92.92,0,0,1-1,.9Zm1.05,13.65c-.05-1.15-.45-1.65-2.2-1.7-1.55,0-4.25,0-7,0v2.75h9.25Zm0,2.5h-9.25v3c8.9,0,9.1,0,9.25-1.7Z"/><path d="M596.63,77c-2.25,0-2.81-.85-2.81-1.55a1.21,1.21,0,0,1,1.26-1.25,1.66,1.66,0,0,1,.69.1,3.54,3.54,0,0,0,1.26.2c1.5,0,2.9-.45,7.8-2.6a26.48,26.48,0,0,0,.5-5,1.25,1.25,0,0,1,1.35-1.2,1.32,1.32,0,0,1,1.4,1.5,17.67,17.67,0,0,1-.45,3.45,14.59,14.59,0,0,0,1.75-1.15,1.36,1.36,0,0,1,.85-.3,1.12,1.12,0,0,1,1.15,1.1c0,1.2-1.85,2.2-4.4,3.35-2.5,6.35-6.5,13.15-10,19.1a1.89,1.89,0,0,1-1.65,1,1.15,1.15,0,0,1-1.25-1.1,2,2,0,0,1,.4-1.15c3.7-5.6,6.95-10.7,9.45-16.75C601.53,75.89,599,77,596.63,77Zm18.7,23.65c-.65,3-4.35,5.8-8.45,5.8s-7.35-2.65-7.35-5.25c0-3.1,4.25-4.8,8.55-4.8a22.08,22.08,0,0,1,4.8.55c0-1.2-.25-2.4-.4-3.7-.1-1-.2-2-.2-2.8,0-4.35,1.7-6.9,7-10.15.75-.45,1.2-.8,1.2-1,0-.5-2-.6-2.2-.6a24.66,24.66,0,0,0-4.4.65c-.1,0-.2,0-.3,0a1.11,1.11,0,0,1-1.1-1.1c0-.55.4-1.1,1.35-1.3a24.76,24.76,0,0,1,4.4-.45c5.1,0,7.65,2.25,7.65,3.45,0,.7-.55,1.2-1.5,1.2h-.6a7.66,7.66,0,0,0-3.5,1.05c-3.85,2.2-5.55,4.2-5.55,8a16.36,16.36,0,0,0,.25,2.95c.2,1.25.45,2.9.55,4.45,1.75.6,7.9,3.1,7.9,5.25a1.45,1.45,0,0,1-1.35,1.5,1.56,1.56,0,0,1-1-.5,19.39,19.39,0,0,0-5.6-3.65A1.1,1.1,0,0,1,615.33,100.69Zm-7.75-2.1c-3.05,0-5.55,1.2-5.55,2.65,0,1.15,2.05,2.8,4.8,2.8s5.6-1.8,5.95-4.2c0-.15.05-.3.05-.45A20.86,20.86,0,0,0,607.58,98.59Z"/><path d="M644.43,99.59c-.8,0-1.61,0-2.41,0a4,4,0,0,1-3.79-4.2c-.05-3.1-.05-7.35-.05-11.5s0-8.25.05-11c.09-4,3.65-4.05,6.35-4.05.8,0,1.6.05,2.3.1a4,4,0,0,1,4,3.75c.1,2.9.15,6.7.15,10.6,0,4.45-.05,9-.15,12.15C650.83,99.34,647.93,99.59,644.43,99.59Zm4.15-17.35c0-3.4,0-6.65-.1-8.95S647,71,644.58,71s-3.81.05-3.9,2.35c0,2-.11,5.35-.11,8.9Zm-8,2.25c0,4,.06,8,.11,10.4.05,2.15,1,2.35,3.84,2.35,2.36,0,3.91-.15,4-2.4.1-2.7.1-6.5.1-10.35ZM654,82a1.13,1.13,0,1,1,0-2.25l10.35,0-.05-6.4-7.75,0a1.1,1.1,0,0,1-1.2-1.1,1.14,1.14,0,0,1,1.2-1.15l7.75.05v-5.5a1.21,1.21,0,0,1,1.3-1.2,1.22,1.22,0,0,1,1.35,1.2v5.5l8.55-.05a1.09,1.09,0,0,1,1.15,1.1,1.1,1.1,0,0,1-1.15,1.15l-8.55,0v6.4l11.4,0a1,1,0,0,1,1.1,1.1,1.06,1.06,0,0,1-1.1,1.15Zm15.6,8.6-15.6,0a1.06,1.06,0,0,1-1.15-1.1,1.14,1.14,0,0,1,1.15-1.2l15.55,0V85a1.17,1.17,0,0,1,1.3-1.15A1.15,1.15,0,0,1,672.08,85l0,3.45,6.45,0a1,1,0,0,1,1,1.15,1.08,1.08,0,0,1-1,1.15l-6.45,0,0,6.3.15,5v.3c0,2.35-1.05,5.15-6.5,5.15-4.85,0-5-1-5-1.7a1.25,1.25,0,0,1,1.25-1.3h.25a24,24,0,0,0,3.85.45c2.1,0,3.4-.75,3.4-3.15Zm-7,9.15a17.67,17.67,0,0,0-5.75-4.3.94.94,0,0,1-.6-.8,1.31,1.31,0,0,1,1.3-1.2c1.2,0,7.3,3.5,7.3,5.45a1.22,1.22,0,0,1-2.25.85Z"/><path d="M693.48,103.69a31.3,31.3,0,0,1-1.3-9.4c0-8.6,2.59-17,3-21.4a1.28,1.28,0,0,1,1.3-1.3,1.43,1.43,0,0,1,1.5,1.3c0,.1,0,.2,0,.3-1,5-3.2,13.85-3.2,20,0,.15.05,3.45.5,3.45.15,0,.3-.2.5-.65.65-1.4,2.3-4.4,2.8-5.25a1.17,1.17,0,0,1,1-.65,1.26,1.26,0,0,1,1.25,1.15,1.14,1.14,0,0,1-.15.55c-1.6,2.75-4.31,7.45-4.31,10.75,0,.2.06.4.06.65v.2c0,.65-.2,1.65-1.35,1.65A1.67,1.67,0,0,1,693.48,103.69Zm27.25-1.25c-9.05,0-14.8-5.1-14.8-6.8a1.38,1.38,0,0,1,1.4-1.3,1.71,1.71,0,0,1,1.25.65c2.65,3.1,6.75,4.45,11.55,4.45a33.15,33.15,0,0,0,4.3-.35c.15,0,.25,0,.35,0a1.35,1.35,0,0,1,1.45,1.4C726.23,101.54,725.73,102.44,720.73,102.44Zm-6.05-22a30.6,30.6,0,0,1-6.85-.75,1.35,1.35,0,0,1-1.15-1.3A1.38,1.38,0,0,1,708,77a1,1,0,0,1,.35.05,27.06,27.06,0,0,0,5.65.55,47.52,47.52,0,0,0,6.2-.45h.25a1.29,1.29,0,0,1,1.4,1.3C721.88,79.29,721.83,80.39,714.68,80.39Z"/><path d="M761.78,86.29l0,6.4c2,0,4.1,0,6.3.1,3.2,0,4.5,1.85,4.6,3.75,0,.95.1,1.9.1,2.9s-.05,1.9-.1,3c-.1,2-1.45,3.9-4.85,4-2.7.1-5,.1-7.3.1s-4.45,0-7.05-.1c-3.3-.1-4.85-1.8-4.95-4-.05-.85-.05-1.7-.05-2.55,0-1.15,0-2.2.05-3.2.1-2,1.45-3.8,4.85-3.9,1.9-.05,3.85-.1,5.85-.1l0-6.4-14.86,0c-.45,6.7-1.84,13.25-5.65,18.2a1.57,1.57,0,0,1-1.3.7,1.34,1.34,0,0,1-1.4-1.25,1.53,1.53,0,0,1,.31-.85c4.79-6.45,5.59-14.35,5.59-22.3,0-3.35-.14-6.7-.19-10v-.1c0-2.6,1.75-4.45,4.89-4.5s7.21-.1,11.26-.1,8.1,0,11.4.1c4.45.05,4.65,2.2,4.65,5.85,0,2.35-.45,4.5-5.15,4.55-4.4,0-10.45.15-16.6.15-2.55,0-5.15,0-7.6-.05,0,1,0,2,0,3,0,1.4,0,2.8-.09,4.25l14.7.05v-5.2a1.21,1.21,0,0,1,1.3-1.2,1.22,1.22,0,0,1,1.35,1.2V84L776.13,84a1.18,1.18,0,1,1,0,2.35ZM744.43,74.44c3.5,0,7.25,0,10.9,0,5.15,0,9.95,0,13.3-.15,2.35,0,2.6-1.2,2.6-3,0-2-.2-2.9-2.7-3-2.8,0-6.25-.1-9.75-.1-4.25,0-8.5,0-11.55.1a2.65,2.65,0,0,0-2.85,2.85v.15ZM751,99.54c0,3.25.25,4.6,2.85,4.65,1.85,0,3.85.1,5.95.1,2.5,0,5.1-.05,7.5-.1s2.8-1.25,2.8-4.35c0-.9,0-1.8-.05-2.5-.1-2.4-.9-2.45-9.45-2.45-2.35,0-4.7,0-6.75.1C751.23,95,751,96.29,751,99.54Z"/><path d="M796.63,77c-2.25,0-2.81-.85-2.81-1.55a1.21,1.21,0,0,1,1.26-1.25,1.66,1.66,0,0,1,.69.1,3.54,3.54,0,0,0,1.26.2c1.5,0,2.9-.45,7.8-2.6a26.48,26.48,0,0,0,.5-5,1.25,1.25,0,0,1,1.35-1.2,1.32,1.32,0,0,1,1.4,1.5,17.67,17.67,0,0,1-.45,3.45,14.59,14.59,0,0,0,1.75-1.15,1.36,1.36,0,0,1,.85-.3,1.12,1.12,0,0,1,1.15,1.1c0,1.2-1.85,2.2-4.4,3.35-2.5,6.35-6.5,13.15-10,19.1a1.89,1.89,0,0,1-1.65,1,1.15,1.15,0,0,1-1.25-1.1,2,2,0,0,1,.4-1.15c3.7-5.6,6.95-10.7,9.45-16.75C801.53,75.89,799,77,796.63,77Zm18.7,23.65c-.65,3-4.35,5.8-8.45,5.8s-7.35-2.65-7.35-5.25c0-3.1,4.25-4.8,8.55-4.8a22.08,22.08,0,0,1,4.8.55c0-1.2-.25-2.4-.4-3.7-.1-1-.2-2-.2-2.8,0-4.35,1.7-6.9,7-10.15.75-.45,1.2-.8,1.2-1,0-.5-2-.6-2.2-.6a24.66,24.66,0,0,0-4.4.65c-.1,0-.2,0-.3,0a1.11,1.11,0,0,1-1.1-1.1c0-.55.4-1.1,1.35-1.3a24.76,24.76,0,0,1,4.4-.45c5.1,0,7.65,2.25,7.65,3.45,0,.7-.55,1.2-1.5,1.2h-.6a7.66,7.66,0,0,0-3.5,1.05c-3.85,2.2-5.55,4.2-5.55,8a16.36,16.36,0,0,0,.25,2.95c.2,1.25.45,2.9.55,4.45,1.75.6,7.9,3.1,7.9,5.25a1.45,1.45,0,0,1-1.35,1.5,1.56,1.56,0,0,1-1-.5,19.39,19.39,0,0,0-5.6-3.65A1.1,1.1,0,0,1,815.33,100.69Zm-7.75-2.1c-3.05,0-5.55,1.2-5.55,2.65,0,1.15,2.05,2.8,4.8,2.8s5.6-1.8,5.95-4.2c0-.15.05-.3.05-.45A20.86,20.86,0,0,0,807.58,98.59Z"/><path d="M852.53,100.19a8.14,8.14,0,0,1-4.9-2c-4.56-3.5-6.25-10.7-7.06-14.65-.09-.6-1-4.9-1-5.3a1.41,1.41,0,0,1,1.45-1.4,1.49,1.49,0,0,1,1.46,1.35c.29,1.6.5,3.6.79,5.25,2.21,12.3,7.81,13.4,8.61,13.4s1.35-.5,1.75-1.45c.65-1.6,1-3.55,1.55-5.35a1.28,1.28,0,0,1,1.2-1,1.49,1.49,0,0,1,1.5,1.4c0,.1,0,.15,0,.25-.4,2.2-1.15,4.45-1.55,6.6A3.54,3.54,0,0,1,852.53,100.19Zm21.1-10.1c-.5-4-3.75-8-7.3-10.85a1.12,1.12,0,0,1-.45-.85,1.29,1.29,0,0,1,1.35-1.25,2.12,2.12,0,0,1,1.25.5c3,2.5,8.2,7.5,8.2,12a1.73,1.73,0,0,1-1.65,1.9A1.45,1.45,0,0,1,873.63,90.09Z"/><path d="M898.13,90.49s.15,0,.3-.2A9.45,9.45,0,0,1,904.18,88c2.1,0,3.85,1.1,3.85,4.45,0,.8,0,1.4-.95,4.7a4.65,4.65,0,0,0-.2,1.35c0,1.75,1.3,2.6,3.45,2.6,7.75,0,13.1-8.4,14.2-13.15a1.58,1.58,0,0,1,3.15.2c0,1.8-5.65,15.7-17.5,15.7-5.9,0-6.15-3.5-6.15-4.5a8,8,0,0,1,.35-2.3,18,18,0,0,0,1-4.6c0-1.55-.7-2.3-1.85-2.3-2,0-7.76,2.7-10.26,10.2-1,3-1.89,3.55-2.7,3.55a1.36,1.36,0,0,1-1.55-1.4c0-.9,1.8-4.7,8.66-16.05,2.7-4.5,5.15-8.75,7.45-12.7.8-1.4,2.15-3.35,2.65-4.35a1.46,1.46,0,0,1,1.3-.8,1.64,1.64,0,0,1,1.65,1.55c0,.55-.2,1-2.55,4.25s-9.5,15-9.95,15.7a.55.55,0,0,0-.15.3Z"/><path d="M954.48,77c-4.65,13-8.4,19.6-11.71,26.6a1.63,1.63,0,0,1-1.5.9,1.38,1.38,0,0,1-1.54-1.25,1.89,1.89,0,0,1,.25-.85,167,167,0,0,0,11.6-24.8l.1-.2a27.91,27.91,0,0,1-6.41,1.25c-.29,0-3.5,0-3.5-1.7a1.35,1.35,0,0,1,1.3-1.4,2.51,2.51,0,0,1,.91.25,3.59,3.59,0,0,0,1.65.35,20.71,20.71,0,0,0,7-1.65,17.14,17.14,0,0,0,.6-5,1.38,1.38,0,0,1,1.5-1.35c1.3,0,1.45.9,1.45,2a13.41,13.41,0,0,1-.4,3,12.16,12.16,0,0,0,1.45-1,1.49,1.49,0,0,1,1-.35A1.29,1.29,0,0,1,959.48,73c0,.5-.3,1.5-4.75,3.3Zm18.8,26.4c0,1.45-1.6,1.45-2.35,1.45-8.55,0-12.85-4.7-12.85-6.25a1.49,1.49,0,0,1,1.4-1.5,1.37,1.37,0,0,1,1.2.8c2.15,3.75,7.15,3.9,11,4A1.49,1.49,0,0,1,973.28,103.39ZM974.93,86a1.27,1.27,0,0,1-.6-.1c-2.5-1-6.35-2.35-9.45-2.35a8,8,0,0,0-2,.25.63.63,0,0,1-.3,0,1.13,1.13,0,0,1-1-1.2c0-.45.15-1.6,3.5-1.6a30.26,30.26,0,0,1,10.3,2.3,1.38,1.38,0,0,1,1,1.25A1.41,1.41,0,0,1,974.93,86Zm-1.25-10.6a21.14,21.14,0,0,0-4.95-3.65c-.55-.25-.75-.6-.75-.9a1.23,1.23,0,0,1,1.3-1.1c.85,0,6.4,3,6.4,4.65a1.33,1.33,0,0,1-1.25,1.35A1,1,0,0,1,973.68,75.39Zm4.4-4a22.52,22.52,0,0,0-5.1-3.5c-.55-.25-.75-.55-.75-.9a1.27,1.27,0,0,1,1.3-1.15c1.35,0,5.6,3,6.05,3.5a1.62,1.62,0,0,1,.45,1,1.36,1.36,0,0,1-1.25,1.35A.87.87,0,0,1,978.08,71.39Z"/><path d="M1005.68,79.39a6.11,6.11,0,0,1,1.3-.15c4.8,0,4.95,5.3,4.95,7.75,0,6.75-1,16-8.6,16-2.35,0-5.35-1-5.35-2.55a1.44,1.44,0,0,1,1.4-1.45,1.33,1.33,0,0,1,.6.15,7.33,7.33,0,0,0,3.4,1c2.75,0,5.85-2.35,5.85-13.85,0-2.8-.6-4.65-2.8-4.65a5,5,0,0,0-1.4.2q-.53.15-1.35.3c-3.8,7.35-9.45,16-12.75,21.45a1.75,1.75,0,0,1-1.56.85,1.26,1.26,0,0,1-1.39-1.2,1.71,1.71,0,0,1,.34-1c3.25-4.65,8.76-12.6,12.26-19.4-3.9.9-6.45,1.5-8.1,1.5a1.36,1.36,0,0,1-1.46-1.4,1.26,1.26,0,0,1,1.3-1.3h.45a58.59,58.59,0,0,0,8.91-1.4,26.79,26.79,0,0,0,2.85-8.55,1.26,1.26,0,0,1,1.35-1.1,1.4,1.4,0,0,1,1.5,1.3c0,1-.5,3.45-2.55,7.7ZM1027.33,91c-1.15-3.2-5.2-7.1-9.35-8.55a1,1,0,0,1-.65-1,1.24,1.24,0,0,1,1.25-1.25c2.5,0,11.5,6.35,11.5,10.1a1.57,1.57,0,0,1-1.5,1.65A1.33,1.33,0,0,1,1027.33,91Z"/><path d="M1048.48,80.24v-1c0-2.7,1.25-4.25,4.3-6.35,1-.65,2-1.2,2.85-1.7s1-.7,1-1c0-.85-2.65-1.85-3-1.95-.75-.25-1-.7-1-1.15a1.32,1.32,0,0,1,1.45-1.2c1.15,0,7.35,3,7.35,5.6,0,1.35-1.35,1.35-1.65,1.35-3.8,0-8.9,3-8.9,6.45,0,.3,0,.55,0,.85v.7a17.59,17.59,0,0,1-.15,2.25c-.15,1.1-.5,2.3-.65,3.2a26.22,26.22,0,0,0-.45,4.35c0,.25,0,3.15,1.15,3.15a2.91,2.91,0,0,0,1.1-.5c1-.6,3.45-2.55,5.65-3.85,2.9-1.7,5.25-2.6,7.6-2.6,4,0,7.65,2.55,7.65,6.55,0,2.9-1.9,6.45-7.1,9.85-4,2.65-11.2,3.85-12.75,3.85-1.2,0-1.65-.55-1.65-1.2a1.5,1.5,0,0,1,1.35-1.45c11.35-.85,17.4-7.25,17.4-11.1,0-2.55-2.5-4.15-5.1-4.15-4,0-10.75,5.3-12.7,7.7a2.75,2.75,0,0,1-2,1.25c-.7,0-3.25-1.2-3.25-7.15,0-2,0-2.45,1.05-7.3A20.26,20.26,0,0,0,1048.48,80.24Z"/><path d="M1091.27,108.14a5.78,5.78,0,0,1,0-11.55,5.78,5.78,0,1,1,0,11.55Zm0-9.75a4,4,0,0,0-4,4,4.05,4.05,0,0,0,4,4,4.1,4.1,0,0,0,4.06-4A4.06,4.06,0,0,0,1091.27,98.39Z"/><path d="M1122.43,102.49c0-1.8.1-3.9.1-6.2,0-2.85,0-5.9-.1-9.1a1.08,1.08,0,0,1,1.1-1.1,1,1,0,0,1,1,1c0,2.8,0,5.55,0,8.2s0,5.1,0,7.4c0,3.3-1.8,5.55-5.35,5.65-.86,0-1.66,0-2.45,0-5.66,0-6.21,0-6.21-1.15a1,1,0,0,1,1.1-1.05h.15a64.49,64.49,0,0,0,6.91.15C1120.77,106.34,1122.33,105.14,1122.43,102.49Z"/></g></g></svg>