<svg xmlns="http://www.w3.org/2000/svg" xmlns:xlink="http://www.w3.org/1999/xlink" viewBox="0 0 1010.52 1000"><defs><style>.cls-1{fill:none;}.cls-2{fill:#322e38;}.cls-3{clip-path:url(#clip-path);}.cls-4{fill:#fff;}</style><clipPath id="clip-path" transform="translate(0 0)"><polygon class="cls-1" points="999 0 0 1000 999 1000 999 0"/></clipPath></defs><title>アセット 2</title><g id="レイヤー_2" data-name="レイヤー 2"><g id="レイヤー_1-2" data-name="レイヤー 1"><polygon class="cls-2" points="999 0 0 1000 999 1000 999 0"/><g class="cls-3"><path class="cls-4" d="M358.22,802.8V738.94h7.33q12.45,62.4,59,62.4,21,0,32.45-11.94t11.5-26.73q0-14.94-10.11-25-10.11-10-36.91-21.39-23.88-10.25-36-17.94a54.66,54.66,0,0,1-19-20,53.3,53.3,0,0,1-6.81-26.22q0-21.24,14.72-35.37t37.28-14.14a68.18,68.18,0,0,1,23.73,4.1q11.13,4.11,22.85,17a31.4,31.4,0,0,0,7.62-17.43h6.45v52h-6.45q-5.56-22.69-19.7-35.74t-32.74-13q-17.73,0-26,9.59t-8.28,21a30.39,30.39,0,0,0,10.4,23.29Q399.83,673,426.63,685q25.64,11.43,37.28,18.39a51.89,51.89,0,0,1,18.68,19.26q7,12.3,7,28.42,0,25.49-17,41.45t-45.41,16q-32.67,0-54.49-25-4.85,6.88-7.18,19.33Z" transform="translate(0 0)"/><path class="cls-4" d="M572,707.3l60.64-54.64q21.09-18.9,21.09-26.95,0-12.16-21.09-12.75v-6.74h74.85V613a50.8,50.8,0,0,0-18.53,4,70,70,0,0,0-17.06,10Q664.08,633,643,652.8l-36.18,33.4,74.41,75.15q25.49,25.92,34.13,31.35t22.42,5.42v6.74H634.64v-6.74h4q16.7,0,20.8-2.79c2.73-1.85,4.1-4.15,4.1-6.88q0-6.15-21.24-27.39l-56.11-56.55L572,717v36.19q0,23.43,1.17,30.68t5.93,10.77q4.76,3.52,18.24,3.52h3.81v6.74H511.89v-6.74H518q12.75,0,17.65-3.23t6.3-10q1.39-6.81,1.39-31.71V655.73q0-24.6-1.54-31.34t-6.08-9.09Q531.23,613,514.52,613v-6.74h87.89V613h-3.66q-14.64,0-19.19,2.42t-6.08,9Q572,631,572,655.73Z" transform="translate(0 0)"/><path class="cls-4" d="M745.53,613v-6.74h90.82V613H832.1q-14.65,0-19.19,2.42t-6.08,9q-1.53,6.58-1.54,31.34v97.42q0,23.43,1.1,30.68t5.86,10.77q4.75,3.52,18.24,3.52h5.86v6.74H745.53v-6.74h5.86q12.74,0,17.65-3.23t6.23-10q1.31-6.81,1.31-31.71V655.73q0-23.73-1.31-30.61t-5.86-9.52Q764.87,613,749.78,613Z" transform="translate(0 0)"/><path class="cls-4" d="M913,711.4v41.75q0,23.43,1.1,30.68T920,794.6q4.83,3.52,18.17,3.52h6.59v6.74h-91v-6.74h5.27q12.75,0,17.66-3.23t6.22-10q1.32-6.81,1.32-31.71V655.73q0-23.73-1.32-30.61t-5.86-9.52Q872.52,613,857.44,613h-3.66v-6.74l24.9-.88q29.9-1,46.59-1,30.75,0,47.38,4.83a55.64,55.64,0,0,1,27.25,17.14q10.62,12.3,10.62,31.06,0,16.26-7.25,28.71A46.57,46.57,0,0,1,982.47,705q-13.56,6.45-47.68,6.45Zm0-7.33h14.21q17.15,0,27.69-3.44t17.57-14.43q7-11,7-27.1,0-24.6-12.08-36.1T928.2,611.5a148.92,148.92,0,0,0-15.24.58Z" transform="translate(0 0)"/></g></g></g></svg>