<svg xmlns="http://www.w3.org/2000/svg" viewBox="0 0 1840.44 999.58"><defs><style>.cls-1{fill:#fff;}</style></defs><title>アセット 1</title><g id="レイヤー_2" data-name="レイヤー 2"><g id="レイヤー_2-2" data-name="レイヤー 2"><path class="cls-1" d="M1089.91,279.07q1,2.52,1.89,5.1l3.91,11.82c.41,1.24.78,2.5,1.12,3.76l2.07,7.86a69.86,69.86,0,0,1,1.45,6.87l.76,4.78h0a11.33,11.33,0,0,1-5.78.15l-2.35-.56a23.4,23.4,0,0,1-2.6-.75l-6.21-2.11a36.18,36.18,0,0,1-5.83-2.59l-3.9-2.15,5.38,12,3.18,7.38a57.12,57.12,0,0,0,2.81,5.65l6.81,12,7.77,13.4,9.58,11.61q2.27,2.73,4.28,5.66l7.91,11.43,15.55,6.58,25,12,24.64,10.52,37.19,17.58,6.94,1.56,17.68,3.16c2.48.44,4.95,1,7.39,1.65l18.11,4.88,19,6a73.57,73.57,0,0,1,8.71,3.37l10.82,5,5.93-1.65a94.27,94.27,0,0,1,15.16-2.88l1.37-.15a93.19,93.19,0,0,1,11.08-.51l6.88.1a77.53,77.53,0,0,1,8.34.57l12.76,1.55a77.46,77.46,0,0,1,13,2.75L1400,466c1.5.46,3,1,4.44,1.52l9,3.4q2.7,1,5.33,2.27l3.51,1.66a89.3,89.3,0,0,1,15.07,9.07l3.78,2.81c2.08,1.54,4.1,3.18,6,4.89l5.22,4.6,21.08-1.85a47.89,47.89,0,0,1,6.88-.11l13.74.75a46.47,46.47,0,0,1,4.84.52l18,2.83,3.51-5.11-5.11-5.71-2.46-2.81a26.44,26.44,0,0,1-4.83-8.1h0a20.91,20.91,0,0,1-1.29-6.26h0a30.59,30.59,0,0,1,.26-5.74l.17-1.24a24.29,24.29,0,0,1,1.65-6h0a31.54,31.54,0,0,1,2.62-5l2.08-3.24.43-.49a36.21,36.21,0,0,1,9.2-7.51l1.88-1.08c.74-.43,1.5-.83,2.27-1.21l2-1a35.08,35.08,0,0,1,8.2-2.83l4.36-.92c1.53-.32,3.07-.59,4.61-.79l8.21-1.1,4.15-.44a55.57,55.57,0,0,0,10.53-2.14l2.75-.84c1.08-.32,2.13-.7,3.18-1.12l6.12-2.47,9.45-4.15a51.83,51.83,0,0,0,6.78-3.61l3.26-2.06a37.65,37.65,0,0,0,5.79-4.51l1.86-1.76a28.3,28.3,0,0,0,5-6.28h0a14.05,14.05,0,0,0,1.16-2.56l2.52-7.57c.38-1.14.79-2.27,1.23-3.38l2.92-7.41a51.94,51.94,0,0,1,3.67-7.49l2.78-4.66-1-11.41-1.57-19.27L1624,322.05c-.08-1.08-.12-2.15-.13-3.23l-.14-12.39a60.79,60.79,0,0,1,.41-7.75l.2-1.7a52.52,52.52,0,0,1,1.81-8.77h0a31.75,31.75,0,0,1,4.42-9.15h0a10.92,10.92,0,0,1,2.89-2.82h0a6.7,6.7,0,0,1,4-1.12l1.23.05a4.13,4.13,0,0,1,1.69.45l4.12,2.12c1.31.68,2.59,1.39,3.85,2.16l10.11,6.13,15.92,10.61c1.18.79,2.39,1.55,3.62,2.26l14.28,8.37a72.69,72.69,0,0,1,6.45,4.27l11.11,8.24a81.39,81.39,0,0,1,7.73,6.51l.11.1a76.14,76.14,0,0,1,8.54,9.66h0a16.2,16.2,0,0,1,3,7.28h0a42.57,42.57,0,0,1,.44,7.73l-.11,3.2a42.52,42.52,0,0,1-1.25,8.9l-.87,3.48.24.11a3.72,3.72,0,0,0,3.66-.34h0a3.75,3.75,0,0,0,.44-.37l1.21-1.21a8.85,8.85,0,0,1,4.1-2.32h0a7.63,7.63,0,0,1,1.57-.23l3.92-.16-1.24-4.82a21.89,21.89,0,0,0-1.45-4l-1.24-2.59L1736,344.9c-.7-1.5-1.33-3-1.88-4.58l-3-8.46a48.66,48.66,0,0,1-1.45-4.83l-2-8.23a66.49,66.49,0,0,1-1.61-9.83l-.16-1.83a75.64,75.64,0,0,1,0-13.12l.35-4.15a88.12,88.12,0,0,1,1.59-10.73h0a64.27,64.27,0,0,1,5-14.71h0a88.69,88.69,0,0,1,5.61-9.92l3.56-5.45,9-12.41a85.38,85.38,0,0,1,6.09-7.46l12.27-13.35,15.81-16.48c1.78-1.86,3.64-3.65,5.56-5.36l14.81-13.16,14.75-12.78-10.23,13.17-6.48,9.12a100.37,100.37,0,0,0-8.89,15.19L1793.1,209q-1.11,2.34-2,4.76l-7.39,18.94c-.74,1.88-1.4,3.8-2,5.73l-5.08,16.39a72.29,72.29,0,0,0-1.82,7.13l-3.82,19.14a75.21,75.21,0,0,0-1.13,7.64l-1.6,16.6-1.64,17.17c-.09.87-.19,1.74-.32,2.61L1764.47,337l5-4.91a51.49,51.49,0,0,1,8.33-6.61l2-1.26,8.85-5.31,6.43-3.67a43,43,0,0,1,6.68-3.09l8.58-3.11c1-.36,2-.77,3-1.2l9.45-4.24q2.25-1,4.59-1.83l4.94-1.73,1.52.25a11.44,11.44,0,0,1,3.8,1.35l1,.56.2,3.93v4.55a50.6,50.6,0,0,1-.55,7.38l-.65,4.27c-.25,1.65-.57,3.3-1,4.92l-2.76,11.52-5.11,19.47L1825,374.9l.15,13.72a72.2,72.2,0,0,1-.4,8.32l-1,9.42q-.33,3.15-.92,6.25l-1.59,8.22a69.2,69.2,0,0,1-2,7.9l-2.53,8a48.32,48.32,0,0,1-2.3,5.92h0a47.24,47.24,0,0,1-6.52,10.29h0l-11.8-5.12-7.12-3.22a65.12,65.12,0,0,1-6.42-3.34l-7.5-4.45,4.39,7.77c.48.85.94,1.72,1.38,2.6l9.18,18.54,11.2,22.41,12.25,23.27c1,1.92,2.1,3.8,3.27,5.62l9.85,15.35,7.86,13.17,3.71,4.36a6.4,6.4,0,0,1,1.21,2.14h0a20.76,20.76,0,0,1,1,7.25h0a8.69,8.69,0,0,1-.84,3.4h0a18.88,18.88,0,0,1-3.67,5.19l-1,1a27.78,27.78,0,0,1-4.38,3.57l-8.64,5.71.59,20.06,2.16,37.55,1.64,25.78c.09,1.43.13,2.86.13,4.29v20.8c0,1,0,1.91-.08,2.86l-.26,4.88a42.66,42.66,0,0,1-1.52,9.24h0a8.31,8.31,0,0,1-1.68,3.14h0a37.89,37.89,0,0,1-8.09,7.07l-3.26,2.12a59.13,59.13,0,0,1-5.79,3.3l-9.33,4.67c-1.49.74-3,1.44-4.54,2.08l-7.13,3-1.44,2.26a48.25,48.25,0,0,0-2.41,4.25l-4.79,9.58a52.73,52.73,0,0,0-3.28,8.2h0a103.87,103.87,0,0,0-3,12.15l-1.24,6.93c-.27,1.5-.5,3-.67,4.51l-2.1,18-2,20-.85,17.52c-.09,1.82-.24,3.64-.44,5.45l-.32,2.87a71.32,71.32,0,0,1-2.79,13.33h0a18.69,18.69,0,0,1-2.7,5.37h0a66.51,66.51,0,0,1-8.82,9.92l-2.23,2.06a56.73,56.73,0,0,1-6.13,4.9l-7.58,5.23,6.3-15.53,5.5-15.33,5.3-15.58a57,57,0,0,0,2.14-8.34l1.8-10.1-5.47-5.77c-1.07-1.14-2.1-2.3-3.09-3.51l-4.57-5.55a20.87,20.87,0,0,1-2.15-3.18h0a59.44,59.44,0,0,1-4-9.16l-.16-.46a12.82,12.82,0,0,1-.53-2.2l-.27-1.84a24,24,0,0,1,.07-7.43h0a39.4,39.4,0,0,1,3.51-10.94l.64-1.31a40.34,40.34,0,0,1,3.55-5.92l4.07-5.65,6.68-8.85,5.12-6.29L1767,724.09l10.42-15.73,14.75-23.2,11.4-17.5-7.18-9.33q-2.64-3.45-4.93-7.14l-1.69-2.74a62.47,62.47,0,0,1-4.68-9.14l-1.5-3.61a54.48,54.48,0,0,1-2.13-6.19l-2.4-8.58c-.3-1.09-.57-2.19-.78-3.3l-1.19-6a60.6,60.6,0,0,1-.92-6.7l-1.7-20.81-1-19.86-1-29.1-8.13-2a84.7,84.7,0,0,1-10.28-3.28l-1.4-.55a20.81,20.81,0,0,1-4.86-2.69h0a30.56,30.56,0,0,1-5.46-5.2h0a35.86,35.86,0,0,1-4.82-7.71h0a25.53,25.53,0,0,1-2-6.49h0a66.55,66.55,0,0,1-.82-7.45l-.15-2.66a64,64,0,0,1,.08-8.42l.36-4.79a82.29,82.29,0,0,1,1-8.29l1.25-7.29,2.76-13.17,2.55-11.21,1.29-6.35A83.18,83.18,0,0,0,1745.5,425l.3-6.06a63.62,63.62,0,0,0-.11-7.81v0a18.51,18.51,0,0,0-2.18-7.43l0-.08a17.63,17.63,0,0,0-1.43-2.2l-3.53-4.66-5.06,19.52c-.29,1.14-.56,2.3-.8,3.46l-2.05,10.17a65,65,0,0,1-1.88,7.13L1724,451.58l-5.32,19.15c-.65,2.31-1.2,4.64-1.67,7l-3.58,18.08c-.29,1.45-.54,2.92-.74,4.39l-2.25,16.47-1,10.18a65.53,65.53,0,0,0-.17,11.12l1.19,17,1.16,13.78c.14,1.69.35,3.38.61,5.06l3.73,23.43,6.69,36.77,5.11,33.43,3.73,34.41,1.33,13.84a80.15,80.15,0,0,1,.35,9.3l-.22,10.41q-.08,3.6-.45,7.19l-.35,3.45a80.29,80.29,0,0,1-2.31,12.49l-2,7.2a84.3,84.3,0,0,1-2.64,8.16L1719,790.13c-.91,2.38-1.9,4.72-3,7l-4.72,10q-1.9,4.05-4.17,7.9l-8.94,15.22-4.74,7.19A104.79,104.79,0,0,1,1682,852l-7.19,7.61h0a51.25,51.25,0,0,1,3.17,8.54l2.92,10.73,2.75,12.14a75.74,75.74,0,0,1,1.45,8.84l.62,6.11a82.28,82.28,0,0,1,.43,9.55l-.08,6.16a87.08,87.08,0,0,1-.57,9.14l-.7,6.31a91,91,0,0,1-2.47,13.09l-2.21,8.29-3.82,18.06c-.34,1.59-.72,3.18-1.16,4.75l-3.67,13.37.46-9.54c.08-1.77.11-3.53.08-5.3l-.06-3.51a69.18,69.18,0,0,0-.85-9.64l-1-6.42-1.1-7.17a56.23,56.23,0,0,0-1.29-6l-2.33-8.51a56.36,56.36,0,0,0-1.86-5.64l-4-10.4-5.54-13.76c-.37-.92-.76-1.83-1.18-2.72l-4.09-8.77L1642,883.85l-18.29,15.75c-1.36,1.17-2.75,2.29-4.18,3.38l-13.79,10.43c-1.39,1.05-2.81,2.05-4.28,3l-13.57,8.74a57.45,57.45,0,0,1-7.91,4.28l-2.92,1.3a38.11,38.11,0,0,0-4.3,2.24l-20.43,12.3q-1.42.86-2.79,1.8l-9.13,6.29c-.72.49-1.43,1-2.11,1.55l-8.49,6.65,20.07,16,9.3,8.19a7.4,7.4,0,0,1,2.14,3.23h0a6.54,6.54,0,0,1,.07,3.94l-2,6.68H372.19l-15.62-14.49c-2.44-2.26-4.78-4.64-7-7.11l-5.11-5.64c-1.24-1.37-2.45-2.79-3.61-4.24l-20.47-25.59-10.64-14-12.44-18.87q-1.29-2-2.46-4l-12.4-21.42-7.87-13.73L262.1,846q-1.12-2.22-2.37-4.36l-12.94-22.22-13.58-23.14-8.63-15.73L211,754.78,197,729l-10.65-18.36-7.4-11.57-7.22-11.58c-.64-1-1.3-2-2-3l-5.91-8.4-5.92-9a103.81,103.81,0,0,0-6.52-8.81L144.52,650l-7.25-8.48,2.16,17.59.31,22.67L141.13,717l.63,20.73c.09,3,.32,6.08.67,9.1l1.7,14.51q.39,3.31,1,6.6l1.56,8.31a63.93,63.93,0,0,0,1.53,6.36l4.31,14.59,3.55,12.23c.41,1.41.77,2.84,1.06,4.28l.66,3.19a31,31,0,0,1,.54,8.81h0a43.18,43.18,0,0,1-2,10h0a43.33,43.33,0,0,1-3.42,7.8l-1.48,2.65c-.5.89-1,1.75-1.61,2.58l-4.54,6.61-5.4,7.41L149.77,891l6.55,18.61c.77,2.19,1.65,4.34,2.62,6.45l9.5,20.47q1.84,4,4,7.8l2.93,5.23q1.24,2.21,2.65,4.32l3.17,4.75a38,38,0,0,1,3.27,6l.43,1a10.41,10.41,0,0,1,.81,3.26l.48,5.86L193,985.68l9.26,13.9H153.09l-8.4-19.82-6.05-16.36L136,956.91l-3.87.6a47.74,47.74,0,0,1-6.64.58h0a28.26,28.26,0,0,1-5.59-.46l-.9-.16a44.44,44.44,0,0,1-9.37-2.84l-.16-.07a9.49,9.49,0,0,1-3.9-3.08h0a25.76,25.76,0,0,1-3.56-6.69l-1.74-4.9-3.36-11.2-3.81-11.43L88.47,901.7l-3.58-13.55L81,870.44q-.63-2.9-1-5.84l-1.15-8.88q-.7-5.54-.87-11.12l-.13-4.18a96.28,96.28,0,0,1,.34-11.14l.36-4c.17-1.92.43-3.83.76-5.73l2-11.37c.57-3.29,1.3-6.55,2.17-9.77l4.4-16.22,5.71-17.8,5.16-16.13,2.75-9.69a44.36,44.36,0,0,1,5.09-11.48h0l-7-4.6a109,109,0,0,1-10-7.5l-4.5-3.8-13-10.41-9.52-7.95-11-8.4-8-6.05-4.31-3.14q-4-2.91-7.7-6.15l-1.55-1.34a50.22,50.22,0,0,1-6.14-6.4h0a47.13,47.13,0,0,1-3.14-4.42l-.75-1.19a49.75,49.75,0,0,1-4.52-9.17h0l6.75-3.23c.95-.46,1.91-.88,2.89-1.27l12.53-5,15.78-6.73c1.2-.51,2.42-1,3.65-1.42l16.3-5.73,17.47-5.83L87.66,614q-3.66-3.72-6.94-7.79l-1.93-2.39c-.56-.7-1.1-1.41-1.62-2.14L75.24,599a44.5,44.5,0,0,1-3-4.88l-2.67-5L65,580c-.56-1.13-1.09-2.29-1.58-3.45L56.78,560.8,50,544.56l-4-9a92.27,92.27,0,0,0-4.31-8.47l-1.76-3.06c-.68-1.18-1.41-2.34-2.2-3.46l-4.31-6.16L20.61,495.28l-5.84-8.63a50.3,50.3,0,0,1-3.39-5.81l-2.61-5.28c-.92-1.86-1.75-3.75-2.49-5.69l-2.61-6.78a57.79,57.79,0,0,1-2.86-10L0,448.81l16.05,18.33c1.4,1.59,2.85,3.12,4.37,4.59l20.34,19.63,20.83,19.15,16.24,15.91,13.61,12.45c1.53,1.4,3,2.87,4.43,4.39l8.95,9.59,4.45,4.72a55.68,55.68,0,0,1,5,6.14l1.88,2.67a46.62,46.62,0,0,1,4.69,8.35l.32.74a31.85,31.85,0,0,1,1.78,5.31l1.94,8c.29,1.19.6,2.36,1,3.52l2.61,8.67,1.49-15q.3-3.06.86-6.08l2.47-13.55,2.69-13,3.47-15.79,3.63-13.78a85.14,85.14,0,0,1,2.85-8.8l.24-.63a72.31,72.31,0,0,1,3.9-8.43l.8-1.46a49.7,49.7,0,0,1,4.06-6.3l.26-.34a4.55,4.55,0,0,1,1.51-1.28h0a5.67,5.67,0,0,1,2.62-.64h0a3.1,3.1,0,0,1,1.2.24l1.58.66a23.57,23.57,0,0,1,5,2.84h0a84.05,84.05,0,0,1,9.92,8.74l3.87,4q2,2.1,3.87,4.4l5.71,7.15q1.76,2.21,3.38,4.51l4.2,6,9.41,7.62,11.31,10.07,8.26,7.9c1.36,1.31,2.67,2.66,3.93,4.07l6.85,7.63,6.78,7.73a15.34,15.34,0,0,1,1.79,2.52h0a11,11,0,0,1,1.35,4.51h0a15.11,15.11,0,0,1-.08,2.93l0,.16a6.4,6.4,0,0,1-1.25,3.06l-.8,1.05a6.42,6.42,0,0,1-.84.89l-5.9,5.13-9.26,7.32q-1.93,1.53-4,2.87l-9.26,6,8.82-1.94a61.67,61.67,0,0,1,10.13-1.36l3.18-.16h6.26a61.28,61.28,0,0,1,7.9.51l.42,0a51,51,0,0,1,8.29,1.8l4.92,1.51,12.59,4.15L291.3,625c.95.34,1.89.71,2.82,1.1l10.13,4.28-8.32-8.75-5.6-5.79c-.44-.46-.87-.93-1.28-1.41L287,611.94a28,28,0,0,1-3.53-5.29h0a47.83,47.83,0,0,1-3.52-8.92l-.09-.3c-.15-.53-.27-1-.37-1.59l-.65-3.44a26.7,26.7,0,0,1-.47-4.08l-.1-2.48a42.35,42.35,0,0,1,1.2-11.92l.2-.79c.34-1.39.73-2.77,1.16-4.13l1.66-5.2a67.16,67.16,0,0,1,7-15.09l.34-.54c1.13-1.82,2.34-3.58,3.62-5.3l2.66-3.59a62.7,62.7,0,0,1,7.08-8l5.15-4.92q2.74-2.61,5.73-5l9.33-7.28,13.31-9.62a78.85,78.85,0,0,1,7.11-4.57l19.11-10.87,15.78-8q3.56-1.8,7.26-3.26l22-8.59,22.46-8c1.45-.51,2.9-1,4.38-1.39L455.61,454c1.34-.37,2.7-.7,4.07-1l23.2-4.88c1.31-.28,2.63-.49,3.95-.64l27.5-3.12,23.44-1.62,19.77-1.3,27.11-2.16,13.39-.65.46-9.37c0-1.1.14-2.19.26-3.28l.35-3.12a12.22,12.22,0,0,1,1.11-3.92h0a11.24,11.24,0,0,1,2.26-3.21l1.12-1.12a22.76,22.76,0,0,1,1.7-1.56l1.1-.91a30.48,30.48,0,0,1,3.79-2.68l0,0a25.08,25.08,0,0,1,4.81-2.25l.42-.14a26.93,26.93,0,0,1,6.15-1.35h0c.85-.08,1.7-.12,2.56-.12h.61a26.21,26.21,0,0,1,5.65.61l1.64.36-1.58-4.34a46.83,46.83,0,0,1-1.68-5.68l-.31-1.32h0a25.34,25.34,0,0,1-.65-5.69v-1.33h0a27.36,27.36,0,0,1,1.77-6.9l.61-1.53,1.29-2.81a30.12,30.12,0,0,1,4.11-6.58h0l6.48-7.89,5.08-5.94-.79-2.75c-.2-.69-.37-1.38-.53-2.07L645,348,644,343.79l-2.27-.44-1.3,2.7-1.44,3.19c-.12.25-.25.5-.38.74l-2.42,4.32a9.62,9.62,0,0,1-.93,1.36l-.41.51a3.85,3.85,0,0,1-2.59,1.38h0a1.89,1.89,0,0,1-1.09-.22h0a2.78,2.78,0,0,1-1.07-1l-.19-.31a3.11,3.11,0,0,1-.44-1.4l-.22-3.06a11.69,11.69,0,0,1,0-1.45l.5-9.1.78-7.52c.06-.53.14-1.06.25-1.59l.62-2.82a9.56,9.56,0,0,1,1-2.58l.19-.35A4.21,4.21,0,0,1,634,324.5h0a4,4,0,0,1,2.52-.52l1.4.18a5.84,5.84,0,0,1,1.17.27l1.21.4a43.42,43.42,0,0,0,6.94,1.71l.62.09a36.51,36.51,0,0,0,5.11.48h0a8.17,8.17,0,0,0,3.55-.71h0a5.57,5.57,0,0,0,3-3.24l.81-2.27,2-1.59a42.19,42.19,0,0,0,4.5-4.06l4.71-4.92c.5-.51,1-1.05,1.43-1.6l4.39-5.33.08-.94a13.49,13.49,0,0,1,.61-3h0a1.36,1.36,0,0,1,1.23-.95h0a2.9,2.9,0,0,1,2.11.77l.51.47,1.86-1.72a5,5,0,0,1,2.19-1.19l1.91-.47a2.65,2.65,0,0,1,1.45.05l1.46.49a2.07,2.07,0,0,1,1.13.93l1.55,2.76c.29.51.57,1,.83,1.56l1.95,4c.31.64.64,1.26,1,1.87l1.55,2.71c.34.61.67,1.22,1,1.84l4.18,8.36,2.16,4a5.53,5.53,0,0,1,.64,2.14l.12,1.46.06,1.69a15.61,15.61,0,0,0,.32,2.64l.53,2.56a32.9,32.9,0,0,0,1,3.66l.23.69a15,15,0,0,0,3.17,5.36h0a2,2,0,0,1,.53,1.1l.38,2.45a2.3,2.3,0,0,1,0,.74l-.23,1.74a3.9,3.9,0,0,1-.88,2l-2.73,3.24-6.14,6.84a38.4,38.4,0,0,0-2.65,3.31l-5,7.09c-.64.89-1.3,1.75-2,2.59l-4.25,5.08a45.87,45.87,0,0,1-4.14,4.34l-2.6,2.4a24.58,24.58,0,0,0-5.44,7.27l-.44.9a4.67,4.67,0,0,0-.23,3.61l.33,1,2.54-.82a2.08,2.08,0,0,0,.85-.52l3.51-3.51c.66-.65,1.35-1.28,2.07-1.86l4.74-3.82a49.22,49.22,0,0,0,3.93-3.57l4-4.09c.83-.83,1.63-1.7,2.4-2.59l7.7-8.92,10.06-11.84c.64-.75,1.26-1.52,1.85-2.31L731,342.81l6.51-8.73c.49-.66,1-1.3,1.52-1.93l8.15-9.75c1-1.22,2-2.49,2.9-3.8l3.93-5.71-.11-4.75,0-1.58a48.36,48.36,0,0,1,.73-9.3v-.05a34.75,34.75,0,0,1,1.78-6.48l.7-1.85a30,30,0,0,1,1.91-4.11l3.41-6.09c.37-.67.77-1.31,1.18-1.95l5.75-8.66,4.43-6.48-9.72-4.21-3.27-1.61a40.34,40.34,0,0,1-5.92-3.55l-2.15-1.54-4.33,3-2,1.38a29.94,29.94,0,0,0-4.88,4.25l-1.64,1.78a36.49,36.49,0,0,0-2.69,3.27l-1.9,2.59a26.63,26.63,0,0,0-2.25,3.68L731,274.81a7.31,7.31,0,0,0-.6,1.72h0a27.6,27.6,0,0,0,.3,13h0l-1.8-3.38a15.62,15.62,0,0,1-1.46-4h0a21.24,21.24,0,0,1-.48-3.81l0-1.09a40.76,40.76,0,0,1,.23-6.05l.09-.87a18.33,18.33,0,0,1,.85-3.8h0a21.17,21.17,0,0,1,2.39-4.84l.92-1.37a23.67,23.67,0,0,1,1.77-2.35l1.71-2a24.71,24.71,0,0,1,3.66-3.5l2.53-2a24.74,24.74,0,0,1,2.71-1.83l5.07-3-2.8-2.39a11.36,11.36,0,0,1-2.65-3.28h0a3.16,3.16,0,0,1-.39-1.5h0a3.39,3.39,0,0,1,.48-1.73h0a14.85,14.85,0,0,1,3.13-3.71l4-3.38c.76-.65,1.5-1.32,2.21-2l4.23-4.14-5.84-3.74a51.35,51.35,0,0,1-7.63-6l-3.87-3.69c-1-.92-1.91-1.88-2.8-2.87l-2.11-2.35a19.52,19.52,0,0,1-3.55-5.68h0a7.08,7.08,0,0,1-.47-1.75l0-.32a3.73,3.73,0,0,1,.27-2l.18-.41a3,3,0,0,1,.42-.65l1.72-1.92c.48-.54,1-1.06,1.51-1.55l2.9-2.72c1-.93,2-1.83,3.09-2.69l7.5-6c.63-.51,1.28-1,1.94-1.46l9-6.43,8.75-6.7-6-4.6a34,34,0,0,1-4.49-4.16h0a10.08,10.08,0,0,1-1.45-2.1h0a6.17,6.17,0,0,1-.7-2.86V149.3a2.21,2.21,0,0,1,.11-.72h0a8.88,8.88,0,0,1,2.05-3.37l.87-.9c.71-.73,1.47-1.43,2.25-2.09l.82-.67a24.55,24.55,0,0,1,5.29-3.36l5.89-2.76,8.85-4.1,11-4.76,8.21-3.88-.78-2a26.08,26.08,0,0,1-1.27-4.49h0a45.4,45.4,0,0,1-.71-5.81l-.3-5.32a57.92,57.92,0,0,1,0-6.18l.5-10.2.86-18.58,2-23.54,1.18-16.64.91-9.39a57.31,57.31,0,0,1,1.34-7.91l.26-1.07a14.41,14.41,0,0,1,2.12-4.77h0a12.24,12.24,0,0,1,3.86-3.62l1.67-1a12.8,12.8,0,0,1,1.57-.79h0A17.8,17.8,0,0,1,820.31,0h.79c.78,0,1.57,0,2.35,0l2.14.11a39.23,39.23,0,0,1,6.48.84l3.92.83L842.2,3.2c1,.23,2.08.5,3.11.81l5.51,1.64c1.35.4,2.68.86,4,1.39l4.37,1.77a16.51,16.51,0,0,1,3.15,1.7h0a55.36,55.36,0,0,1,8.23,7l2.81,2.91,10.27,11.45,7,7.75q1.68,1.86,3.18,3.86l6,7.94,1.54-.9a50.88,50.88,0,0,1,9.23-4.2l.32-.1c.81-.28,1.64-.53,2.48-.75l5-1.3a35.17,35.17,0,0,1,5.75-1l1.69-.16a40.73,40.73,0,0,1,4.42-.18l3.87.05c1.13,0,2.25.07,3.37.16l4.89.41a46.39,46.39,0,0,1,5,.69l7.47,1.46,7,1.67a42.49,42.49,0,0,1,5,1.52l5.41,2,7.57,3.16,9.12-5.13,10.76-5.84,9.23-5.08a27,27,0,0,1,4-1.81l6.52-2.33,6.87-2.22a30.28,30.28,0,0,1,4.79-1.12l1.59-.23a27.78,27.78,0,0,1,3-.28l1.84-.06a28.07,28.07,0,0,1,4.94.26l2,.29a10.08,10.08,0,0,1,3.67,1.3h0a29.07,29.07,0,0,1,6.48,5.27h0A29.13,29.13,0,0,1,1057.8,41l1,1.61a29.29,29.29,0,0,1,2.81,5.8l2.2,6.18c.27.75.51,1.5.73,2.27l3,10.53,1,3.48a47.33,47.33,0,0,1,1.64,10.25v.26a47,47,0,0,1-.09,6l-.28,3.58a36.6,36.6,0,0,1-.73,5l-1.1,5.17q-.21,1-.48,1.92l-2.5,8.68,1.34,1.15a46.85,46.85,0,0,1,7.9,8.74l.92,1.31c.6.87,1.18,1.76,1.71,2.68l1.51,2.61a45.82,45.82,0,0,1,4,9.06l1.31,4.15c.44,1.38.81,2.78,1.12,4.2l1.22,5.67c.32,1.5.58,3,.77,4.52l1.34,10.45,1.7,22.5,1.43,15.53,5,8.28,4.28,6.75a32.39,32.39,0,0,1,1.71,3l1.3,2.66a19,19,0,0,1,1.61,4.81h0a26.15,26.15,0,0,1,.46,5.86l0,1a31,31,0,0,1-.36,3.72l-.84,5.32a36.58,36.58,0,0,1-1,4.64l-.45,1.55a37,37,0,0,1-2.14,5.59l-1.34,2.79c-.37.77-.77,1.53-1.2,2.27l-2.28,4a16.08,16.08,0,0,1-2.94,3.73h0a12.75,12.75,0,0,1-3,2.13l-2.31,1.16ZM999.19,65.69l10.35,7.11,12.65,7.79c1.23.76,2.43,1.57,3.59,2.42l8.16,6c1.5,1.11,3,2.15,4.62,3.15l5.66,3.55,4.59-12c.47-1.24,1-2.47,1.54-3.67l5.12-11.26-.17-1.26a16.11,16.11,0,0,0-1.51-5h0a52.09,52.09,0,0,0-4.52-7.56l-.83-1.16c-.57-.8-1.17-1.59-1.78-2.36l-2.37-3c-.91-1.13-1.88-2.22-2.89-3.27l-2-2a39.76,39.76,0,0,0-3.32-3h0a45.55,45.55,0,0,0-6.76-4.57l-.16-.09-4.53,3-5.57,4c-2.32,1.66-4.58,3.41-6.76,5.24l-6.56,5.53L995.31,63ZM831.77,91.3l10.3-6.24c1.24-.75,2.52-1.45,3.82-2.1l14-6.92,16-7.25,7.25-3.36-5.95-7L869.83,49q-1.19-1.53-2.46-3l-5.72-6.51q-1.54-1.74-3.21-3.38l-9.72-9.5-7-7.06c-1.22-1.24-2.51-2.42-3.84-3.53l-4.21-3.51v4.18a72.76,72.76,0,0,1-1.13,12.76l-.17.95q-.51,2.81-1.27,5.57L828,47.19l-2,7c-.54,1.87-1,3.76-1.42,5.67l-.78,3.72a63.47,63.47,0,0,0-1.13,7.87l-.58,7.22c-.18,2.28-.25,4.58-.21,6.87l.2,11.7ZM595.4,516.85l.6-11.69-8.72,3.94c-1.48.67-2.93,1.39-4.37,2.15L571,517.6l-12.14,7.19-11.16,7.08c-1.55,1-3.06,2-4.51,3.12l-7,5.29c-.88.67-1.73,1.36-2.57,2.07l-5.07,4.32c-1.88,1.6-3.68,3.29-5.41,5.05l-1.52,1.54A78.18,78.18,0,0,0,515,560.9l-1.33,1.78a46.72,46.72,0,0,0-4.21,6.72L508.15,572a59.78,59.78,0,0,0-3.31,7.72l-.67,1.93a48.71,48.71,0,0,0-2.08,8.15l-1,5.73,15.44-5.85,23.08-7.49,24-8.1,1-4.45a79.42,79.42,0,0,1,2.85-9.79l.43-1.18a73.39,73.39,0,0,1,3.7-8.49l3.65-7.08a73.19,73.19,0,0,1,3.77-6.47l2.37-3.64a76.85,76.85,0,0,1,11.33-13.6ZM598,489.09l.48-3.06a101.87,101.87,0,0,1,2.95-13l.14-.46-2.41-9.79c-.6-2.46-1.14-4.95-1.6-7.45l-.58-3.12-15.32,3.88c-1.83.47-3.68.88-5.54,1.25L559.5,460.6c-2.51.49-5,.91-7.58,1.23L530,464.65l-14.77,2.8-22.4,5.35-40,11.71-32.34,11.2L397,505q-4.74,1.89-9.35,4.06l-16.11,7.59a122.79,122.79,0,0,0-11.2,6l-11,6.63q-2.14,1.29-4.2,2.73l-12.85,9q-2.16,1.51-4.2,3.18l-3.2,2.6a90.6,90.6,0,0,0-17,18.29h0a25.47,25.47,0,0,0-2.76,5.11l-.33.82a57,57,0,0,0-3.88,16.42l-.08,1c-.15,1.82-.23,3.65-.23,5.48v1.18a36.54,36.54,0,0,0,1.61,10.74h0a35,35,0,0,0,3.26,7.45h0a85.15,85.15,0,0,0,9.3,12.94h0a23.68,23.68,0,0,0,3.58,3.35l13.06,10,14-6.36,16.13-6.63c1.63-.67,3.3-1.29,5-1.85l15-5,17-5c2.06-.6,4.15-1.12,6.25-1.57L419.78,610l19.35-3.56.58-1.58a91.89,91.89,0,0,1,7.42-15.5l.5-.82a90.52,90.52,0,0,1,7.75-11l5.78-7q1.9-2.31,4-4.48l7.51-7.89a108.67,108.67,0,0,1,11.68-10.6l4.8-3.75q3-2.33,6.09-4.45l9.79-6.67q3.88-2.65,8-5l22.4-13.14L570.75,500ZM288.84,674.17l-3.9.86a59.07,59.07,0,0,1-5.9,1l-4.3.51a44.46,44.46,0,0,1-4.9.32l-10.49.09,7.29,5.78,9.13,6.59,8.44-10.17Zm281.71,84.46A45.41,45.41,0,0,0,580,750l1.88-2.3,4.5-5.23a56.27,56.27,0,0,1,4-4.18l4.94-4.66-1.46-1.73a66.76,66.76,0,0,1-9.47-14.74l-.44-.94c-.59-1.25-1.12-2.53-1.6-3.83l-2.1-5.75a41.89,41.89,0,0,1-1.72-6.1l-1.37-6.77c-.23-1.14-.42-2.29-.55-3.45l-1-8.43-3.45,13.36c-.39,1.52-.73,3-1,4.6L570,706.21a58.2,58.2,0,0,0-.9,8.73l-.27,9.55.1,15c0,2.73.17,5.47.46,8.19l1.14,10.9ZM502,769.42l6.57-7.82c1.7-2,3.29-4.1,4.79-6.27l8.43-12.15,6.92-9.42.57-31.69q.06-3.18.34-6.35l1.76-19.61-2,2.42a83.58,83.58,0,0,1-10,10l-2.39,2c-1.81,1.54-3.71,3-5.67,4.36l-5.22,3.61-.16,21.52L506.4,737a54.12,54.12,0,0,1-.36,8l-.7,5.83c-.16,1.29-.36,2.58-.6,3.86Zm-10.91,48.52a137.66,137.66,0,0,0,26.24,3.92l5.47.28,6.38-5.42,9.68-8.13,6.77-5.61-1.17-1.28a39.66,39.66,0,0,1-5.61-7.81h0c-.64-1.17-1.23-2.36-1.76-3.58h0a56.3,56.3,0,0,1-3.3-9.81h0a42.94,42.94,0,0,1-.83-4.64l-.4-3.27c-.19-1.55-.3-3.1-.34-4.66l-.13-5L520.58,779.8q-2.48,3.63-5.29,7L504.9,799.25c-1.64,2-3.37,3.87-5.17,5.69l-12,12.17Zm-25.68-7.38,3.54-4.44,5.54-6.64-.88-14.41-2.22-12.63-1.18-6.91c-.39-2.33-.71-4.68-.95-7l-.53-5.33-3.35,7.65a95.15,95.15,0,0,0-4.7,13.41l-1.15,4.24A76,76,0,0,0,457.23,791l-1.39,14.48Zm-49-104.18a70.59,70.59,0,0,1,4.56-10.67l1.39-2.61,4.79-9.59L435.77,668l.92-15.29-16.44,6.85-21.91,10.5L380.77,679l6.61,4.34,5.43,3.87a109,109,0,0,1,10.94,8.93h0a66.35,66.35,0,0,1,8.37,9.43l3.11,4.24Zm2.52,88.75-2.65-8.2a117.29,117.29,0,0,1-3.76-14.9l-.6-3.24a94.47,94.47,0,0,1-1.54-18.24l.11-8.38.68-16-3.62-6.62a85.45,85.45,0,0,0-9.7-14.1l-3.57-4.22A120,120,0,0,0,384,690.59l-8.93-8.22-12.78,7.76h0a27.56,27.56,0,0,1-.64,5.87l-1,4.4h0a73.19,73.19,0,0,1,16.13,14.28l3.73,4.44,8.9,9.81,7.07,7.54-2.05,12.78-3.88,22.6L404.5,783ZM1719.52,392.29h0a18.36,18.36,0,0,1-5,3.08l-.4.17q-3.54,1.47-7.19,2.65l-5,1.6-10.5,10.26c-1,.94-1.9,1.9-2.81,2.89l-4.78,5.2a84.49,84.49,0,0,1-7.62,7.28l-3.89,3.27a67.89,67.89,0,0,1-9.14,6.46h0a56.79,56.79,0,0,1-9.64,4.51l-2,.7a63.08,63.08,0,0,1-9.56,2.59l-5.24,1q-4.61.87-9.28,1.31l-.78.08a45.39,45.39,0,0,0-12,2.83l-1.39.54-11.67,10-22.24,19.45L1565,490.52a130.35,130.35,0,0,0-18,18.76h0l12,4.17,19.17,6.39,5.28-7,16.4-16.12L1614,483q3.52-3.42,7.29-6.56l19.86-16.59,26.12-20.56,21.4-16.12,22.78-16.67,16.68-11.12ZM1541.9,571.35l8.26-10.62,9.2-11.56,10.85-14.4-9.33-3.54c-1.64-.63-3.31-1.2-5-1.71l-9-2.77-7.08-2.12-4,7.63q-1.92,3.69-3.56,7.52l-3.32,7.73-1.22,2.82a128.53,128.53,0,0,0-5.53,15.49l-.56,2ZM1483.7,563h0a27.21,27.21,0,0,1,2.56-11.54l1.82-3.9a42.45,42.45,0,0,1,2-3.83l4.64-7.72c.7-1.18,1.47-2.32,2.28-3.42l8.87-12-10.09,1.52-9.14,1q-3,.32-5.92.79l-10.92,1.79,1.5,4.69c.34,1.07.64,2.17.9,3.27l.59,2.55a67.46,67.46,0,0,1,1.61,11.4l.19,3.56,1,11.61Zm1.38,74.25a43.52,43.52,0,0,0,4.55-12l.82-3.69a72.52,72.52,0,0,0,1.46-9.84l.37-4.61-7.57-4.54.25,11.85,0,1.61a134.2,134.2,0,0,1-.92,18.91l-.63,5.21Zm-22.31,10.24,2.52-14.38,1.66-11.78q.6-4.35.84-8.75l.53-10.24-9.85-.37c-2.18-.09-4.36-.23-6.53-.44h0a82.17,82.17,0,0,1-19.21-4.22l-6.54-2.28,8.83,9.08,6.45,7a90.83,90.83,0,0,1,6.36,7.63l5.65,7.58c1.15,1.54,2.23,3.11,3.26,4.73h0a44.74,44.74,0,0,1,3.45,6.53h0a21.35,21.35,0,0,1,1.25,3.9Zm-1.77,24-6.3-8.57-1.45-2a76.22,76.22,0,0,0-11.07-12.39l-.72-.65a43.48,43.48,0,0,0-6.81-5L1430,640q-3.53-2.1-7.24-3.84l-8.14-3.81,1,1.59a58.71,58.71,0,0,1,7.14,16.06h0a14.67,14.67,0,0,1,.51,3.09l.1,1.86a68.42,68.42,0,0,1-.31,11.27h0a49.31,49.31,0,0,1-1.26,6.82l-2.66,10.26,14.89-8.51c.67-.38,1.35-.74,2-1.08l6-2.9a6.93,6.93,0,0,1,3.83-.64l2.72.32c2.56.3,5.13.52,7.71.68Zm-5.8-126.61-.31-1.09a37,37,0,0,0-6.25-12.28h0l-12.1,2.27,3.91,2.08q4.15,2.21,8.11,4.75Zm-4.79,13.62-6.46-4.85c-1.75-1.31-3.53-2.56-5.36-3.76l-8.36-5.52-7.82-5.29-.31.06a97,97,0,0,1-21.29,2l-6.39-.1h-15.14l2.09.87a130.5,130.5,0,0,0,14.28,5l8.6,2.46,12.07,3.54c1.71.5,3.42.95,5.15,1.36l7.31,1.71a82.68,82.68,0,0,0,14.69,2.1Zm-31.72-54.68-14.63-7.73-13-6.2a88.93,88.93,0,0,0-12.52-4.88l-16.19-4.93-7.86-2.1a90.64,90.64,0,0,0-17.7-2.87l-4.53-.28,7.6,6.52a43.23,43.23,0,0,1,3.89,3.77l6.73,7.38,6.9,8.28,10.33,1.53q6.51,1,13.07,1.33l7.22.41q5.54.31,11.09.2Z"/></g></g></svg>