<svg xmlns="http://www.w3.org/2000/svg" viewBox="0 0 591.94 80.22"><title>アセット 3</title><g id="レイヤー_2" data-name="レイヤー 2"><g id="レイヤー_2-2" data-name="レイヤー 2"><path d="M0,0H14.55Q29.1,0,34.25,1.12a13.53,13.53,0,0,1,8.4,5.74q3.26,4.62,3.25,14.72,0,9.23-2.3,12.4t-9,3.81q6.1,1.51,8.2,4.06a12.18,12.18,0,0,1,2.62,4.66q.51,2.12.51,11.69V79.05H26.81V52.78c0-4.23-.34-6.85-1-7.86s-2.42-1.51-5.25-1.51V79.05H0ZM20.56,13.53V31.1c2.31,0,3.93-.31,4.86-1s1.39-2.69,1.39-6.18V19.63q0-3.76-1.35-4.93C24.57,13.92,22.93,13.53,20.56,13.53Z"/><path d="M98,47.8H72.41v14c0,2.93.21,4.81.64,5.66a2.45,2.45,0,0,0,2.44,1.27,3,3,0,0,0,3-1.68q.77-1.69.76-6.52V52H98v4.79A42.52,42.52,0,0,1,97.19,66a18.68,18.68,0,0,1-3.54,6.88,17.24,17.24,0,0,1-7.05,5.49,27.33,27.33,0,0,1-10.72,1.83,31.25,31.25,0,0,1-11-1.8A17.19,17.19,0,0,1,53.71,66.53a45,45,0,0,1-1-11V36.62q0-8.49,2.29-13.4A15.78,15.78,0,0,1,62.5,15.7a26.53,26.53,0,0,1,12-2.61q8.31,0,13.7,3.15a17.34,17.34,0,0,1,7.57,8.34Q97.94,29.79,98,39.21ZM78.17,37.26V32.52A24.27,24.27,0,0,0,77.64,26a2.13,2.13,0,0,0-2.2-1.47c-1.37,0-2.21.42-2.54,1.25s-.49,3.06-.49,6.71v4.74Z"/><path d="M124.71,0V10.3H104.39V0Zm0,14.26V79.05H104.39V14.26Z"/><path d="M151.27,14.26l-.34,6.16a15.9,15.9,0,0,1,5.47-5.5,14.17,14.17,0,0,1,7.22-1.83q7.92,0,12.45,7.33a17.85,17.85,0,0,1,5.62-5.5,13.44,13.44,0,0,1,6.93-1.83A13.6,13.6,0,0,1,197,15.53a10.74,10.74,0,0,1,4.22,6q.93,3.54.93,11.5v46H183V36.82c0-5.54-.19-9-.56-10.28a2.48,2.48,0,0,0-2.61-2,2.57,2.57,0,0,0-2.71,2c-.41,1.31-.62,4.74-.62,10.31V79.05H157.32V37.89q0-9.53-.46-11.43a2.35,2.35,0,0,0-2.56-1.9,3,3,0,0,0-2.25,1A3.83,3.83,0,0,0,151,28c-.07,1-.1,3-.1,6.13V79.05H131.79V14.26Z"/><path d="M254.05,14.26V79.05H234l.35-5.38a13.9,13.9,0,0,1-5.06,4.92,14.2,14.2,0,0,1-6.91,1.63A15.56,15.56,0,0,1,215,78.66a10.15,10.15,0,0,1-4.32-4.15,14.93,14.93,0,0,1-1.73-5.39c-.23-1.88-.35-5.59-.35-11.16V14.26h19.73V58.35q0,7.57.46,9c.31,1,1.15,1.42,2.52,1.42s2.33-.49,2.61-1.46.42-4.12.42-9.43V14.26Z"/><path d="M326.61,0V79.05H306.05V45.85H299.9v33.2H279.35V0H299.9V28.27h6.15V0Z"/><path d="M351.9,39.36H333.4V35q0-7.51,1.73-11.6c1.16-2.71,3.48-5.12,7-7.2s8-3.12,13.57-3.12q10,0,15.09,3.54a13.8,13.8,0,0,1,6.11,8.69q1,5.15,1,21.21V79.05H358.69V73.28a12,12,0,0,1-11.47,6.94,16.64,16.64,0,0,1-9.5-2.9q-4.32-2.91-4.32-12.72V59.28q0-7.28,2.29-9.91t11.38-6.16q9.72-3.81,10.4-5.12c.46-.88.68-2.67.68-5.38,0-3.38-.25-5.59-.75-6.61a2.61,2.61,0,0,0-2.52-1.54q-2,0-2.49,1.29c-.32.87-.49,3.11-.49,6.72Zm6.25,8.88q-4.72,3.46-5.49,5.81a23.26,23.26,0,0,0-.76,6.74q0,5,.66,6.5a2.59,2.59,0,0,0,2.62,1.46,2.4,2.4,0,0,0,2.41-1.15c.38-.76.56-2.77.56-6Z"/><path d="M427.15,14.26l-8,25.8,10.4,39h-19l-6.15-28.24,0,28.24H384.67V0h19.72l0,33.19,6.15-18.93Z"/><path d="M477.64,14.26V79.05H457.57l.34-5.38a13.87,13.87,0,0,1-5.05,4.92A14.25,14.25,0,0,1,446,80.22a15.61,15.61,0,0,1-7.38-1.56,10.15,10.15,0,0,1-4.32-4.15,15.33,15.33,0,0,1-1.73-5.39c-.23-1.88-.34-5.59-.34-11.16V14.26H451.9V58.35q0,7.57.47,9c.31,1,1.15,1.42,2.51,1.42s2.34-.49,2.62-1.46.41-4.12.41-9.43V14.26Z"/><path d="M504.44,14.26l-.78,8.52q4.3-9.15,12.45-9.69v22.8q-5.42,0-8,1.46A6.16,6.16,0,0,0,505,41.43q-.58,2.61-.59,12V79.05H484.72V14.26Z"/><path d="M565.19,47.8H539.65v14c0,2.93.21,4.81.63,5.66a2.47,2.47,0,0,0,2.44,1.27,3,3,0,0,0,3-1.68q.75-1.69.75-6.52V52h18.71v4.79a43.17,43.17,0,0,1-.76,9.23,19,19,0,0,1-3.54,6.88,17.27,17.27,0,0,1-7.06,5.49,27.31,27.31,0,0,1-10.71,1.83,31.25,31.25,0,0,1-11-1.8A17.13,17.13,0,0,1,521,66.53a44.37,44.37,0,0,1-1-11V36.62q0-8.49,2.3-13.4a15.73,15.73,0,0,1,7.52-7.52,26.5,26.5,0,0,1,12-2.61q8.29,0,13.69,3.15A17.29,17.29,0,0,1,563,24.58q2.18,5.21,2.18,14.63ZM545.41,37.26V32.52c0-3.35-.18-5.52-.54-6.49a2.12,2.12,0,0,0-2.19-1.47c-1.37,0-2.22.42-2.54,1.25s-.49,3.06-.49,6.71v4.74Z"/><path d="M591.94,0V10.3H571.63V0Zm0,14.26V79.05H571.63V14.26Z"/></g></g></svg>