<svg xmlns="http://www.w3.org/2000/svg" viewBox="0 0 281.85 60.02"><defs><style>.cls-1{fill:none;stroke:#fff;stroke-miterlimit:10;opacity:0.3;}.cls-2{fill:#fff;}.cls-3{fill:#dd5f45;}</style></defs><title>アセット 10</title><g id="レイヤー_2" data-name="レイヤー 2"><g id="レイヤー_1-2" data-name="レイヤー 1"><g id="ロゴ"><path id="ライン" class="cls-1" d="M18.38,7.29C31.54-19.39,265,83.26,258.29,52.65"/><g id="ひまわり鎮痛剤"><path class="cls-2" d="M28.11,24.37,26,23.92c-.08,4.33-.93,7.57-2.58,9.74a8.66,8.66,0,0,1-7.12,3.2,10.88,10.88,0,0,1-7-2.2A7.84,7.84,0,0,1,6.18,28c0-2.69.86-6,2.61-10.07l-5.41.9a5.63,5.63,0,0,1-.45-2.17,17.85,17.85,0,0,1,4.29-1.27,22.93,22.93,0,0,1,4.55-.56c.67,0,1,.15,1,.38a19.39,19.39,0,0,1-1.08,2.61c-2,4.36-3,7.79-3,10.33A5.56,5.56,0,0,0,11,33.06a9,9,0,0,0,5.33,1.38q7.5,0,7.5-12.9c0-.08.26-.15.82-.15a21.89,21.89,0,0,1,3.72.74A5.89,5.89,0,0,1,28.11,24.37Z"/><path class="cls-2" d="M61.92,25.19l-6,.26q.34,3.14.45,6c2.69.71,4.48,1.2,5.33,1.5a3.84,3.84,0,0,1-.56,2L56.4,34a5.08,5.08,0,0,1-1.19,3.46,4.24,4.24,0,0,1-3.36,1.42,7.84,7.84,0,0,1-4.06-1A3.73,3.73,0,0,1,45.7,34.4c0-2.27,1.94-3.43,5.89-3.43.6,0,1.23,0,1.91.08A34.26,34.26,0,0,0,53,25.56l-8.87-.07A3.06,3.06,0,0,1,44,24.41a3.79,3.79,0,0,1,.11-1.08l8.69-.23L52,17.58l-8,.08a9,9,0,0,1-.15-2.09c2.69-.19,5.33-.3,7.87-.37l-.19-1.9a4.46,4.46,0,0,1,1.72-.41c.07,0,.26,0,.52,0,.15.75.3,1.49.45,2.17h6.45a5.63,5.63,0,0,1,.19,1.49c0,.22,0,.45,0,.59a59.82,59.82,0,0,1-6.15.41L55.51,23l6.38.15a4.3,4.3,0,0,1,.15,1A4.83,4.83,0,0,1,61.92,25.19ZM50.55,33.32c-1.49,0-2.2.49-2.2,1.46,0,1.19,1.08,1.75,3.32,1.75,1.19,0,1.86-1,2-3A22.87,22.87,0,0,0,50.55,33.32Z"/><path class="cls-2" d="M98.8,38a4.1,4.1,0,0,1-1.72-1.12c1.12-2.09,1.94-3.69,2.39-4.81a14.34,14.34,0,0,0,1.16-5.18c0-2.61-1.68-3.92-5-3.92a15,15,0,0,0-10,3.43l0,11.56c-.07.12-.44.19-1.15.19a1.54,1.54,0,0,1-1-.19l-.38-9.62-3.35,3.36a3.6,3.6,0,0,1-1.53-1.31c2.24-3.06,3.91-5.33,5-6.9l0-2.46c-2.61-.33-4.48-.59-5.67-.82a3.42,3.42,0,0,1-.11-1.12,3.14,3.14,0,0,1,.14-1c1.2,0,3.06.15,5.64.41l.26-5.41a4.2,4.2,0,0,1,1-.11,2.82,2.82,0,0,1,1,.11l0,5.71a15.53,15.53,0,0,1,3.62.74,30.89,30.89,0,0,1-2.16,3.17,16.39,16.39,0,0,1,8.31-2.12,8.89,8.89,0,0,1,5.3,1.45A5.58,5.58,0,0,1,103,26.83C103,29.78,101.56,33.51,98.8,38Z"/><path class="cls-2" d="M123.18,27.32a16.1,16.1,0,0,1-5.67-1.2,9,9,0,0,1-.15-2.05,61,61,0,0,1,1-10.21c.15,0,.34,0,.64,0a5.61,5.61,0,0,1,1.64.33c-.49,4.81-.71,8-.71,9.55a4,4,0,0,0,0,.82c.71.15,1.86.41,3.43.78,0,.08,0,.23,0,.45A4.61,4.61,0,0,1,123.18,27.32Zm10.15,12c-.23,0-.38,0-.49,0a4.94,4.94,0,0,1-1.94-.6q1.57-10.18,2.54-22.26a6,6,0,0,1,1.08-.08,3.52,3.52,0,0,1,1.19.19A122.08,122.08,0,0,1,133.33,39.29Z"/><g id="鎮"><rect class="cls-2" x="146.75" y="5.74" width="39.25" height="39.25" rx="6.04" ry="6.04"/><path class="cls-3" d="M152.64,20.41a8,8,0,0,1-1.1-2A108,108,0,0,1,161.64,14a5.07,5.07,0,0,1,1.07,1.89c-.38.21-.73.35-1,.48,1.1,1.1,2.09,2.2,3.06,3.3a3.85,3.85,0,0,1-1.72,1.27,30.82,30.82,0,0,1-3.51-3.54C157.24,18.45,154.94,19.48,152.64,20.41ZM156.32,32a4.43,4.43,0,0,1-1.14,1.54,13.21,13.21,0,0,1-3.05-2.2,6.67,6.67,0,0,1,1-1.54A14.3,14.3,0,0,1,156.32,32Zm6.25,3.16a3.68,3.68,0,0,1-.11.92,46.38,46.38,0,0,1-7.59.93,3.74,3.74,0,0,1-.48-2.09c1-.14,2-.28,3-.38-.13-1.55-.17-3.2-.17-5v-1a30.66,30.66,0,0,1-4.29-.24,3.09,3.09,0,0,1-.14-1,3.91,3.91,0,0,1,.07-.93c1.24,0,2.71-.07,4.43-.07,0-.82,0-1.65.1-2.47a25.75,25.75,0,0,1-3.22-.41v-1.1a5.17,5.17,0,0,1,.06-.93,66.27,66.27,0,0,1,7.87.58,11.48,11.48,0,0,1-.21,2.1,20.75,20.75,0,0,1-2.12-.07c0,.83,0,1.62.06,2.3,1.58,0,2.72.07,3.4.14a5.76,5.76,0,0,1,.07.86v1a11.33,11.33,0,0,1-3.4.27v.76c0,1.85-.07,3.5-.2,5,1-.07,1.85-.11,2.74-.11A3.76,3.76,0,0,1,162.57,35.15ZM164.08,30a8.38,8.38,0,0,1-1,3.37,5.31,5.31,0,0,1-1.93-.52,11.5,11.5,0,0,1,1-3.5A15.86,15.86,0,0,1,164.08,30Zm8.86-8a3.62,3.62,0,0,1,.1.89,5.85,5.85,0,0,1-.07.89h-4.12c0,.52,0,1,0,1.48.34,0,.72,0,1.17,0a18.26,18.26,0,0,1,2.81.18,3.46,3.46,0,0,1,.1.89,6.67,6.67,0,0,1-.06.86c-.62.07-1.58.07-3,.07a7.81,7.81,0,0,1-1,0v1.34h1c1.3,0,2.3.07,3.05.14a3.71,3.71,0,0,1,.11.93,7.68,7.68,0,0,1-.07.86c-.65.06-1.72.06-3.2.06h-.89c0,.52,0,1,0,1.45h1.71c2.06,0,3.85,0,5.36,0,0-4.46,0-8.1.07-10.92a19.17,19.17,0,0,1-2.58-.17,25.59,25.59,0,0,1-2.61-.21,16.29,16.29,0,0,1,.11-2q3.66.11,7.62.41v7.35c-.07,2.65-.17,4.5-.24,5.53,1,0,1.75.07,2.37.07a5.76,5.76,0,0,1,.07.86v1c-.76.21-3.92.31-9.51.31a40.68,40.68,0,0,1-1.62,4.57,3.72,3.72,0,0,1-2-.48A22.17,22.17,0,0,1,169,34.15a32.68,32.68,0,0,1-4.06-.24,3.11,3.11,0,0,1-.13-1,4.54,4.54,0,0,1,.06-.93c.62,0,1.24,0,1.93,0-.21-4.3-.31-8.56-.31-12.81a3.25,3.25,0,0,1,1.1-.31,2.78,2.78,0,0,1,1.13.17c0,1,.07,1.85.1,2.75h1A17.82,17.82,0,0,1,172.94,22Zm-1.17-7.84a19.63,19.63,0,0,1,.9-2.23,9.62,9.62,0,0,1,2.09.55c-.14.69-.31,1.31-.45,1.89,1.82.14,3.65.31,5.43.52a8.09,8.09,0,0,1-.2,1.78c-2,0-3.92,0-5.84-.17-.21.58-.38,1.13-.55,1.65l-1.41-.21a2.87,2.87,0,0,1-.93-.34c.07-.41.17-.86.28-1.27-2-.14-3.92-.34-5.84-.62a8.22,8.22,0,0,1,.17-1.85C167.55,13.88,169.64,14,171.77,14.12Zm7.35,22.81A4.88,4.88,0,0,1,178,38.55a17.7,17.7,0,0,1-3.64-2.17,8.79,8.79,0,0,1,1-1.58A18,18,0,0,1,179.12,36.93Z"/></g><g id="痛"><rect class="cls-2" x="193.41" y="5.76" width="39.25" height="39.25" rx="6.04" ry="6.04"/><path class="cls-3" d="M205.86,18.6c-.51,5.7-1.27,11.3-2.26,16.87-.76-.07-1.51-.18-2.2-.28.14-1.47.31-2.95.48-4.43a10.72,10.72,0,0,1-3.23-.45,6.62,6.62,0,0,1,.24-1.78,28.15,28.15,0,0,1,3.27.24c.13-1.38.3-2.75.51-4.12-1.13.1-2.23.13-3.26.13a9.06,9.06,0,0,1-.21-2c1.24-.1,2.47-.2,3.78-.27.21-1.38.41-2.72.65-4.09C204.46,18.5,205.18,18.53,205.86,18.6Zm7-4.36a18.54,18.54,0,0,1,.28-2.92c.34,0,.79-.07,1.27-.07a5,5,0,0,1,1.2.17c0,.9-.07,1.86-.14,2.89,3,.1,6.05.24,9,.38a12.53,12.53,0,0,1-.21,2.3c-7.35,0-14.56-.17-21.57-.55A8.12,8.12,0,0,1,203,14.1C206.31,14.1,209.61,14.17,212.87,14.24Zm-1.68,11.27c.2,4,.31,8.41.31,13.15a4.54,4.54,0,0,1-1.1.14,7.34,7.34,0,0,1-1.14-.07c-.13-4.74-.2-9.1-.2-13.16a4.43,4.43,0,0,1,1.1-.2A3.69,3.69,0,0,1,211.19,25.51Zm9-6.94c-.1.75-.24,1.51-.38,2.26a9.94,9.94,0,0,1-.27,1.24l1.1.21a5.54,5.54,0,0,1-.48,1.92,30.83,30.83,0,0,1-6-.79,5.71,5.71,0,0,1,.52-2c.89.1,1.75.2,2.64.34.1-.48.21-.93.31-1.41-2.37-.2-4.6-.48-6.73-.75a11.09,11.09,0,0,1,.55-2C214.66,18,217.54,18.26,220.22,18.57Zm-4.53,11.19c0-.54,0-1.13,0-1.71a13.52,13.52,0,0,1,2.1-.17c.07.68.1,1.3.17,1.88,1.1,0,2.06,0,2.82,0a3.73,3.73,0,0,1,.13.93,6.67,6.67,0,0,1-.06.86,24.58,24.58,0,0,1-2.75.2,13.24,13.24,0,0,0,.1,1.69l3.44-.21a17.71,17.71,0,0,1,.13,1.82c-1.23.17-2.4.31-3.5.38,0,.58,0,1.17,0,1.72a5.07,5.07,0,0,1-1.92.27c-.1-.62-.21-1.24-.27-1.85-1.31.06-2.61.1-3.85.1a7.08,7.08,0,0,1-.17-1.75c1.23-.14,2.5-.24,3.81-.35a14.55,14.55,0,0,1-.1-1.75h-.93a11,11,0,0,1-2.2-.14,1.48,1.48,0,0,1-.17-.85,3.73,3.73,0,0,1,.1-.93,15.67,15.67,0,0,1,2.37-.11Zm9.24-4.56c.1,1.61.17,3.43.17,5.42v8.07a16.26,16.26,0,0,1-2.23.11,19.64,19.64,0,0,1-2.2-.11,2.6,2.6,0,0,1-.14-.89v-.68a15.27,15.27,0,0,1,2.23-.14c0-2.89-.07-6.18-.2-9.89-3.37.13-6.6.24-9.62.3a2.53,2.53,0,0,1-.14-.85,2.71,2.71,0,0,1,.14-.86,26.81,26.81,0,0,1,7.21-.69C221.53,25,223.14,25.06,224.93,25.2Z"/></g><g id="鎮-2" data-name="鎮"><rect class="cls-2" x="240.1" y="6.04" width="39.25" height="39.25" rx="6.04" ry="6.04" transform="translate(10.84 -52.91) rotate(11.88)"/><path class="cls-3" d="M259.06,20c-.86.5-1.72,1-2.6,1.44,2.07,1.12,4.12,2.16,6.2,3.22a4.66,4.66,0,0,1-.85,1.81,60.12,60.12,0,0,1-8.27-3.53c-2.16,1-4.36,2-6.65,2.91a5.32,5.32,0,0,1-1.18-2c1.68-.87,3.36-1.68,5-2.46-1.06-.6-2.1-1.27-3.08-1.92a11.3,11.3,0,0,1,1.24-2.11q2.37,1.35,4.81,2.62c1.43-.66,2.77-1.26,4.1-1.83A14.37,14.37,0,0,1,259.06,20ZM251,26.42l-.27,1.14c.21.05.41.06.61.11a39.47,39.47,0,0,1,4.4,1.28,2.74,2.74,0,0,1-.11.89,2.54,2.54,0,0,1-.31.88,26.1,26.1,0,0,1-4.49-.88l-.63-.15c-.14.57-.3,1.13-.44,1.7,2.62.4,5.09.88,7.37,1.38.17-1.76.4-3.51.74-5.26.67,0,1.39.08,2.22.17A88.1,88.1,0,0,1,259,38.33l-1.15-.06a9.3,9.3,0,0,1-1.12-.19c0-1.16.08-2.28.2-3.38-1.72-.19-4.27-.58-7.72-1.21-.19.8-.42,1.63-.63,2.5a5.63,5.63,0,0,1-1.23-.15,1.78,1.78,0,0,1-1-.53c1-4.21,1.77-7.38,2.39-9.56a10.79,10.79,0,0,1,1.18.2A3.43,3.43,0,0,1,251,26.42Zm6.47-11.74c2.44.71,4.87,1.49,7.23,2.26a9.73,9.73,0,0,1-.69,1.88q-7.63-1.79-14.9-4.17a8.85,8.85,0,0,1,.74-2.08c1.79.45,3.55.94,5.34,1.43a20.73,20.73,0,0,1,.44-2.79,13,13,0,0,1,2.39.35C257.79,12.65,257.58,13.69,257.42,14.68Zm8.69,14.81a4.57,4.57,0,0,1-2.26-.14,30.39,30.39,0,0,1,.9-6.71,14.4,14.4,0,0,1,2.33.3A56.55,56.55,0,0,1,266.11,29.49Zm4,7.11a15.68,15.68,0,0,1-4.41-.61,7.37,7.37,0,0,1,.22-2c.6.14,1.21.24,1.89.37.77-4.65,1.53-9.2,2.25-13.66.67,0,1.43.09,2.32.2A136.32,136.32,0,0,1,270.08,36.6Z"/></g></g><g id="星_-_上" data-name="星 - 上"><path class="cls-2" d="M5.48,8.48h0A4.42,4.42,0,0,0,0,5.48H0A4.43,4.43,0,0,0,3,0H3A4.42,4.42,0,0,0,8.48,3h0a4.41,4.41,0,0,0-3,5.48Z"/><path class="cls-2" d="M12.38,8.41h0a3.26,3.26,0,0,0-3-3.49h0a3.29,3.29,0,0,0,3.5-3h0a3.26,3.26,0,0,0,3,3.49h0a3.29,3.29,0,0,0-3.5,3Z"/><path class="cls-2" d="M17.67,9.51h0a2.33,2.33,0,0,0-1.51-2.93h0a2.33,2.33,0,0,0,2.93-1.5h0A2.32,2.32,0,0,0,20.59,8h0a2.32,2.32,0,0,0-2.92,1.51Z"/></g><g id="星_-_上-2" data-name="星 - 上"><path class="cls-2" d="M271.19,51.53h0a4.42,4.42,0,0,0,5.46,3h0a4.42,4.42,0,0,0-3,5.47h0a4.42,4.42,0,0,0-5.47-3h0a4.41,4.41,0,0,0,3-5.46Z"/><path class="cls-2" d="M264.29,51.56h0a3.28,3.28,0,0,0,3,3.51h0a3.27,3.27,0,0,0-3.51,3h0a3.28,3.28,0,0,0-3-3.51h0a3.28,3.28,0,0,0,3.51-3Z"/><path class="cls-2" d="M259,50.44h0a2.32,2.32,0,0,0,1.49,2.93h0a2.33,2.33,0,0,0-2.94,1.49h0a2.31,2.31,0,0,0-1.48-2.93h0A2.33,2.33,0,0,0,259,50.44Z"/></g></g></g></g></svg>