<svg xmlns="http://www.w3.org/2000/svg" viewBox="0 0 862.79 77.6"><defs><style>.cls-1{fill:#fff;}</style></defs><title>アセット 2</title><g id="レイヤー_2" data-name="レイヤー 2"><g id="レイヤー_2-2" data-name="レイヤー 2"><path class="cls-1" d="M38.2,77.5C10.8,77.5,0,56.2,0,39.6,0,17.7,15.4,0,38.7,0A37.38,37.38,0,0,1,55.6,3.8c.5-2,2.8-3.1,5.1-3.1,2.8,0,5.6,1.6,5.6,4.8v.3c-.1,2.1-.2,4.4-.2,6.7,0,2.7.1,5.3.2,7.3v.4c0,3.5-2.8,5.2-5.5,5.2A5.11,5.11,0,0,1,55.4,21c-.4-3.7-5.6-10.4-17.6-10.4-17.7,0-26.4,14.8-26.4,28.2,0,11.4,7.2,27.6,26.5,27.6,7.6,0,15.2-2.9,19.4-8.5A5.88,5.88,0,0,1,62,55.3c3.4,0,6.6,3,6.6,6.3C68.6,66.7,56.3,77.5,38.2,77.5Z"/><path class="cls-1" d="M100.9,77.5a30.13,30.13,0,0,1-13.7-3,1.9,1.9,0,0,0-.9-.3c-.4,0-.7.3-1,.7a5.56,5.56,0,0,1-4.4,2c-2.7,0-5.3-1.7-5.3-4.9v-.4c.1-1.7.2-3.8.2-5.9,0-2.6-.1-5.4-.2-7.5V58c0-3.3,2.7-4.8,5.4-4.8s5.3,1.6,5.3,4.7v.8c0,5.7,8.5,8.4,14.4,8.4,10.2,0,13.8-6.5,13.8-11,0-4-2.4-8.3-7.7-11.3-4.4-2.5-10-5.6-15.3-8-8.8-4-12.8-11.1-12.8-18C78.7,9.2,86.6,0,100.3,0a26.06,26.06,0,0,1,11.1,2.4,1.48,1.48,0,0,0,.7.1,1.4,1.4,0,0,0,.9-.3A5.89,5.89,0,0,1,117.3.6c2.7,0,5.4,1.4,5.4,4.2v.3c-.1,1.9-.2,3.8-.2,5.8,0,2.3.1,4.5.2,6.3.2,3.8-3.6,4.8-5.4,4.8-2.6,0-5.3-1.5-5.3-4.4v-.4c0-.4.1-.8.1-1.1,0-2.9-4.6-6.3-11.9-6.3-6.6,0-10.6,4.1-10.6,8.7,0,3.3,2,6.7,6.5,9.1,4.2,2.2,11,5.3,15.7,7.8,10,5.4,14.2,13.1,14.2,20.4C126,67.2,115.7,77.5,100.9,77.5Z"/><path class="cls-1" d="M159.4,77.5a30.13,30.13,0,0,1-13.7-3,1.9,1.9,0,0,0-.9-.3c-.4,0-.7.3-1,.7a5.56,5.56,0,0,1-4.4,2c-2.7,0-5.3-1.7-5.3-4.9v-.4c.1-1.7.2-3.8.2-5.9,0-2.6-.1-5.4-.2-7.5V58c0-3.3,2.7-4.8,5.4-4.8s5.3,1.6,5.3,4.7v.8c0,5.7,8.5,8.4,14.4,8.4,10.2,0,13.8-6.5,13.8-11,0-4-2.4-8.3-7.7-11.3-4.4-2.5-10-5.6-15.3-8-8.8-4-12.8-11.1-12.8-18,0-9.6,7.9-18.8,21.6-18.8a26.06,26.06,0,0,1,11.1,2.4,1.48,1.48,0,0,0,.7.1,1.4,1.4,0,0,0,.9-.3A5.89,5.89,0,0,1,175.8.6c2.7,0,5.4,1.4,5.4,4.2v.3c-.1,1.9-.2,3.8-.2,5.8,0,2.3.1,4.5.2,6.3.2,3.8-3.6,4.8-5.4,4.8-2.6,0-5.3-1.5-5.3-4.4v-.4c0-.4.1-.8.1-1.1,0-2.9-4.6-6.3-11.9-6.3-6.6,0-10.6,4.1-10.6,8.7,0,3.3,2,6.7,6.5,9.1,4.2,2.2,11,5.3,15.7,7.8,10,5.4,14.2,13.1,14.2,20.4C184.5,67.2,174.2,77.5,159.4,77.5Z"/><path class="cls-1" d="M271.3,66.3a1.56,1.56,0,0,0,1.5-1.6c0-.2-2.6-8.8-3.8-12.4a1.7,1.7,0,0,0-1.6-1.4H244.5c-1.3.2-1.7.4-2.1,1.7-1,3.4-3.4,11.7-3.4,11.7a2.29,2.29,0,0,0,2.3,2c3.4-.1,6,1.7,6,5.1,0,2.5-1.8,5-5.5,5h-.4c-2.5-.1-5.1-.2-7.7-.2-3.2,0-6.1.1-8.5.2h-.4a5.1,5.1,0,0,1-5.5-5.1c0-2.5,1.8-5,5.4-5h.5c1.6,0,2.6-1.7,3-3,5.8-18.1,15.1-44.2,19.1-56,1.5-4.5,4.8-6.6,8.2-6.6s7.2,2.4,8.7,6.9c5.3,15.2,15.1,42.8,20,55.7.3.9,1.6,3,3.2,3,4.7-.1,5.9,3.4,5.9,5.1,0,2.5-1.9,5-5.6,5h-.4c-2.5-.1-5.1-.2-7.7-.2-3.2,0-6.1.1-8.5.2-3,.1-5.8-1.7-5.8-5a5.07,5.07,0,0,1,5.4-5.1h.6Zm-7.1-25c.6-.1.9-.2.9-.5,0-.7-6.9-21.8-7.7-24.3-.6-1.8-1.1-2.6-1.6-2.6s-1.1,1-1.8,3c-2.3,6.2-7.6,23.8-7.6,23.8,0,.3.2.4,1,.6Z"/><path class="cls-1" d="M349.9,72c-7-11.2-25.8-45.6-31.2-54.7-.8-1.4-1.4-2-1.8-2-.8,0-.8,2.3-.8,5.2,0,7.9.2,29.6.5,42.9a2.19,2.19,0,0,0,2.4,2.5h.2c4,0,5.9,2.6,5.9,5.2s-2,5.2-5.7,5.2H319c-2.6-.1-5.2-.2-7.8-.2-3.1,0-6.1.1-8.5.2a5.43,5.43,0,0,1-6-5.2,5.18,5.18,0,0,1,5.5-5.2h.5c.3,0,.7.1,1,.1,1.1,0,2-.4,2-2.3.1-8.3.2-17.1.2-25.7s-.1-16.7-.2-23.8c0-2.1-.1-2.6-1.9-2.6s-6.6-.2-6.6-5.3A5.2,5.2,0,0,1,302.7,1h.5c1.3.1,2.4.1,3.3.1,1.9,0,3.1-.1,4.5-.1a16.53,16.53,0,0,1,14.7,8.5c7.4,12.5,21.6,39,28.5,49.3.6.9,1.2,1.5,1.7,1.5.8,0,.8-1,.8-4.6,0-7.6-.2-28.8-.5-41.3-.1-2.4-.6-2.8-2.5-2.8h-.9a5.43,5.43,0,0,1-6-5.2,5.18,5.18,0,0,1,5.5-5.2h.5c2.1.1,4.6.2,7.2.2,3.2,0,6.5-.1,9.2-.2s6,1,6,5.1c0,2.7-2,5.3-5.8,5.3h-.3c-1.8.3-1.9,1.2-1.9,2.2-.1,6-.2,12.9-.2,20,0,12.2.2,24.7.3,33.5v.2a9,9,0,0,1-9,9.4A10,10,0,0,1,349.9,72Z"/><path class="cls-1" d="M387.5,65.6h.4c1.39,0,1.89-.5,1.89-2.1.21-9.8.31-20.1.31-30.2,0-6.6,0-13.2-.2-19.4,0-1.4-.4-2.3-1.9-2.3h-.21l-1.5.1a5.4,5.4,0,0,1-6-5.3,5.2,5.2,0,0,1,5.5-5.3h.5c2.11.1,5.11.2,8.11.2,3.7,0,7.6-.1,10.3-.2h.2c4,0,5.9,2.6,5.9,5.3a5.31,5.31,0,0,1-5.7,5.3h-1.8c-1.6,0-2.1.8-2.1,2.2-.1,6.4-.2,13.1-.2,20,0,9.6.1,19.6.3,29.5,0,1,.3,2.2,1.6,2.2.5,0,1.3-.1,1.7-.1h.2c4,0,5.9,2.7,5.9,5.4s-1.9,5.2-5.7,5.2h-.4c-2.6-.1-5.6-.2-8.6-.2-3.7,0-7.21.1-9.71.2h-.39a5.31,5.31,0,1,1,0-10.6h.39Z"/><path class="cls-1" d="M488.9,1.2h1.8c2.6,0,5.8-.1,8-.2h.3a5.11,5.11,0,0,1,5.4,5.3,4.88,4.88,0,0,1-4.3,5.1c-1.7.2-1.8.7-1.8,2.4.2,12.9,1.8,36.6,2.7,50.6.1,1.1.7,1.4,2,1.5h.6A5,5,0,0,1,509,71a5.28,5.28,0,0,1-5.6,5.3H503c-2.6-.1-5.1-.2-7.6-.2-2.9,0-5.7.1-8.1.2a5.43,5.43,0,0,1-6-5.2,5.18,5.18,0,0,1,5.5-5.2h1.1c1,0,1.7-.3,1.7-1.6V64c-.9-16.5-1.3-46.6-1.3-46.6-.1-2.7-.5-3.8-1-3.8s-1.4,1.4-1.9,3.5c-2.2,8.3-12.5,40.9-16.6,51.7a8.53,8.53,0,0,1-7.7,5.6c-2.7,0-5.4-1.6-7-5.5-3.2-7.7-12-39.6-15.7-51.4-.5-1.8-1.11-2.8-1.61-2.8-.89,0-1.2,2.9-1.29,3.8-.6,8.3-1.71,43-1.71,45.5,0,1.4.71,1.7,2.71,1.9h.19c4,0,5.91,2.6,5.91,5.2s-2,5.2-5.7,5.2h-.4c-2.6-.1-5.11-.2-7.61-.2-2.9,0-5.7.1-8.1.2a5.43,5.43,0,0,1-6-5.2,5.18,5.18,0,0,1,5.5-5.2h.8c1.3,0,1.9-.5,2-2,.7-16,2-36.7,2.7-49.8v-1c0-1.1-.2-1.5-1.6-1.5-6,0-6.3-3.7-6.3-5.3a5.08,5.08,0,0,1,5.3-5.3h.6c1.5.1,3.4.2,5.5.2,1.5,0,3.1-.1,4.5-.1h.5a11.07,11.07,0,0,1,11,8.1c1.9,6,5.1,16.9,8.1,26.8,6.1,20,7.2,22.6,8.2,22.6.4,0,.8-.4,1.1-1.2,3.8-9.2,11.7-37.2,15.7-48.7a10.62,10.62,0,0,1,10.3-7.5Z"/><path class="cls-1" d="M564.9,66.3a1.56,1.56,0,0,0,1.5-1.6c0-.2-2.6-8.8-3.8-12.4a1.71,1.71,0,0,0-1.6-1.4H538.09c-1.3.2-1.7.4-2.1,1.7-1,3.4-3.4,11.7-3.4,11.7a2.29,2.29,0,0,0,2.3,2c3.4-.1,6,1.7,6,5.1,0,2.5-1.8,5-5.5,5H535c-2.5-.1-5.1-.2-7.7-.2-3.2,0-6.1.1-8.5.2h-.4a5.1,5.1,0,0,1-5.5-5.1c0-2.5,1.8-5,5.4-5h.5c1.6,0,2.6-1.7,3-3,5.8-18.1,15.1-44.2,19.1-56,1.5-4.5,4.8-6.6,8.2-6.6s7.2,2.4,8.7,6.9c5.31,15.2,15.11,42.8,20,55.7.3.9,1.6,3,3.2,3,4.7-.1,5.9,3.4,5.9,5.1,0,2.5-1.9,5-5.6,5h-.4c-2.5-.1-5.1-.2-7.7-.2-3.2,0-6.1.1-8.5.2-3,.1-5.8-1.7-5.8-5a5.07,5.07,0,0,1,5.4-5.1h.6Zm-7.11-25c.61-.1.91-.2.91-.5,0-.7-6.91-21.8-7.71-24.3-.6-1.8-1.1-2.6-1.6-2.6s-1.1,1-1.8,3c-2.3,6.2-7.6,23.8-7.6,23.8,0,.3.2.4,1,.6Z"/><path class="cls-1" d="M612.09,10.9c-8.6,0-9,.1-10.3,4.5-.3.9-.5,2-.9,3.2a5.43,5.43,0,0,1-5.3,4.1,5.2,5.2,0,0,1-5.4-5.2,8.51,8.51,0,0,1,.5-2.6c3.2-9.6,4.9-14,15.5-14h1.9c3.1.1,8.2.2,13.7.2,6.7,0,13.9-.1,18.5-.2h1c7.9,0,12.1,2.3,14.21,8.1.59,1.6,1.7,3.9,2.4,6a6.54,6.54,0,0,1,.39,2.3,5.51,5.51,0,0,1-10.8,1.3q-.45-1.65-.9-3c-1.5-4.6-2.5-4.7-7.8-4.7-8.2,0-8.3,0-8.3,2.2-.2,7.4-.3,18.1-.3,28.7,0,7.7.1,15.3.2,21.6,0,2.2,1,2.3,2.8,2.3,3.9,0,5.8,2.7,5.8,5.4a5.25,5.25,0,0,1-5.5,5.3h-.4c-2.5-.1-5.3-.2-8.1-.2-3.3,0-6.5.1-8.8.2a5.36,5.36,0,1,1-.4-10.7h.4c1.8-.1,2.8,0,2.8-2.2,0-8.1.2-20.3.2-32.6,0-6.1,0-12.2-.2-17.8C619,10.9,619,10.9,612.09,10.9Z"/><path class="cls-1" d="M669.19,65.6h.4c1.4,0,1.9-.5,1.9-2.1.2-9.8.3-20.1.3-30.2,0-6.6,0-13.2-.2-19.4,0-1.4-.4-2.3-1.9-2.3h-.2l-1.5.1a5.4,5.4,0,0,1-6-5.3,5.2,5.2,0,0,1,5.5-5.3h.5c2.1.1,5.1.2,8.1.2,3.7,0,7.6-.1,10.3-.2h.2c4,0,5.9,2.6,5.9,5.3a5.31,5.31,0,0,1-5.7,5.3H685c-1.6,0-2.1.8-2.1,2.2-.1,6.4-.2,13.1-.2,20,0,9.6.1,19.6.3,29.5,0,1,.3,2.2,1.6,2.2.5,0,1.3-.1,1.7-.1h.2c4,0,5.9,2.7,5.9,5.4s-1.9,5.2-5.7,5.2h-.4c-2.6-.1-5.6-.2-8.6-.2-3.7,0-7.2.1-9.7.2h-.4a5.31,5.31,0,1,1,0-10.6h.4Z"/><path class="cls-1" d="M700.09,38.8c0-22.5,16.5-38.8,38.5-38.8s38.6,16.3,38.6,38.8c0,23.3-16.6,38.8-38.6,38.8S700.09,62.1,700.09,38.8Zm65.5,0c0-17.5-12.1-28.7-27-28.7s-27,11.2-27,28.7c0,17.3,12.1,28.5,27,28.5S765.59,56.1,765.59,38.8Z"/><path class="cls-1" d="M837.49,72c-7-11.2-25.8-45.6-31.2-54.7-.8-1.4-1.4-2-1.8-2-.8,0-.8,2.3-.8,5.2,0,7.9.2,29.6.5,42.9a2.19,2.19,0,0,0,2.4,2.5h.2c4,0,5.9,2.6,5.9,5.2s-2,5.2-5.7,5.2h-.4c-2.6-.1-5.2-.2-7.8-.2-3.1,0-6.1.1-8.5.2a5.43,5.43,0,0,1-6-5.2,5.18,5.18,0,0,1,5.5-5.2h.5c.3,0,.7.1,1,.1,1.1,0,2-.4,2-2.3.1-8.3.2-17.1.2-25.7s-.1-16.7-.2-23.8c0-2.1-.1-2.6-1.9-2.6s-6.6-.2-6.6-5.3a5.2,5.2,0,0,1,5.5-5.3h.5c1.3.1,2.4.1,3.3.1,1.9,0,3.1-.1,4.5-.1a16.53,16.53,0,0,1,14.7,8.5c7.4,12.5,21.6,39,28.5,49.3.6.9,1.2,1.5,1.7,1.5.8,0,.8-1,.8-4.6,0-7.6-.2-28.8-.5-41.3-.1-2.4-.6-2.8-2.5-2.8h-.9a5.43,5.43,0,0,1-6-5.2,5.18,5.18,0,0,1,5.5-5.2h.5c2.1.1,4.6.2,7.2.2,3.2,0,6.5-.1,9.2-.2s6,1,6,5.1c0,2.7-2,5.3-5.8,5.3h-.3c-1.8.3-1.9,1.2-1.9,2.2-.1,6-.2,12.9-.2,20,0,12.2.2,24.7.3,33.5v.2a9,9,0,0,1-9,9.4A10,10,0,0,1,837.49,72Z"/></g></g></svg>