<svg xmlns="http://www.w3.org/2000/svg" viewBox="0 0 17.38 18.16"><defs><style>.cls-1{fill:#fff;}</style></defs><title>アセット 12</title><g id="レイヤー_2" data-name="レイヤー 2"><g id="レイヤー_1-2" data-name="レイヤー 1"><path class="cls-1" d="M2.28,4.06a12,12,0,0,1-.94,1.82A8.54,8.54,0,0,0,0,5.18a11.14,11.14,0,0,0,1.76-3.8A6.12,6.12,0,0,0,1.94.28l1.5.34c-.08.24-.18.56-.32,1.06s-.18.66-.3,1H4.74V2a10.35,10.35,0,0,0-.12-2H6.3a9.64,9.64,0,0,0-.12,2v.74h2a11.77,11.77,0,0,0,2-.1V4.16a12.37,12.37,0,0,0-2-.1h-2v2.2H8.9a12.25,12.25,0,0,0,1.84-.1V7.72a11,11,0,0,0-1.88-.1H6.18v2h2.1a13,13,0,0,0,1.86-.1c0,.56-.06,1-.06,1.82v4c0,1-.46,1.32-2.08,1.32-.18,0-.26,0-1,0a5,5,0,0,0-.24-1.4,10.92,10.92,0,0,0,1.14.08c.7,0,.82,0,.82-.32v-4H6.18v5a15.13,15.13,0,0,0,.1,2.22H4.62a17,17,0,0,0,.12-2.22v-5H2.28v3.72a18.62,18.62,0,0,0,.08,2.06H.72a12,12,0,0,0,.1-2V11.36A16.76,16.76,0,0,0,.74,9.5a13.93,13.93,0,0,0,1.92.1H4.74v-2H2a12.72,12.72,0,0,0-1.94.1V6.14a9.17,9.17,0,0,0,1.82.12H4.74V4.06Zm11-2.82a13.9,13.9,0,0,0-.1,2.14v7.9a13.06,13.06,0,0,0,.1,2.2H11.6a13.51,13.51,0,0,0,.1-2.22V3.4a14.09,14.09,0,0,0-.12-2.16ZM17.38.06a14.1,14.1,0,0,0-.14,2.42V16c0,1.56-.48,1.94-2.46,1.94-.52,0-1.12,0-2.08-.08a4.08,4.08,0,0,0-.44-1.52,18.52,18.52,0,0,0,2.54.2c.78,0,.94-.1.94-.6V2.52A14.8,14.8,0,0,0,15.6.06Z"/></g></g></svg>