<svg xmlns="http://www.w3.org/2000/svg" viewBox="0 0 106.84 25.45"><defs><style>.cls-1{fill:#fff;}</style></defs><title>アセット 9</title><g id="レイヤー_2" data-name="レイヤー 2"><g id="レイヤー_1-2" data-name="レイヤー 1"><path class="cls-1" d="M17.41,20.71c-.48.33-1,.66-1.47,1-1.14.75-2.28,1.47-3.33,2.31A28.66,28.66,0,0,1,17,21.28c.51-.21,1,0,.6.57a10,10,0,0,1-1.8,1.56c.24-.15.81-.6,1.11-.33s-.12.69-.24.93c.18-.12.66-.54.84-.21s-.36.42-.51.54-.78.69-1,.39.24-.87.36-1.08c-.69.39-1.32.87-2,1.29-.24.15-.75.45-.75-.09s1.17-1.2,1.53-1.5a22.12,22.12,0,0,0,1.83-1.5c-1.32.69-2.52,1.56-3.78,2.34-.33.21-1.14.93-1.56.9s-.12-.72.09-.9c-.27.15-2,1.32-2.1.57-.09-.42.93-.84,1.2-1,1.68-1.08,3.39-2.13,5-3.27-1.41.87-2.79,1.83-4.17,2.73-.36.24-3,2.16-3.33,1.47-.12-.21,0-.3.18-.42a16.57,16.57,0,0,1,1.65-1.2c1.29-.9,2.58-1.83,3.87-2.76-2.1,1.23-4.17,2.55-6.27,3.81-.3.15-1.53,1.14-1.77.63s1.83-1.8,2.22-2.07c-1.05.69-2.07,1.41-3.18,2-.27.15-.9.6-1.2.33s0-.57.18-.75c-.3.18-1.59,1.08-1.95.69s.3-.72.51-.87c1.35-1.17,2.82-2.25,4.26-3.36-1.11.66-2.19,1.35-3.27,2l-1.29.81c-.24.15-.75.54-1.05.51-.93-.12,1-1.59,1.17-1.74,1-.78,2-1.5,3-2.25-1.05.66-2.07,1.35-3.12,2-.15.12-1.77,1.11-1.53.24.09-.27.54-.57.75-.75l1.32-1.08c1-.81,2-1.59,3-2.37-.9.57-1.77,1.2-2.67,1.8-.45.3-.87.6-1.32.87-.24.15-.66.45-1,.39-.72-.12.18-.78.36-.93l2.46-1.89c-.48.3-1,.63-1.5.9-.24.15-.66.48-1,.45-.75,0,0-.75.27-.93,1.56-1.29,3.3-2.46,5-3.69a44.72,44.72,0,0,0-3.78,2.4c-.54.33-1,.69-1.56,1-.21.15-.69.57-1,.33-.51-.45,2-1.89,2.34-2.1,1.23-.84,2.52-1.65,3.72-2.55-1.2.69-2.37,1.44-3.54,2.19-.3.18-1.83,1.47-2.16,1.05-.66-.87,5.31-4.44,6-4.92-1,.63-2.1,1.35-3.12,2-.51.33-1,.66-1.5,1-.27.15-.72.54-1,.48-.63-.12.06-.84.27-1A10.49,10.49,0,0,1,2.5,13.84c1-.69,2-1.32,3-2C4.27,12.61,3,13.39,1.81,14.2c-.24.15-.75.63-1,.63s-.36-.18-.24-.39a4.78,4.78,0,0,1,1-.75c.54-.42,1.08-.84,1.65-1.26,1.11-.9,2.25-1.77,3.36-2.67-1.74,1-3.3,2.31-5.07,3.24-.3.15-1,.33-.78-.21.12-.24.48-.42.66-.57.45-.36.9-.72,1.38-1.05-.45.27-.9.54-1.38.78-.21.12-.57.36-.81.27-.78-.24.57-1.23.78-1.38-.27.15-.87.48-1,.06s.57-.78.81-1c-.27.12-1,.24-.81-.3C.37,9.4.85,9.19,1,9c1.23-.87,2.46-1.71,3.66-2.58C3.88,7,3.1,7.51,2.26,8,2,8.11.79,8.74,1,7.87c.15-.57,1.17-1.08,1.62-1.41C3.4,6,4.15,5.47,4.93,5c-1.29.78-2.58,1.59-3.84,2.37-.21.15-.72.63-.93.3s.72-1.17,1-1.38C.52,6.37.73,5.71,1,5.41A6.24,6.24,0,0,1,2.2,4.3C1.87,4.48.55,5.5.13,5.11S.7,4.18.94,4a46.94,46.94,0,0,0,4.26-3C4.45,1.48,3.73,2,3,2.44a11.36,11.36,0,0,1-1.8,1.14c-.3.15-.6.09-.48-.3.06-.15.33-.33.45-.45L2,2C1.69,2.23.67,3.1.25,2.92S.31,1.66.4,1.36.52.7.7.61s.33,0,.36.21S1,1.15.94,1.24C.85,1.6.73,2,.61,2.32c.6-.33,1.14-.69,1.68-1,.27-.18.81-.69,1.14-.72,1-.09-.69,1.41-.78,1.53.54-.36,1.08-.72,1.62-1,.36-.21,1-.69,1.41-.69s.42.45.15.75a8,8,0,0,1-1.47,1.2,19.83,19.83,0,0,1,3.21-2c.27-.12.72-.12.57.3-.06.18-.48.36-.63.45C6.43,1.81,5.35,2.53,4.3,3.31a14.6,14.6,0,0,0-3,2.43A25.5,25.5,0,0,0,5,3.49c.3-.21,2.28-1.77,2.55-1.26.12.21-.09.33-.21.45-.48.36-1,.66-1.53,1-1.23.81-2.49,1.59-3.66,2.46,1-.66,2.1-1.29,3.15-1.92.21-.12,2-1.26,1.89-.36-.06.36-.69.69-1,.87-.51.36-1.05.72-1.59,1A22.74,22.74,0,0,0,1.81,7.66,29.13,29.13,0,0,0,4.87,5.74c.48-.3,1-.63,1.41-.93.24-.15.72-.57,1-.51.81.12-.51,1.14-.66,1.26C5.74,6.31,4.78,7,3.82,7.66c1.05-.72,2.1-1.5,3.24-2.13.24-.12.72-.48,1-.24s-.27.75-.48.9c-1.89,1.5-4.05,2.61-6,4,1.38-.78,2.7-1.68,4-2.55C5.83,7.48,8,5.83,8.11,6.55c.06.39-.84.84-1.08,1L5,8.92a36.62,36.62,0,0,0-3.6,2.49c1.08-.63,2.13-1.32,3.18-2,.45-.3.93-.6,1.41-.9.21-.15.75-.6,1-.54s.27.33.09.51a19.57,19.57,0,0,1-2.85,2.13C4.63,10.39,7.45,8.29,7.72,9c.15.36-.57.84-.81,1-.63.54-1.29,1-1.92,1.56.48-.3,1-.57,1.5-.84a1.74,1.74,0,0,1,1-.36c.81.15-.33.93-.51,1.05-1.71,1.2-3.51,2.19-5.16,3.45,1.23-.78,2.43-1.62,3.66-2.4a17.65,17.65,0,0,1,1.8-1c.27-.12,1-.39.93.18-.06.42-.93.84-1.23,1L5.26,13.87c-1.17.78-2.34,1.56-3.45,2.43,1.29-.84,2.58-1.68,3.9-2.43.33-.18,1.11-.78,1.5-.63.66.27-.33,1-.54,1.14.27-.12,1.32-.45,1,.21-.12.3-.69.6-1,.78-1.26,1-2.55,1.86-3.81,2.82.9-.54,1.8-1.14,2.7-1.68.21-.15,1.74-1.23,1.74-.57,0,.36-.84.78-1,1l-2.64,2a20.67,20.67,0,0,1,3-1.89c.42-.18,1.14-.09.69.39a6,6,0,0,1-1.05.87L5,19.33c-.9.69-1.8,1.41-2.67,2.13,1.08-.69,2.13-1.41,3.21-2.07.21-.15,2.25-1.56,2.19-.69,0,.3-.57.6-.78.78-.48.39-1,.75-1.47,1.11-1,.72-2,1.47-3,2.25,1.32-.84,2.64-1.71,4-2.52a15.71,15.71,0,0,1,1.83-1c.21-.09.84-.27.69.21-.06.21-.42.42-.57.51-.54.42-1.08.84-1.59,1.26-1.26,1-2.52,1.92-3.75,2.91a69.9,69.9,0,0,0,6.18-3.81,12.71,12.71,0,0,1,2.46-1.47c.3-.12.63,0,.45.39s-.63.57-.9.75c.27-.15,1.59-1.11,1.86-.54.21.39-.69.84-.93,1-1.44,1-3,1.95-4.41,3l3.93-2.43c1.17-.69,2.34-1.5,3.57-2.07.24-.09.84-.24.72.24s-.78.69-1.05.9c-1.32,1-2.67,1.95-4,2.91,1.41-.93,2.79-1.89,4.2-2.79.42-.27,1.29-1,1.83-.93s.15.63-.09.84c.27-.12.75-.42,1-.09S17.59,20.56,17.41,20.71Zm-8.1.6a49.74,49.74,0,0,0-4.68,3c.63-.33,1.26-.75,1.89-1.14C7.45,22.54,8.38,21.91,9.31,21.31Z"/><path class="cls-1" d="M43.51,15.79c.39,0,.54.27.3.54a6.9,6.9,0,0,1-1.56,1c-1.35.78-2.7,1.59-4,2.43s-2.76,1.68-4.11,2.58c-.69.45-1.35.93-2,1.41a4.58,4.58,0,0,0-1.26,1.14,14.22,14.22,0,0,0,2.58-1.38c1-.63,2-1.29,3-1.92,1.68-1.11,3.33-2.22,5-3.27a11.64,11.64,0,0,1,2.07-1.14c.72-.33,1.11.09.51.66A41.17,41.17,0,0,1,39.31,21C37.69,22,36,23.05,34.45,24.16c2.28-1.29,4.5-2.73,6.75-4.11.39-.27.81-.51,1.2-.75.21-.12.72-.54,1-.42.72.33-.93,1.38-1.14,1.53.27,0,.27.27.12.42s-.6.3-.78.42c-.9.54-1.8,1.14-2.67,1.71a31.63,31.63,0,0,1-2.76,1.62c-.24.15-.69.48-1,.39s-.24-.48,0-.69a9.7,9.7,0,0,1-1.74.93c-.33.12-.81,0-.57-.42s.9-.72,1.29-1c.6-.42,1.2-.81,1.83-1.2,2.4-1.59,4.89-3.06,7.2-4.77C40.6,19.21,38.23,21,35.8,22.54a39.11,39.11,0,0,1-3.69,2.25,3.85,3.85,0,0,1-1.29.57c-.78.09-.48-.69-.15-1.05-.3.18-1.47.87-1.74.3-.12-.36.39-.54.6-.66,1.62-1,3.24-1.92,4.86-2.88C36.28,20,38.14,18.82,40,17.62c.84-.54,1.68-1.05,2.46-1.62a6.3,6.3,0,0,0,1.92-1.74,9.87,9.87,0,0,0-2.28,1.23c-1,.6-1.92,1.2-2.85,1.83-1.83,1.2-3.66,2.43-5.49,3.63a45.18,45.18,0,0,1-5.31,3.18c-.36.12-1.83.75-1.59-.15.06-.36.57-.69.84-.9s.87-.66,1.32-1c-.93.57-1.89,1.14-2.82,1.68-.21.12-.9.66-1.11.33s.84-1,1-1.14l2.82-2.07c-1,.66-2,1.35-3,2-.24.15-1.32,1-1.5.45s1-1.05,1.23-1.23c.87-.72,1.77-1.41,2.58-2.19-1.44.87-2.85,1.8-4.35,2.58-.45.21-1,.12-.51-.48a10.62,10.62,0,0,1,1.89-1.59,12.15,12.15,0,0,1-2.13,1.35c-.84.33-.84-.3-.33-.75-.69.33-1.17.06-.54-.48,1.17-.93,2.43-1.77,3.54-2.73-.48.3-4.41,3-4.74,2.46-.18-.36.75-.84.9-1,.9-.69,1.77-1.38,2.64-2.1-1,.63-2,1.29-3.12,1.86-.18.09-.54.33-.69.06-.09-.12,0-.21.06-.33A4.33,4.33,0,0,1,21.94,18L23.53,17a27.9,27.9,0,0,0,2.67-2c-1.11.66-2.13,1.44-3.18,2.16-.3.21-2.25,1.74-2.58,1.11-.18-.36.57-.75.78-.9,1-.72,2-1.47,3-2.22-.63.39-1.23.78-1.86,1.14a6.83,6.83,0,0,1-1.35.78c-.18.06-.42.12-.48-.12s.45-.63.63-.78c-.27.15-1,.6-1.26.33s.09-.69.3-.9c-.24.12-1.23.33-.87-.27a5.23,5.23,0,0,1,1.32-.93c1.47-1.05,3-2.1,4.44-3.18-1.74,1-3.39,2.16-5.07,3.21-.15.09-.36.3-.54.24-.48-.12,0-.6.15-.75a23.56,23.56,0,0,1,2.52-1.74c-.6.36-1.23.72-1.83,1.05-.24.12-.87.63-1.14.39-.45-.36,1.2-1.2,1.38-1.32-.72.27-1.32-.09-.69-.69a15.4,15.4,0,0,1,1.83-1.38c1.41-1,2.85-1.92,4.29-2.82,2.94-1.89,5.91-3.72,8.82-5.61-3.33,1.71-6.48,3.78-9.66,5.76-1.44.9-2.91,1.83-4.38,2.73-.18.12-.63.51-.87.45-.87-.21.9-1.47,1.11-1.59-.24.12-.72.45-1,.21s.27-.9.48-1.11c-.45.12-.45-.36-.27-.63a5.84,5.84,0,0,1,1.38-1.2c-.36.12-1,.06-.75-.45.12-.3.51-.54.75-.75.93-.78,1.89-1.5,2.85-2.28-.15.12-.63.48-.63,0,0-.21.39-.42.54-.51a13.16,13.16,0,0,1,1.53-1c.27-.12.84-.24.69.24-.06.3-.57.6-.81.78-.54.45-1.08.9-1.65,1.32-.87.69-1.77,1.38-2.61,2.13a13.62,13.62,0,0,0,2.7-1.41c1-.57,1.89-1.2,2.85-1.83.72-.48,1.47-1,2.19-1.47.36-.24,1-.84,1.41-.9s.42.18.27.42a2.48,2.48,0,0,1-.45.33l-1,.63A80.4,80.4,0,0,0,21.1,7.45c2.28-1.17,4.47-2.58,6.63-3.93,1.77-1,3.51-2.19,5.31-3.18.18-.09.54-.39.78-.33s.24.24.12.42-.6.42-.81.54-.75.45-1.11.66c-2,1.14-3.93,2.25-5.85,3.42a27.27,27.27,0,0,0-5.46,3.69c2.88-1.47,5.58-3.3,8.34-5C30.34,3,31.63,2.17,33,1.42A12.86,12.86,0,0,1,34.6.49c.57-.24.93.09.48.63.24-.12,2-.84,1.5,0-.09.18-.42.33-.6.42-.36.27-.75.51-1.11.75-1.68,1.08-3.36,2.13-5,3.18s-3.51,2.22-5.25,3.36a42.28,42.28,0,0,0-4.29,3,18.24,18.24,0,0,0,3.84-2.22c1.08-.72,2.13-1.53,3.24-2.22.18-.09.57-.3.6.09s-.39.42-.51.51c-1.23.9-2.46,1.74-3.69,2.61.72-.45,1.44-.87,2.13-1.29a5.72,5.72,0,0,1,1.23-.72c.3-.06.45.12.3.42-.21.48-1.14.93-1.59,1.23.27-.12,1.2-.42,1,.21-.12.3-.75.63-1,.81-1.29.93-2.58,1.83-3.84,2.76,1.2-.78,2.37-1.56,3.6-2.34.27-.18.87-.72,1.2-.63s.24.3.12.48a4.06,4.06,0,0,1-1.2.9l-1.8,1.17a25.35,25.35,0,0,0-3.33,2.31,26.76,26.76,0,0,0,3-1.89c.48-.33,1-.66,1.47-1a5.27,5.27,0,0,1,1.26-.72c.21-.06.51,0,.42.3,0,.12-.3.27-.39.33-1,.72-2,1.47-3.06,2.22.69-.42,1.38-.87,2.07-1.26.24-.18.87-.69,1.2-.6.75.3-1.71,2-1.92,2.13.36-.24,1.89-1.53,2.37-1.08S26,15.76,25.75,16c.27-.18,1-.81,1.35-.69s.12.39,0,.54a14.46,14.46,0,0,1-1.65,1.32c-.6.51-1.23,1-1.86,1.5.72-.42,1.44-.87,2.16-1.32.24-.15.84-.66,1.14-.57.63.21-.36,1.11-.54,1.26a23.84,23.84,0,0,1-1.92,1.53c.84-.51,1.62-1,2.43-1.53.18-.12,1.17-.72.93,0,0,.09-.15.15-.21.18-.39.3-.81.57-1.23.84-.87.6-1.74,1.2-2.58,1.83.48-.3,4-3,4.32-2.31.15.39-.78.93-1,1.11-.81.63-1.65,1.23-2.43,1.86.75-.42,1.5-.87,2.25-1.32a16.55,16.55,0,0,1,2-1.2c.63-.24.51.39.21.78a12.61,12.61,0,0,1-1.89,1.68c.87-.57,1.74-1.17,2.64-1.71.27-.18,1.47-1,1.62-.36.06.36-.57.63-.78.81L28.24,22c1.14-.66,2.25-1.35,3.42-2,.24-.15.78-.6,1.08-.54s.3.27.15.48a4.5,4.5,0,0,1-1.2.9c-.54.39-1.14.78-1.71,1.17a13.15,13.15,0,0,0-2.61,2A7.54,7.54,0,0,0,29.59,23c.81-.45,1.59-1,2.4-1.47q2.48-1.57,4.95-3.24c1.56-1.05,3.15-2.1,4.77-3.09a16.14,16.14,0,0,1,2-1.14c.24-.12.66-.39,1-.24s.18.6,0,.87A6,6,0,0,1,43.51,15.79ZM34.21,1.24C31.75,2.59,29.38,4.12,27,5.59c1.53-.87,3-1.74,4.53-2.61A31.82,31.82,0,0,0,34.21,1.24Zm1,1.53a9.61,9.61,0,0,1,2.55-1.53c.63-.15.6.3.24.57-.87.66-1.77,1.26-2.67,1.89.3-.21,3.33-2.4,3.45-1.56.06.33-.6.72-.81.87L36,4.78c.42-.27,3.48-2.52,3.84-1.89.18.33-.48.75-.66.9-.63.54-1.29,1-1.95,1.59a33.78,33.78,0,0,1,3-1.95c.24-.12.93-.54,1.08-.06s-.51.75-.75.93c.27-.18,1.05-.78,1.41-.66.18.09.18.24.09.42s-.66.57-.93.78L39.52,6.07c.33-.21,2.25-1.62,2.55-1.11s-2.07,2-2.46,2.25c.3-.21,3-2.16,3.15-1.41.09.27-.39.54-.54.69C41.59,7,41,7.51,40.36,8c.45-.3.9-.6,1.38-.9.3-.18.84-.6,1.23-.54.87.09-.15.84-.33,1A48.29,48.29,0,0,0,37.72,11c1.2-.69,2.31-1.56,3.48-2.31.21-.15,2.52-1.74,2.43-.78,0,.3-.57.6-.78.75-.48.39-1,.78-1.5,1.17-1.05.78-2.13,1.56-3.12,2.4A31.08,31.08,0,0,0,42,9.85c.51-.33,1-.69,1.56-1,.21-.12.63-.51.9-.36.6.42-1.65,1.68-1.89,1.83-1.14.78-2.34,1.53-3.48,2.31,1-.66,2.1-1.35,3.15-2,.15-.12,2-1.5,2.07-.75,0,.21-.24.3-.36.42l-1.26.9c-1,.72-2.07,1.44-3.06,2.16,1.17-.72,2.37-1.47,3.57-2.19.27-.15.84-.6,1.17-.57s.33.3.18.51a5.24,5.24,0,0,1-1.47,1c-.57.39-1.17.78-1.77,1.17A33,33,0,0,0,38,15.67c1.53-1,3-2,4.56-2.94.3-.18,1.44-1,1.71-.42.18.39-.63.84-.87,1,.24-.09,1-.39,1,.15,0,.3-.48.15-.72.24a11.9,11.9,0,0,0-2.52,1.5c-.9.57-1.77,1.17-2.64,1.77a11,11,0,0,1-2.31,1.44c-.39.15-.72-.06-.42-.42a4.74,4.74,0,0,1,1-.66c.42-.3.87-.6,1.32-.9,1.65-1.11,3.33-2.25,5-3.48-1.71,1-3.27,2.13-4.92,3.18-.27.15-1.41.9-1.14,0,.18-.72,1.41-1.41,2-1.8-.27.15-1.8,1.32-2,.72s1.32-1.32,1.62-1.56c-.24.15-.93.6-1.17.21s.36-.69.57-.84c-.36.12-.78.06-.69-.36s.75-.75,1-1c1.17-1,2.4-1.86,3.63-2.76-1.26.78-2.46,1.68-3.72,2.49-.27.15-1,.75-1.32.33s.78-1.2,1.05-1.44c-.15.09-1.11.66-1,0,0-.21.42-.42.57-.54,1.14-.93,2.28-1.8,3.42-2.73L38.44,8.53c-.3.21-1.53,1.23-1.92.9-.63-.57,3.3-2.94,3.69-3.21-.84.48-1.68,1-2.52,1.5-.21.15-.75.63-1,.54-.6-.21.45-.93.6-1L39.46,5.5,36.94,7c-.21.12-1,.78-1.2.39-.36-.57,3.54-2.82,4-3.15-.54.3-4.29,3.21-4.68,2.58-.15-.3.39-.66.54-.81.84-.72,1.71-1.38,2.55-2-.87.51-1.68,1-2.55,1.56-.21.15-1.2,1-1.44.57s.54-.84.72-1c.78-.72,1.59-1.44,2.4-2.13C36,3.79,34.81,4.72,33.49,5.5c-.24.15-1.08.69-1.17.15-.06-.33.54-.66.75-.84-.66.45-1.32.87-2,1.29-.33.18-1.11.75-1.5.48s-.12-.39.12-.48a1.21,1.21,0,0,1,.33,0c.12,0,.21-.12.33-.15a18.24,18.24,0,0,0,1.92-1.17C33.25,4.12,34.24,3.43,35.23,2.77Z"/><path class="cls-1" d="M67.24,22.45c.27-.15,1.32-1,1.65-.78s-.24,1.14-.36,1.41c.45-.12.18.39,0,.51s-.45.33-.63.27c-.51-.15.33-1.26.42-1.5-1,.57-2,1.2-3,1.8-.27.15-1.32,1-1.65.78-.51-.39.87-1.2,1.08-1.38,1-.72,2-1.35,3.06-2-1.23.72-2.4,1.56-3.57,2.37-.51.3-1,.66-1.53.93-.27.12-.81.24-.69-.24.09-.21.54-.39.69-.51l1.56-1.17c1.14-.84,2.28-1.65,3.36-2.55-2.85,1.47-5.31,3.54-8.13,5-.42.24-.9.15-.57-.42a6.63,6.63,0,0,1,1.65-1.38c1.53-1.11,3.09-2.13,4.65-3.18-1.5,1-3,1.95-4.47,2.94-.3.18-3.33,2.28-3.45,1.38-.33.12-1,.42-1.32.12s.06-.6.3-.81a26.7,26.7,0,0,1,3-2.22c-1.17.72-2.34,1.47-3.54,2.13-.24.12-.78.48-1.08.36-.45-.18,0-.63.24-.81-.27.18-.87.6-1.2.48s-.3-.27-.15-.51a4.52,4.52,0,0,1,1.26-1c.51-.36,1-.69,1.53-1.05-.63.42-1.29.87-2,1.26a3.42,3.42,0,0,1-1.53.72c-.51,0-.48-.36-.24-.66a12.26,12.26,0,0,1,1.68-1.35c-.48.33-1,.66-1.44,1-.3.15-.75.51-1.11.48-1-.12.39-1.11.57-1.26a8.85,8.85,0,0,1-1.92,1.11c-.54.15-.6-.3-.3-.63a9.56,9.56,0,0,1,1.62-1.29c.66-.48,1.35-1,2-1.44-.93.6-1.83,1.26-2.76,1.86-.24.15-1.89,1.41-2,.63-.06-.39.57-.78.81-1,.42-.36.87-.66,1.32-1A30.19,30.19,0,0,0,53.56,18c-1.59.84-3,1.95-4.62,2.82-.21.12-.66.24-.57-.18,0-.15.27-.27.36-.36.36-.27.75-.51,1.11-.78-.3.18-1,.72-1.41.57s-.18-.51,0-.72a16.53,16.53,0,0,1,3.09-2.49c-1.23.75-2.43,1.56-3.66,2.28-.24.15-1,.63-.87-.15.15-.57,1-1.08,1.35-1.41-.27.15-1.32.84-1.56.36-.12-.18,0-.3.12-.42a6.64,6.64,0,0,1,1.56-1.17c.63-.45,1.26-.9,1.92-1.35L48.76,16a7.32,7.32,0,0,1-1.29.84c-.21.06-.45.12-.51-.18s.33-.48.51-.6c1.74-1.35,3.9-2.34,5.49-3.9-2,1-3.75,2.58-5.76,3.69-.21.12-.69.42-.93.15s.21-.69.39-.87a22,22,0,0,1,2.7-2c-.54.36-1.11.72-1.68,1.05-.24.15-.81.54-1.11.39-.63-.33.66-1.05.84-1.2l3-2a14.48,14.48,0,0,0,2.67-2,34.43,34.43,0,0,0-4.71,2.94c-.36.24-.72.48-1.08.69a2.77,2.77,0,0,1-.87.48c-.24,0-.39,0-.42-.27s.42-.66.66-.84c-.6.09-1-.27-.69-.84a4.46,4.46,0,0,1,1.41-1.17c-.18.09-.75.54-.93.21s0-.27.15-.39A8.75,8.75,0,0,1,48,9.31c.57-.36,1.14-.69,1.71-1,2.55-1.59,5.13-3.15,7.65-4.77C55.27,4.75,53.17,6,51,7.21c-1.26.75-2.55,1.5-3.84,2.22-.18.09-.9.57-.9.06,0-.33.69-.63.9-.75C50.56,6.49,54,4.33,57.34,2.08c-1.77,1-3.51,2.19-5.25,3.27A46.52,46.52,0,0,1,47.86,7.9c-.21.12-.78.45-.9,0s.66-.69.84-.84c2.79-2,5.67-3.87,8.37-6a64.73,64.73,0,0,0-6.45,4.26,8,8,0,0,1-1.41.78c-.42.15-.84-.06-.54-.54a5.16,5.16,0,0,1,1.11-1l1.53-1.23c-.09,0,0,0-.18-.12-.15-.3.57-.51.75-.63.54-.3,1.05-.63,1.56-1,.21-.12.63-.51.9-.45s.21.21.15.39a2.76,2.76,0,0,1-.75.57c-.51.39-1,.75-1.53,1.14-.93.69-1.89,1.41-2.76,2.19,1.56-.84,3-1.95,4.44-2.94.69-.48,1.38-.93,2.07-1.38.45-.27,1.29-.9,1.83-.75s0,.72-.24.93c-.6.48-1.26.93-1.89,1.41-1.47,1-3,2.1-4.47,3.15,1.65-1,3.24-2,4.86-3.06A23.11,23.11,0,0,1,59.32.46c.48-.18.9.06.45.48A10.93,10.93,0,0,1,58,2.23c-1.68,1.14-3.39,2.25-5.07,3.36,2.31-1.35,4.62-2.73,6.93-4.08.45-.24.87-.48,1.29-.75.18-.09.54-.39.75-.27C62.5.85,60.28,2.2,60,2.35A21.29,21.29,0,0,1,62.83.79c.27-.12.51-.12.54.24s-.75,1-1.11,1.26c.27-.15,2.1-1.56,2.19-.72.48-.27.66.12.36.51a14.81,14.81,0,0,1-2.49,2.25c.69-.45,1.41-.9,2.13-1.35.33-.24,1.29-1,1.74-.9s-.15.78-.33,1c-.63.6-1.29,1.2-1.89,1.83.45-.3,3.3-2.52,3.75-1.92.21.3-.27.63-.45.81-.66.6-1.35,1.14-2,1.74.24-.15,1.47-1.2,1.74-.72.09.18,0,.33-.12.48-.24.42-.54.84-.81,1.26.18-.12.6-.27.6.09,0,.21-.75.6-.93.66s-.54.12-.45-.3a4.88,4.88,0,0,1,.87-1.47c-.66.39-1.26.84-2,1.23-.24.12-.63.24-.6-.21s.75-.87,1-1.11c.63-.54,1.26-1,1.89-1.59-.78.45-1.5.93-2.22,1.41C64,5.38,63.31,6,63,6c-.84-.24,1.83-2.58,2-2.79-.75.48-1.5,1-2.28,1.47-.36.24-.75.48-1.14.69a1.12,1.12,0,0,1-.66.3c-.66-.09.06-.78.24-.93.66-.6,1.32-1.14,2-1.71-3.12,2.19-6.54,3.93-9.84,5.82.54,0,.33.57.12.84a7.72,7.72,0,0,1-1.2,1c.21-.15.66-.48,1-.39s.27.27.15.45c-.27.57-1.23,1-1.71,1.38-1.5,1.05-3,2-4.44,3.18,1.44-.84,2.79-1.86,4.2-2.76.45-.3,1.32-1,1.89-1,1,.09-.3,1.23-.54,1.41.24-.09.9-.18.78.27-.09.3-.72.6-1,.78-1.41,1-2.85,2-4.26,3,1.26-.75,2.46-1.56,3.66-2.37.3-.21.93-.78,1.32-.78s.39.12.3.36-.6.48-.81.63L51.19,16A36,36,0,0,0,48,18.43c1.14-.69,2.28-1.41,3.42-2.13.36-.21,2.25-1.62,2.64-1.14s-1.68,1.59-2,1.8a32.92,32.92,0,0,0-3,2.37c1.35-.72,2.61-1.62,3.9-2.43.21-.12.6-.51.84-.36.45.27-.36.87-.54,1,.24-.12,1.11-.69,1.14,0,0,.42-.63.87-.9,1.11-1.11.9-2.31,1.68-3.45,2.55,1-.57,1.83-1.2,2.73-1.83l1.32-.87c.27-.15.72-.51,1-.45,1,.12-.72,1.35-.93,1.5-.9.66-1.8,1.29-2.7,1.92.87-.51,1.71-1.08,2.55-1.59.3-.18,1.53-1.2,1.89-.87s-.54.87-.75,1c-.84.63-1.71,1.2-2.55,1.86.9-.54,1.74-1.17,2.61-1.74.27-.18,1.47-1.23,1.83-.81s-.87,1.17-1.11,1.38c-.87.66-1.77,1.29-2.61,2a31,31,0,0,0,3-1.89c.48-.3.93-.63,1.41-1a4.05,4.05,0,0,1,1-.57c.21,0,.36,0,.39.27s-.45.69-.66.87a29.78,29.78,0,0,1-2.79,2c.84-.51,1.65-1.05,2.49-1.59.27-.18,1.32-1.08,1.71-1,.66.18-.24.9-.42,1.08-.75.57-1.59,1.08-2.37,1.59l3.3-2.07c.39-.24.81-.51,1.2-.72.12-.09.45-.18.54-.27s.18-.36.3-.51a20.6,20.6,0,0,1,3.06-2.25,26.12,26.12,0,0,0,2.58-1.92c-1.59.84-3,1.95-4.59,2.88-.24.15-.9.69-1.11.24s1-1.26,1.32-1.47c-.24.15-1.5,1-1.77.57s1.14-1.23,1.44-1.44a46.65,46.65,0,0,0,4.59-3c-1.14.63-2.19,1.44-3.27,2.16a6.9,6.9,0,0,1-1.62,1c-.51.12-.69-.27-.33-.63-.21.09-.81.39-.93,0s.42-.6.6-.75c1.14-1,2.37-2,3.54-3-.66.48-6.45,4.92-7,3.9-.36-.66,2.34-2.1,2.76-2.37A17,17,0,0,0,65,10.45,18.22,18.22,0,0,0,62.26,12c-.93.6-1.86,1.23-2.82,1.83-.39.27-.75.51-1.14.75-.21.15-.63.48-.9.42-.81-.18.6-1.29.81-1.44-.24.12-1.05.63-1.26.21-.09-.18,0-.27.12-.39a8.19,8.19,0,0,1,1.32-1.17c.54-.48,1.11-1,1.65-1.47-.69.42-1.38.81-2.07,1.2-.15.09-.51.39-.72.39-.78-.09.57-1.2.69-1.29-.69.39-.6-.15-.48-.66-.33.15-.36-.24-.21-.42a1,1,0,0,1,.42-.24c.54-.15.33.48.24.78.54-.33,1.11-.66,1.65-1,.24-.12.6-.12.48.27s-.84.81-1.14,1.05L60,10.3a6,6,0,0,1,1.11-.66c.27-.06.42.06.36.36s-.66.78-.9,1c-.78.72-1.62,1.38-2.4,2.1,1.14-.63,2.25-1.38,3.33-2.1.45-.27.9-.57,1.32-.87.21-.12.6-.48.87-.39.69.3-1.2,1.44-1.35,1.56-1.08.75-2.16,1.47-3.21,2.22,1.2-.78,2.43-1.62,3.66-2.37.39-.24,2.67-1.83,2.91-1,.15.51-.75,1.08-1.08,1.32-.57.42-1.17.81-1.77,1.2-1,.69-2.1,1.32-3.06,2.1a24.82,24.82,0,0,0,3.87-2.46,20,20,0,0,1,3.66-2.37c.3-.12.93-.15.69.3s-.75.66-1,.9c-1.23,1-2.46,2-3.66,3.06,1.32-.87,2.58-1.83,3.9-2.7.36-.21,1.2-.9,1.65-.66s-.33.87-.54,1c.72-.21.57.51.24.84a8.59,8.59,0,0,1-1.44,1.08c.24-.15,1-.78,1.29-.69.45.18-.06.66-.24.81-1.17,1-2.55,1.8-3.81,2.7,1-.66,2-1.35,3.06-2,.3-.15.87-.6,1.26-.54s.27.54.06.78A12.2,12.2,0,0,1,65.89,17C65,17.65,64,18.28,63.16,19c.93-.54,1.8-1.17,2.67-1.77a14.59,14.59,0,0,1,2.61-1.62c.18-.09,1-.15.69.3-.09.12-.6.18-.78.27a32.14,32.14,0,0,0-2.7,1.77A20.59,20.59,0,0,1,63,19.6c-.15.09-.39.09-.51.18s-.06.09-.15.18c-.33.3-.63.6-1,.87a53,53,0,0,0-4.92,3.6,12.1,12.1,0,0,0,3.75-1.83c1.41-.87,2.79-1.74,4.17-2.67,1.08-.72,2.16-1.47,3.24-2.22a2.88,2.88,0,0,1,.63-.42c.51-.12.36.48.15.72.84,0,.15.66-.09.84-.78.57-1.62,1.11-2.43,1.65-1.8,1.2-3.6,2.37-5.31,3.66,1.92-1.23,3.81-2.49,5.79-3.63.3-.21,2.1-1.41,2.4-.84s-1.32,1.41-1.59,1.65c.3-.21,1.8-1.32,2.16-.72S67.63,22.18,67.24,22.45Zm-6.66-19c-2.61,1.59-5.34,3-8,4.47-1.2.66-2.4,1.32-3.57,2-.51.3-1,.63-1.53,1-.33.24-1.08.63-1.17,1.05a2.47,2.47,0,0,0,1.35-.36,14.72,14.72,0,0,0,1.5-.84c1.23-.75,2.46-1.44,3.69-2.16C55.45,6.88,58,5.11,60.58,3.4Zm-8,3.9c1.86-1,3.78-2,5.64-3.09A21.89,21.89,0,0,0,62.5,1.48c-2.22,1.23-4.41,2.58-6.6,3.87Zm8.7-3.78C62,3.07,63,2.41,63.55,2.08,62.77,2.53,62.05,3,61.3,3.52Zm5.64,15.69c.09-.06.09-.09.06-.06Z"/><path class="cls-1" d="M80.47,12c.27,0,.45.12.36.39s-.39.36-.51.45c-.72.48-1.44,1-2.19,1.41a24.32,24.32,0,0,0-4,2.91,30.14,30.14,0,0,0,4.29-2.94c.39-.27,1.5-1.2,2-.9s-.33,1-.6,1.23c.27-.15.87-.48,1.17-.21s.09.33,0,.48a7.73,7.73,0,0,1-1.8,1.47c-1.5,1.11-3,2.19-4.47,3.3,1.71-1,3.33-2.1,5-3.18.21-.12.9-.75,1.14-.39s-.57,1-.81,1.14c0,0,1.62-1.05,1.26-.21a1.08,1.08,0,0,1-.3.21c-.39.27-.81.54-1.2.78-1.86,1.2-3.75,2.4-5.49,3.72,1.08-.6,2.1-1.29,3.12-2a17.29,17.29,0,0,1,2.82-1.8c.18-.09.54-.18.54.15s-.27.39-.42.48c-1,.78-2,1.5-3.06,2.25.63-.39,1.26-.81,1.92-1.17a4.55,4.55,0,0,1,1.44-.69c.51,0,.42.42.18.72a9.09,9.09,0,0,1-1.44,1.17c.3-.18,1.41-1,1.83-.81.66.39-.9,1.56-1.14,1.74.45-.21,1.23-.24.81.39A15,15,0,0,1,79.09,24c.21-.15,1.44-1.29,1.68-.81.15.27-.39.81-.54,1,.15-.09.78-.45.78,0,0,.27-1,.72-1.23.84s-.78.39-.63-.18a2.47,2.47,0,0,1,.48-.66c-.21.15-1.77,1.23-1.53.27.06-.36.63-.78.9-1.05s.78-.75,1.14-1.14C79,23,77.86,23.8,76.75,24.52c-.33.21-.9.72-1.32.72s-.42-.18-.3-.42.57-.42.78-.57c.54-.36,1-.72,1.59-1.11a23.65,23.65,0,0,0,3.06-2.43c-1.47.78-2.85,1.71-4.23,2.58-.33.21-2.88,2-3.18,1.5-.21-.36.57-.72.78-.87.69-.45,1.38-.9,2.07-1.38a47.34,47.34,0,0,0,4.08-2.85c-2,1-3.84,2.37-5.73,3.54-.18.12-1.53,1-1.23.15.09-.24.54-.51.75-.66.45-.33.9-.69,1.35-1-.3.18-1.74,1.2-2,.6s.87-1.05,1.14-1.23c-.21.09-.63.15-.54-.24s.63-.48.84-.63c-.24.12-1.86.81-1.41,0,.12-.21.42-.36.6-.51.42-.3.84-.6,1.26-.93,1.68-1.23,3.42-2.43,5.07-3.78a36.15,36.15,0,0,0-5.25,3.21l-1.08.72c-.18.12-.45.42-.69.27-.6-.39,1.29-1.53,1.5-1.68-.3.15-1,.57-1.17,0s.84-1.14,1.2-1.38c-.18.09-1.86,1.26-1.77.45.06-.27.48-.48.66-.6.39-.27.81-.54,1.23-.81,1.83-1.14,3.75-2.25,5.49-3.57-1.74,1-3.39,2.1-5.1,3.12-.27.18-1.59,1.17-1.83.72s.84-1,1.11-1.17c-.24.12-1.56.63-1.2-.09,0-.12.24-.21.3-.27.39-.27.78-.51,1.17-.75,1.68-1.11,3.42-2.19,5-3.42-1.29.72-2.58,1.5-3.87,2.28l-1.5.9a3.07,3.07,0,0,1-.87.48c-.81.06.21-.78.3-.87C74.89,11.68,76,10.9,77,10.09a13,13,0,0,1-2.67,1.71c-.3.09-.72.18-.75-.24s.51-.78.75-1c-.42.12-.81-.09-.63-.54s.9-.9,1.32-1.23c-.45.27-.9.54-1.35.78-.18.09-.39.27-.57.09s.45-.75.66-.9C75.55,7.42,77.5,6.31,79.3,5c-1.14.72-2.25,1.41-3.42,2.1-.24.15-2.13,1.41-2.25.69-.06-.36.6-.72.81-.9.54-.39,1.08-.78,1.62-1.14,1.11-.78,2.22-1.56,3.3-2.4C77.89,4.15,76.42,5,75,5.92l-1.53.9c-.18.12-.57.36-.6-.06s.69-.75.93-.9c.66-.48,1.32-.93,2-1.38a45.92,45.92,0,0,0,3.87-2.85c-1.89,1-3.69,2.19-5.49,3.33-.21.12-.93.78-1.08.27-.21-.66,1.59-1.65,2-2-.24.15-2,1.5-2.22.78-.06-.24.27-.48.42-.63.42-.42.84-.84,1.29-1.26-.27.15-1.35.93-1.26.12A6.68,6.68,0,0,1,73.81,1c-.12.09-1.17.66-.87,0,.12-.27.81-.54,1.08-.66.48-.24.54.12.36.51S74.11,1.6,74,2c.3-.18,2.25-1.8,2.43-1.14.09.27-.42.63-.57.78-.6.57-1.2,1.17-1.8,1.77.78-.48,1.56-1,2.34-1.53A9.72,9.72,0,0,1,78.49.55c.72-.27.6.39.24.75a16.31,16.31,0,0,1-2.19,1.59c.78-.48,1.59-1,2.4-1.41.27-.18,1.17-.81,1.53-.54.69.54-2.52,2.61-2.91,2.88a29.27,29.27,0,0,1,2.67-1.53c.18-.06.45-.21.6,0s-.36.75-.57.93c-1.56,1.32-3.33,2.43-5,3.63,1.14-.66,2.25-1.35,3.36-2l1.44-.9c.21-.12.54-.45.78-.48a.28.28,0,0,1,.3.15c.18.45-.54,1-.84,1.2A31.92,31.92,0,0,1,77.23,7l1.89-1.08c.18-.09,1.62-1.14,1.68-.6.06.27-.36.45-.54.54L78.13,7.24a19,19,0,0,0-3.87,2.85,9.17,9.17,0,0,0,2.13-1.17c.75-.48,1.47-1,2.19-1.47.18-.12,2.16-1.68,2.19-1,0,.27-.51.48-.66.57l-2,1.35a21,21,0,0,0-3.78,2.88,29.7,29.7,0,0,0,3.3-2.16l1.59-1.08a4.89,4.89,0,0,1,1.35-.72c.33,0,.6.15.39.48a3.91,3.91,0,0,1-.87.66c-1.17.84-2.31,1.68-3.45,2.55a34.41,34.41,0,0,1,4.08-2.37c.18-.06.39-.15.51.09.24.48-.87,1.14-1.17,1.38.24-.15,1-.66,1.11-.15s-.57.84-.84,1c.21-.12.69-.48,1-.39s.15.54,0,.75A5.36,5.36,0,0,1,80.47,12Zm-4.35,4.44a31.73,31.73,0,0,0,3.75-2.55,14.75,14.75,0,0,0-2.22,1.44C77.14,15.73,76.63,16.12,76.12,16.48Zm3.21-5.37L78,12C78.49,11.68,78.91,11.38,79.33,11.11Z"/><path class="cls-1" d="M106.45,6l-1.71,1.23A38.71,38.71,0,0,0,101.2,10a35.12,35.12,0,0,1,3.33-2.16c.27-.18,1.14-.69,1.35-.24s-.45.69-.66.84c.42-.12.78.12.51.51A5.66,5.66,0,0,1,104.41,10c-1.2.9-2.43,1.74-3.63,2.64,1.29-.75,2.55-1.56,3.78-2.4a5.87,5.87,0,0,1,.9-.6c.3-.09.54.09.3.39a3,3,0,0,1-.72.48c-.57.39-1.11.75-1.68,1.11a37.9,37.9,0,0,1-3.36,2c.54.51-3.18,3.24-3.66,3.63a59.39,59.39,0,0,0,5.7-3.66,26.89,26.89,0,0,1,2.76-1.77c.27-.15.78-.45,1-.15s-.12.75-.36,1a.31.31,0,0,1,.39.06c.24.36-.42.84-.63,1a30.53,30.53,0,0,1-2.82,1.86,37.37,37.37,0,0,0-5.55,3.6c3-1.59,5.73-3.66,8.73-5.25.3-.15,1-.3.66.3s-1.23,1-1.74,1.35c-1.62,1.08-3.3,2.1-4.89,3.21,1.71-1,3.42-2,5.16-3,.27-.18.57-.36.84-.51s.45-.36.63-.36c.39,0,.36.36.21.63a3.57,3.57,0,0,1-1,.87c.24,0,.51,0,.51.3s-.42.63-.63.78c-.69.57-1.47,1.05-2.19,1.56A38.86,38.86,0,0,0,99,21.91c1.68-.9,3.24-2,4.83-3.06a10,10,0,0,1,2.25-1.32c.27-.09.6-.12.63.24s-.42.6-.63.78c.36-.12.39.24.24.45a4.92,4.92,0,0,1-.75.57l-1.32,1c.27-.18,1.86-1.29,2.07-.57s-1.32,1.44-1.68,1.71c.33-.21,1-.81,1.44-.78.27,0,.3.24.21.42s-.6.57-.84.81c-.51.42-1,.84-1.47,1.26.39-.27,1.41-1.2,2-1.08s-.09.81-.27,1c.78-.42.6.45.66.9,0,.18.18.24-.06.42s-.24.09-.33,0-.09-.66-.12-.84c-.27.15-2,1.62-2.25,1-.09-.15,0-.21.09-.33A11.68,11.68,0,0,1,105,23.35c-.75.51-1.47,1-2.25,1.5-.18.09-1,.54-.93,0,0-.27.51-.54.66-.66.66-.6,1.32-1.17,2-1.77-1.08.69-2.16,1.38-3.24,2-.24.12-.78.54-1.08.42s-.21-.24-.12-.42.72-.48,1-.66l1.59-1.14a33,33,0,0,0,2.82-2.13c-2,1-3.75,2.34-5.64,3.51-.18.12-.51.39-.72.21S99,24,99,23.83s.63-.51.87-.69c.45-.33.9-.66,1.38-1a15.38,15.38,0,0,1-2,1.08c-.6.21-1.14-.12-.57-.66-.27.09-.57,0-.6-.27s.36-.6.54-.75A17.57,17.57,0,0,1,100.78,20c1.44-1,3-1.89,4.38-3a43.82,43.82,0,0,0-5.76,3.57c-.33.21-1.53,1.26-1.86.81-.48-.66,1.65-1.77,2-2l-1,.6a2.27,2.27,0,0,1-.66.33c-.51,0-.27-.48-.06-.72a12.35,12.35,0,0,1,1.71-1.32l2.19-1.44c-.93.6-1.86,1.17-2.82,1.74a15.21,15.21,0,0,1-2.16,1.2c-.21.09-.48.24-.66,0s.3-.81.54-1A20.32,20.32,0,0,1,99.07,17c-.57.33-1.11.66-1.68,1-.27.15-.81.57-1.14.45-.57-.15.18-.66.39-.81-.27.15-1.44.81-1.5.15,0-.21.24-.36.39-.48,1.11-.93,2.28-1.83,3.36-2.82-.78.48-1.53,1-2.31,1.53-.21.15-1.47,1.14-1.65.51-.12-.42.93-1,1.17-1.17.75-.57,1.53-1.11,2.28-1.71-.81.45-1.59,1-2.37,1.47a7.49,7.49,0,0,1-1.56,1c-.3.09-.51-.06-.33-.39s1-.81,1.38-1.11c-.18.12-.84.6-1,.24-.09-.18,0-.27.15-.42a14,14,0,0,1,1.59-1.35,19.57,19.57,0,0,0,1.65-1.5c-.69.39-1.35.84-2,1.26-.36.24-1.11.93-1.56.93-.63,0-.09-.69.09-.9.54-.54,1.11-1.05,1.68-1.59-.54.36-1.05.75-1.56,1.11a4,4,0,0,1-1.26.72c-.45.06-.51-.3-.33-.6a6.31,6.31,0,0,1,1.08-1.11c-.63.45-1.26.87-1.89,1.29.93.12-.51,1.38-.69,1.53.27-.15,1-.51,1.14,0,.12.36-.42.72-.66.93a36.73,36.73,0,0,1-3,2.25c.87-.57,1.71-1.14,2.55-1.71.27-.18,1.2-1.05,1.5-.69s-.42.63-.57.75L90,17.41c.24-.15,2.46-1.71,2.4-.78,0,.48-.9,1-1.23,1.23-.6.45-1.23.9-1.86,1.32a26.33,26.33,0,0,1,3.06-1.8c.24-.06.57-.15.51.21s-.39.48-.54.6c-1.86,1.47-3.84,2.79-5.7,4.26,1.26-.69,2.49-1.47,3.72-2.22.48-.3,1-.63,1.44-.93.18-.12.57-.48.78-.27.6.54-1.86,1.95-2.16,2.16-1.2.78-2.43,1.5-3.57,2.37,1-.6,2-1.26,3-1.89a16,16,0,0,1,2.64-1.62c.27-.09.69-.09.54.33s-.6.54-.81.72c-1,.72-2,1.41-2.94,2.1l2.13-1.44c.24-.15,1-.84,1.32-.66.6.36-1.44,1.5-1.59,1.62.21-.12,1.83-1.17,1.74-.33a1.45,1.45,0,0,1-.27.42c-.33.45-.66.9-1,1.32.15-.09.42-.33.63-.24s.09.3,0,.42A3.24,3.24,0,0,1,91,25c-1,.06.9-2.07,1-2.28-1,.54-1.92,1.2-2.88,1.8-.18.12-.57.51-.81.42-.39-.12-.06-.57.09-.72-.3.18-1.23.81-1.53.42a.27.27,0,0,1,0-.36c.12-.24.63-.48.87-.66.54-.36,1-.75,1.59-1.11-.6.39-1.2.75-1.77,1.14a6.38,6.38,0,0,1-1.35.69c-.48.12-.6-.27-.33-.63a5.48,5.48,0,0,1,1.38-1.11c-.36.21-1.35,1-1.83.84s0-.69.24-.87c1.35-1.2,2.85-2.19,4.29-3.27-1,.6-2,1.23-3,1.8-.24.15-.63.48-.9.48s-.33-.27-.21-.48.6-.54.87-.75c.45-.33.93-.66,1.41-1,1-.69,2-1.35,3-2.1-1.59.93-3.12,1.92-4.71,2.85-.18.12-.78.57-.9.15s1-1,1.26-1.23c-.42.09-.66-.18-.39-.48a9.43,9.43,0,0,1,1.77-1.26,27.2,27.2,0,0,0,3.66-2.76,24,24,0,0,0-4,2.4c-.51.36-1.05.72-1.59,1.08-.15.12-.69.39-.57-.12.06-.21.39-.36.54-.45.57-.42,1.17-.81,1.77-1.23a27.36,27.36,0,0,0,3.63-2.82c-1.35.72-2.55,1.68-3.84,2.49a4.56,4.56,0,0,1-1.62.9c-.27,0-.57-.12-.39-.42a3.39,3.39,0,0,1,.93-.63l1.74-1.17c1.38-.9,2.76-1.83,4.11-2.76-.12-.18-4,2.28-4.53,2.58-.3.18-.63.36-1,.54-.15.06-.42.27-.6.24-.69-.12.15-.87.36-1a48.6,48.6,0,0,1,4.44-2.85,19.58,19.58,0,0,0,4.26-3c-2.61,1.38-4.86,3.42-7.47,4.86-.36.21-1.29.84-1.68.45s.27-.87.51-1.08a42.93,42.93,0,0,1,4-2.61c-1.35.81-2.73,1.65-4.11,2.43-.24.15-.78.6-1.08.6-.66,0-.12-.78.09-1-.3,0-.39-.24-.3-.51s.66-.78,1-1c-.9.21-.39-.69-.09-1a20.26,20.26,0,0,1,1.77-1.41c-.33.18-2.31,1.56-2.64,1-.24-.42,1-1,1.29-1.17,1.14-.75,2.28-1.47,3.42-2.25a20.87,20.87,0,0,0,3.09-2.25C92,4,90.91,4.81,89.77,5.56a16.53,16.53,0,0,1-3.33,2c-.39.15-.9,0-.57-.48a4.55,4.55,0,0,1,1.17-1c1.17-.9,2.4-1.71,3.6-2.55-1.17.66-2.31,1.35-3.48,2-.24.15-1.53,1.17-1.71.63-.09-.3.42-.6.6-.75.45-.36.93-.69,1.41-1,1.05-.75,2.13-1.5,3.21-2.25C89.74,2.8,88.84,3.4,87.94,4c-.27.18-1.17,1-1.53.87-.6-.12.24-.84.39-1,.69-.6,1.47-1.17,2.19-1.74-.51.33-1,.66-1.56,1-.3.18-.84.63-1.23.63-1,0,.69-1.65.87-1.83-.18.09-.66.51-.9.42-.42-.12-.06-1,0-1.23-.18.09-.48.36-.69.3-.48-.18.12-.54.27-.63s.66-.51.9-.33-.06,1-.12,1.23c.24-.15,1.8-1.41,2-.81.09.24-.27.48-.39.63-.45.48-.93,1-1.35,1.47.81-.48,1.59-1,2.37-1.47.36-.21.69-.42,1-.63s.51-.39.72-.39c.54-.06.27.48,0,.72a20.29,20.29,0,0,1-2,1.62c.87-.54,1.71-1.08,2.58-1.53.21-.12,1.26-.72,1.23-.06-.06.42-.9.84-1.2,1.05-.81.6-1.65,1.17-2.46,1.74q1.62-1,3.24-1.89c.18-.09.45-.3.63-.21s.09.45,0,.6A18.08,18.08,0,0,1,90.07,4.6C89.05,5.32,88,6,87,6.76c1.17-.69,2.28-1.47,3.39-2.22a13.77,13.77,0,0,1,3-1.8c.6-.21.75.27.42.72a7.84,7.84,0,0,1-1.32,1.11c-1.14.84-2.34,1.62-3.54,2.4,1.38-.84,2.76-1.71,4.14-2.58.21-.15.69-.6,1-.57.51,0,.09.48-.06.63-2.37,1.89-5.19,3.27-7.38,5.4a38.66,38.66,0,0,0,4.53-3.06,19.87,19.87,0,0,1,2.13-1.38c.27-.15,1.68-.69,1.35.15-.24.57-1.32,1.05-1.83,1.35-.81.54-1.65,1-2.49,1.53a23.65,23.65,0,0,0-4.17,2.82c2.19-1.17,4.23-2.67,6.36-4a12.62,12.62,0,0,1,2.91-1.62c.3-.09.69,0,.57.39s-.84.78-1.2,1c.21-.09.69-.48,1-.33s-.12.66-.3.81a21.88,21.88,0,0,1-3,2c-1.08.69-2.16,1.35-3.24,2a14.45,14.45,0,0,0-2.34,1.68,10.19,10.19,0,0,0,2.31-1.26c.78-.48,1.53-1,2.31-1.53S93,9.31,93.79,8.77a6.42,6.42,0,0,1,1.86-1.08c.27,0,.48,0,.48.33s-.36.66-.57.87a17.33,17.33,0,0,1-2.25,1.65c-1.5,1-3.06,1.92-4.56,2.88,2.7-1.59,5.34-3.27,8.07-4.8.24-.15.9-.45.75.12-.09.27-.54.51-.72.72-1,1-2.13,1.86-3.12,2.85.69-.42,1.32-.9,2-1.35.3-.21,1.08-.93,1.5-.78.57.18,0,.69-.21.87-.54.54-1.14,1-1.68,1.59.66-.42,1.29-.84,2-1.23.27-.18,1-.75,1.35-.63.84.36-1.92,2.55-2.19,2.79l1.53-1c.18-.09.51-.42.75-.42.72,0-.12.78-.27.9.27-.15.9-.54,1.14-.15,1.68-1.26,3.42-2.43,5.1-3.69a35.87,35.87,0,0,0-3.09,1.95c-.27.18-1.32,1.17-1.62.87-.48-.39,1.23-1.35,1.5-1.53,1-.69,2-1.35,2.91-2-1.26.75-2.4,1.62-3.6,2.4-.3.18-1,.51-.81-.21s1.08-1.17,1.53-1.56c-.33.21-1.23.87-1.65.66-.6-.3.24-1,.48-1.14a37.53,37.53,0,0,1,3.6-2.4c-.84.51-1.68,1-2.52,1.5a13.23,13.23,0,0,1-1.86,1.11c-.18.06-.3.12-.42-.06-.39-.54,1.23-1.59,1.56-1.86-.27.12-1,.57-1.2.09s.9-1,1.2-1.2c1.44-1.08,3-2.07,4.35-3.27a31.22,31.22,0,0,0-3.42,2.16c-.24.15-1.44,1.2-1.71.78s1.29-1.35,1.56-1.56c1-.81,2.07-1.59,3.09-2.43-1.26.81-2.46,1.77-3.78,2.52-.3.15-1.23.57-1.08-.15.09-.42.84-.87,1.14-1.11-.21.15-1.32,1.17-1.59.72s.81-1.44,1-1.71c-.45.12-.36-.51-.36-.75-.18.12-.51.42-.72.33-.48-.15.06-.48.24-.6s.63-.48.84-.3.12.54.12.72c.21-.18.93-.69.87,0,0,.42-.69,1-1,1.41.81-.54,1.59-1.08,2.43-1.53.21-.12,1.26-.66,1.11,0-.06.3-.69.57-.9.72-.78.57-1.53,1.11-2.25,1.74,1.5-.9,2.82-2.07,4.38-2.88.18-.09.48-.3.69-.18s.15.42,0,.6a10.43,10.43,0,0,1-1.86,1.59c.33-.18,1.71-1.17,2-.54.18.42-.69,1-1,1.17-1.35,1.11-2.82,2.07-4.2,3.12a45.09,45.09,0,0,0,4.14-2.55,11.46,11.46,0,0,1,1.41-.93c.24-.09.51,0,.39.3s-.66.54-.87.69c-.63.45-1.26.87-1.89,1.29-1.2.84-2.4,1.68-3.54,2.61,1.32-.75,2.61-1.56,3.9-2.31.33-.18,2.16-1.53,2.34-.9.15.45-.81,1-1.08,1.2-.63.42-1.26.81-1.86,1.2a30.4,30.4,0,0,0-3.24,2.16,30.66,30.66,0,0,0,3.81-2.31c.36-.24,2.22-1.77,2.58-1.32C107,5.74,106.6,5.92,106.45,6ZM91.75,8.77c-1.71,1-3.51,1.92-5.13,3.06.9-.51,1.77-1.05,2.67-1.59S90.94,9.28,91.75,8.77Zm-.69-1.38a27.44,27.44,0,0,0,2.7-1.71c-.24.12-.51.27-.75.42C92.35,6.52,91.72,6.94,91.06,7.39Zm3.66-.9c-.69.36-1.35.78-2,1.23C93.25,7.36,94.09,6.91,94.72,6.49Zm3.51,10.2c1.35-.78,2.67-1.56,4-2.37a12,12,0,0,0,3.09-2.25,24.75,24.75,0,0,0-3.69,2.34C100.48,15.19,99.37,15.94,98.23,16.69Zm.9-2.94c-.15-.09-.36.21-.51.3C98.8,14,99,13.84,99.13,13.75Zm.18,9a35.27,35.27,0,0,0,4.08-2.49c-.9.51-1.83,1-2.73,1.56A13.5,13.5,0,0,0,99.31,22.72ZM104,19.3c.51-.3,1-.63,1.5-1-.45.27-.93.57-1.38.87A.41.41,0,0,1,104,19.3Z"/></g></g></svg>